<mxfile host="app.diagrams.net" modified="2024-07-11T00:54:57.748Z" agent="Mozilla/5.0 (Windows NT 10.0; Win64; x64) AppleWebKit/537.36 (KHTML, like Gecko) Chrome/126.0.0.0 Safari/537.36 Edg/126.0.0.0" etag="BQfG7mrNxhBS7lgtSXsn" version="24.6.4" type="device">
  <diagram name="Page-1" id="MVnpgIeBpPKWQjfffJXn">
    <mxGraphModel dx="2071" dy="725" grid="1" gridSize="10" guides="1" tooltips="1" connect="1" arrows="1" fold="1" page="1" pageScale="1" pageWidth="850" pageHeight="1100" math="0" shadow="0">
      <root>
        <mxCell id="0" />
        <mxCell id="1" parent="0" />
        <mxCell id="t1x7EK1OemjOOLSHdHvf-34" value="&lt;font color=&quot;#000000&quot;&gt;AWS Cloud - Application AWS Account&lt;/font&gt;" style="sketch=0;outlineConnect=0;gradientColor=none;html=1;whiteSpace=wrap;fontSize=12;fontStyle=0;shape=mxgraph.aws4.group;grIcon=mxgraph.aws4.group_aws_cloud;strokeColor=#858B94;fillColor=none;verticalAlign=top;align=left;spacingLeft=30;fontColor=#858B94;dashed=0;" parent="1" vertex="1">
          <mxGeometry x="-140" y="40" width="400" height="500" as="geometry" />
        </mxCell>
        <mxCell id="t1x7EK1OemjOOLSHdHvf-35" value="Region - ap-southeast-2" style="points=[[0,0],[0.25,0],[0.5,0],[0.75,0],[1,0],[1,0.25],[1,0.5],[1,0.75],[1,1],[0.75,1],[0.5,1],[0.25,1],[0,1],[0,0.75],[0,0.5],[0,0.25]];outlineConnect=0;gradientColor=none;html=1;whiteSpace=wrap;fontSize=12;fontStyle=0;shape=mxgraph.aws4.group;grIcon=mxgraph.aws4.group_region;strokeColor=#147EBA;fillColor=none;verticalAlign=top;align=left;spacingLeft=30;fontColor=#147EBA;dashed=0;" parent="1" vertex="1">
          <mxGeometry x="-130" y="70" width="380" height="460" as="geometry" />
        </mxCell>
        <mxCell id="t1x7EK1OemjOOLSHdHvf-36" value="&lt;font color=&quot;#666666&quot;&gt;Application VPC Network&lt;br&gt;(Optus Managed)&lt;/font&gt;" style="points=[[0,0],[0.25,0],[0.5,0],[0.75,0],[1,0],[1,0.25],[1,0.5],[1,0.75],[1,1],[0.75,1],[0.5,1],[0.25,1],[0,1],[0,0.75],[0,0.5],[0,0.25]];outlineConnect=0;gradientColor=none;html=1;whiteSpace=wrap;fontSize=12;fontStyle=0;shape=mxgraph.aws4.group;grIcon=mxgraph.aws4.group_vpc;strokeColor=#248814;fillColor=none;verticalAlign=top;align=left;spacingLeft=30;fontColor=#AAB7B8;dashed=0;" parent="1" vertex="1">
          <mxGeometry x="-120" y="100" width="360" height="420" as="geometry" />
        </mxCell>
        <mxCell id="t1x7EK1OemjOOLSHdHvf-2" value="&lt;font color=&quot;#000000&quot;&gt;AWS Cloud - Elastic AWS Account&lt;/font&gt;" style="sketch=0;outlineConnect=0;gradientColor=none;html=1;whiteSpace=wrap;fontSize=12;fontStyle=0;shape=mxgraph.aws4.group;grIcon=mxgraph.aws4.group_aws_cloud;strokeColor=#858B94;fillColor=none;verticalAlign=top;align=left;spacingLeft=30;fontColor=#858B94;dashed=0;" parent="1" vertex="1">
          <mxGeometry x="680" y="40" width="240" height="240" as="geometry" />
        </mxCell>
        <mxCell id="t1x7EK1OemjOOLSHdHvf-3" value="Region - ap-southeast-2" style="points=[[0,0],[0.25,0],[0.5,0],[0.75,0],[1,0],[1,0.25],[1,0.5],[1,0.75],[1,1],[0.75,1],[0.5,1],[0.25,1],[0,1],[0,0.75],[0,0.5],[0,0.25]];outlineConnect=0;gradientColor=none;html=1;whiteSpace=wrap;fontSize=12;fontStyle=0;shape=mxgraph.aws4.group;grIcon=mxgraph.aws4.group_region;strokeColor=#147EBA;fillColor=none;verticalAlign=top;align=left;spacingLeft=30;fontColor=#147EBA;dashed=0;" parent="1" vertex="1">
          <mxGeometry x="690" y="70" width="220" height="200" as="geometry" />
        </mxCell>
        <mxCell id="t1x7EK1OemjOOLSHdHvf-4" value="&lt;font color=&quot;#666666&quot;&gt;Elastic SaaS VPC Network&lt;br&gt;(Elastic Managed)&lt;/font&gt;" style="points=[[0,0],[0.25,0],[0.5,0],[0.75,0],[1,0],[1,0.25],[1,0.5],[1,0.75],[1,1],[0.75,1],[0.5,1],[0.25,1],[0,1],[0,0.75],[0,0.5],[0,0.25]];outlineConnect=0;gradientColor=none;html=1;whiteSpace=wrap;fontSize=12;fontStyle=0;shape=mxgraph.aws4.group;grIcon=mxgraph.aws4.group_vpc;strokeColor=#248814;fillColor=none;verticalAlign=top;align=left;spacingLeft=30;fontColor=#AAB7B8;dashed=0;" parent="1" vertex="1">
          <mxGeometry x="700" y="100" width="200" height="160" as="geometry" />
        </mxCell>
        <mxCell id="t1x7EK1OemjOOLSHdHvf-1" value="Elastic SaaS Platform" style="shape=image;verticalLabelPosition=bottom;labelBackgroundColor=default;verticalAlign=top;aspect=fixed;imageAspect=0;image=data:image/svg+xml,PHN2ZyB4bWxucz0iaHR0cDovL3d3dy53My5vcmcvMjAwMC9zdmciIHZpZXdCb3g9IjAgMCA1MDAgMTcxLjM4IiBkYXRhLW5hbWU9IkxheWVyIDEiIGlkPSJMYXllcl8xIj48ZGVmcz48c3R5bGU+LmNscy0xe2ZpbGw6d2hpdGU7fS5jbHMtMntmaWxsOiNmZWM1MTQ7fS5jbHMtM3tmaWxsOiMwMGJmYjM7fS5jbHMtNHtmaWxsOiNmMDRlOTg7fS5jbHMtNXtmaWxsOiMxYmE5ZjU7fS5jbHMtNntmaWxsOiM5M2M5MGU7fS5jbHMtN3tmaWxsOiMwN2M7fS5jbHMtOHtmaWxsOiMxYzFlMjM7fTwvc3R5bGU+PC9kZWZzPjx0aXRsZT5sb2dvLWVsYXN0aWMtaG9yaXpvbnRhbC1jb2xvcjwvdGl0bGU+PGcgaWQ9ImxvZ28tZWxhc3RpYy1ob3Jpem9udGFsLWNvbG9yIj48cGF0aCBkPSJNMTcyLjA1LDg5Ljc5YTMzLjg1LDMzLjg1LDAsMCwwLTIyLjM5LTMxLjkzLDQ4LjExLDQ4LjExLDAsMCwwLC45LTkuMjUsNDguNTksNDguNTksMCwwLDAtODgtMjguNDUsMjUuODEsMjUuODEsMCwwLDAtNDAsMjkuNEEzNC4zMSwzNC4zMSwwLDAsMCwwLDgxLjYyYTMzLjg4LDMzLjg4LDAsMCwwLDIyLjUsMzIsNDkuNzMsNDkuNzMsMCwwLDAtLjg5LDkuMjQsNDguNDYsNDguNDYsMCwwLDAsODcuODYsMjguMjYsMjUuNzcsMjUuNzcsMCwwLDAsNDAtMjkuMjksMzQuMjksMzQuMjksMCwwLDAsMjIuNTctMzIuMDYiIGNsYXNzPSJjbHMtMSIvPjxwYXRoIGQ9Ik02Ny42NCw3My44MSwxMDUuMjksOTFsMzgtMzMuMjhhNDIsNDIsMCwwLDAsLjgxLTguMzQsNDIuNDYsNDIuNDYsMCwwLDAtNzcuNDgtMjRMNjAuMjksNTguMTJaIiBjbGFzcz0iY2xzLTIiLz48cGF0aCBkPSJNMjguNjcsMTEzLjY4YTQzLjE0LDQzLjE0LDAsMCwwLS44Myw4LjQ3LDQyLjU3LDQyLjU3LDAsMCwwLDc3Ljc3LDIzLjk0bDYuMjctMzIuNjctOC4zNy0xNkw2NS43Miw4MC4yWiIgY2xhc3M9ImNscy0zIi8+PHBhdGggZD0iTTI4LjQ0LDQ4LjUzbDI1LjgsNi4wOSw1LjY1LTI5LjM0QTIwLjM4LDIwLjM4LDAsMCwwLDI4LjQ0LDQ4LjUzIiBjbGFzcz0iY2xzLTQiLz48cGF0aCBkPSJNMjYuMiw1NC42N2EyOC43NCwyOC43NCwwLDAsMC0xOS41NSwyN0EyOC40NCwyOC40NCwwLDAsMCwyNSwxMDguMjhsMzYuMi0zMi43Mi02LjY1LTE0LjJaIiBjbGFzcz0iY2xzLTUiLz48cGF0aCBkPSJNMTEyLjIzLDE0Ni4wOWEyMC4zNSwyMC4zNSwwLDAsMCwzMS4zOS0yMy4ybC0yNS43OC02WiIgY2xhc3M9ImNscy02Ii8+PHBhdGggZD0iTTExNy40NywxMTAuMWwyOC4zOCw2LjYzYTI4LjcsMjguNywwLDAsMCwxOS41NS0yNywyOC40MSwyOC40MSwwLDAsMC0xOC4zNC0yNi41NEwxMDkuOTQsOTUuNjlaIiBjbGFzcz0iY2xzLTciLz48cGF0aCBkPSJNMjQwLjU2LDEyMC40bDMuNDQtLjM1LjI0LDdhMTcxLDE3MSwwLDAsMS0yMy4xMiwxLjlxLTEyLjgsMC0xOC4xNC03LjQxdC01LjMzLTIzLjA2cTAtMzEuMTcsMjQuNzgtMzEuMTgsMTIsMCwxNy45LDYuN3Q1LjkyLDIxbC0uNDcsNi43NkgyMDYuNjZxMCw5Ljg0LDMuNTYsMTQuNTh0MTIuMzgsNC43NFEyMzEuNDQsMTIxLjExLDI0MC41NiwxMjAuNFptLTMuMi0yNS43MnEwLTEwLjkxLTMuNDktMTUuNDF0LTExLjM4LTQuNTFxLTcuODksMC0xMS44Niw0Ljc0dC00LjA5LDE1LjE4WiIgY2xhc3M9ImNscy04Ii8+PHBhdGggZD0iTTI1OC42NSwxMjguNDh2LTc4aDguODl2NzhaIiBjbGFzcz0iY2xzLTgiLz48cGF0aCBkPSJNMzIzLjUzLDg2LjM4djI5LjljMCwzLDcuMzgsMi44NCw3LjM4LDIuODRsLS40NSw3Ljg2Yy02LjI1LDAtMTEuNDIuNTItMTQuNTItMi40OWE1MS43MSw1MS43MSwwLDAsMS0yMS4zMyw0LjQ1cS04LjE3LDAtMTIuNDUtNC42M1QyNzcuODksMTExcTAtOC42Niw0LjM5LTEyLjc1dDEzLjc1LTVsMTguNjEtMS43N3YtNS4xcTAtNi0yLjYtOC42NmE5LjY1LDkuNjUsMCwwLDAtNy4xMi0yLjZsLTIzLjM2LDBWNjcuMjloMjIuNzdxMTAuMDgsMCwxNC42NCw0LjYzVDMyMy41Myw4Ni4zOFpNMjg3LDExMC41NnEwLDEwLjkxLDksMTAuOTFhNDcuOTMsNDcuOTMsMCwwLDAsMTUuODktMi43M2wyLjcyLS45NVY5OC4yM0wyOTcuMSw5OS44OXEtNS4zNC40OC03LjcxLDMuMDhUMjg3LDExMC41NloiIGNsYXNzPSJjbHMtOCIvPjxwYXRoIGQ9Ik0zNTguMjQsNzUuMjRxLTEyLjkzLDAtMTIuOTMsOSwwLDQuMTYsMyw1Ljg3dDEzLjUxLDMuNTZxMTAuNTYsMS44NSwxNC45NCw1LjE2dDQuMzksMTIuNDRxMCw5LjE0LTUuODcsMTMuNHQtMTcuMTMsNC4yN2MtNC45LDAtMjEuMjYtMS44Mi0yMS4yNi0xLjgybC40OC03LjdjOS40LjksMTYuMTksMS41NywyMC43OCwxLjU3czguMDgtLjczLDEwLjQ5LTIuMTksMy42MS0zLjkxLDMuNjEtNy4zNS0xLTUuNzctMy4wOC03LTYuNTYtMi4zOS0xMy41MS0zLjUtMTEuOS0yLjczLTE0LjgyLTQuODYtNC4zOS02LjA5LTQuMzktMTEuODYsMi0xMCw2LjExLTEyLjgsOS4xNS00LjE1LDE1LjIzLTQuMTVjNC44MiwwLDIxLjU1LDEuMjMsMjEuNTUsMS4yM3Y3Ljc1QzM3MC41MSw3NS44NywzNjMuMjksNzUuMjQsMzU4LjI0LDc1LjI0WiIgY2xhc3M9ImNscy04Ii8+PHBhdGggZD0iTTQyNCw3Ni4xOEg0MDUuMTV2MjguMzRxMCwxMC4xOSwxLjQ4LDEzLjM5YzEsMi4xNCwzLjM0LDMuMiw3LjA1LDMuMmwxMC41NS0uNzEuNiw3LjM1YTgxLjI4LDgxLjI4LDAsMCwxLTEyLjEsMS4zMXEtOS4yNCwwLTEyLjgtNC41MXQtMy41NS0xNy4xOVY3Ni4xOEgzODh2LTcuN2g4LjQyVjUwLjM0aDguNzdWNjguNDhINDI0WiIgY2xhc3M9ImNscy04Ii8+PHBhdGggZD0iTTQzNi4zNiw2MC45MVY1MC41OWg4Ljg5VjYwLjkxWm0wLDY3LjU3di02MGg4Ljg5djYwWiIgY2xhc3M9ImNscy04Ii8+PHBhdGggZD0iTTQ4My43Niw2Ny4yOUExMDIuNjIsMTAyLjYyLDAsMCwxLDQ5Nyw2OC43MmwyLjg0LjM1LS4zNSw3LjIzYTEzOS4xOCwxMzkuMTgsMCwwLDAtMTQtMS4wNnEtMTAuMDgsMC0xMy42OSw0Ljh0LTMuNjIsMTcuNzhxMCwxMywzLjM4LDE4LjA4VDQ4NS42NiwxMjFsMTQtMS4wNi4zNiw3LjM1YTEyMi45NCwxMjIuOTQsMCwwLDEtMTYuNDgsMS42NnEtMTMuODYsMC0xOS4xNC03LjEydC01LjI4LTI0cTAtMTYuODksNS42OS0yMy43MVQ0ODMuNzYsNjcuMjlaIiBjbGFzcz0iY2xzLTgiLz48L2c+PC9zdmc+;" parent="1" vertex="1">
          <mxGeometry x="737.48" y="148.62" width="120.99" height="41.38" as="geometry" />
        </mxCell>
        <mxCell id="t1x7EK1OemjOOLSHdHvf-6" value="&lt;font color=&quot;#000000&quot;&gt;AWS Cloud - Dynatrace AWS Account&lt;/font&gt;" style="sketch=0;outlineConnect=0;gradientColor=none;html=1;whiteSpace=wrap;fontSize=12;fontStyle=0;shape=mxgraph.aws4.group;grIcon=mxgraph.aws4.group_aws_cloud;strokeColor=#858B94;fillColor=none;verticalAlign=top;align=left;spacingLeft=30;fontColor=#858B94;dashed=0;" parent="1" vertex="1">
          <mxGeometry x="680" y="300" width="240" height="240" as="geometry" />
        </mxCell>
        <mxCell id="t1x7EK1OemjOOLSHdHvf-7" value="Region - ap-southeast-2" style="points=[[0,0],[0.25,0],[0.5,0],[0.75,0],[1,0],[1,0.25],[1,0.5],[1,0.75],[1,1],[0.75,1],[0.5,1],[0.25,1],[0,1],[0,0.75],[0,0.5],[0,0.25]];outlineConnect=0;gradientColor=none;html=1;whiteSpace=wrap;fontSize=12;fontStyle=0;shape=mxgraph.aws4.group;grIcon=mxgraph.aws4.group_region;strokeColor=#147EBA;fillColor=none;verticalAlign=top;align=left;spacingLeft=30;fontColor=#147EBA;dashed=0;" parent="1" vertex="1">
          <mxGeometry x="690" y="330" width="220" height="200" as="geometry" />
        </mxCell>
        <mxCell id="t1x7EK1OemjOOLSHdHvf-8" value="&lt;font color=&quot;#666666&quot;&gt;Dynatrace SaaS VPC Network&lt;br&gt;(Dynatrace Managed)&lt;/font&gt;" style="points=[[0,0],[0.25,0],[0.5,0],[0.75,0],[1,0],[1,0.25],[1,0.5],[1,0.75],[1,1],[0.75,1],[0.5,1],[0.25,1],[0,1],[0,0.75],[0,0.5],[0,0.25]];outlineConnect=0;gradientColor=none;html=1;whiteSpace=wrap;fontSize=12;fontStyle=0;shape=mxgraph.aws4.group;grIcon=mxgraph.aws4.group_vpc;strokeColor=#248814;fillColor=none;verticalAlign=top;align=left;spacingLeft=30;fontColor=#AAB7B8;dashed=0;" parent="1" vertex="1">
          <mxGeometry x="700" y="360" width="200" height="160" as="geometry" />
        </mxCell>
        <mxCell id="t1x7EK1OemjOOLSHdHvf-5" value="Dynatrace SaaS" style="shape=image;verticalLabelPosition=bottom;labelBackgroundColor=default;verticalAlign=top;aspect=fixed;imageAspect=0;image=data:image/png,iVBORw0KGgoAAAANSUhEUgAAAagAAAB3CAMAAABhcyS8AAABjFBMVEX///8aGhoAAAC03ABzvigUlv9vLagODg4YGBgWFhb5+fkEBASenp5/f39fX18PDw9paWnw8PDNzc2oqKiTk5NKSkri4uIqKirDw8NRUVEgICDT09M5OTl1dXXq6uoAkv97e3uOjo64uLjFxcXe3t5NTU0vLy+GhoaCxT1rIadeIpatra2bm5v+//ltbW08PDz6/e/c0OkShOpruxK94gDy+dYtof9zvSjR6Xfn9NyVzWLB4jmfz/+w1//o9f+8353Lt9+2mtJ1yB6ng8llFqPy7Pfr9bvP6Gvc7ozj8qTw+M3E40vl86vP6G3W68Kx2oyl1XqDxUfS6b3E4qvK5lqq1iej0jyezVKAvWxytX5lrJFSoqCjzbKIwmNeqZtMnrY8k9AtjdgfiOAAfvUAeP0Af/LC3/pGqv9jt/89p/9/wv+m0v9otP93Oq2IVLeUZr68odVRBY1THolcO4ZfTn9jYW9hBaFmdmBrkk9uo0CHUrZoglpeQ3920RSadMDIs91ni1JhUXllqSLNwNisu/zBAAAQEUlEQVR4nO2d+X8bxRmHrYnwXrJWh3UflmRZSiJZclCCkwA57MTkaiAklEJLKQ0Qjpy0pRTatIV/vLvvzO7O7hzateRPQjPfn2zv7Oy788z5zjvrlRUlJSUlJSUlJSUlJSUlJSUlJSUlJSUlJSUlJSUlJSUlJSUlJSUlJSUlJSUlJSUlJSWll0wHZ985e+36wY0zO9vLzHbU6nQ6rfIyszyUNsGOwos2Y2HtnD1G9ObNew6wWwdndpaS8RqyLIRefAEVHTssVHzRZiyqg2Nc3fwNNLFFch6iVCplvwygHDvQ6EWbsaAEnPw29s61W2fOHa5LVKCWKDknn9e9a9dvJIalQC1Pt2JxIjp9kCxzBWppup6E07FbCXNXoJalZJyuJ81egVqSriVvT+duJ8hfgVqOzs6HQwnGp3PpdxM8QIFahrYPw+n47L0Ej1CglqFDcLq9m06fT/AIBWpxbd9MxOmMe8/tWTqdvpNgNaVALayde4fglHZ1fI5TyQy0MrR8UOQv8+/kXoj3PGE6D9S8hOz1OLnLTeLfFTevw7Sn94FTevecKNN+bzxsTbKBck3DA9WouX9Yk9k0dlPUeuH3KYy6nU4211kb9xrcu0Y16oHZVqdbrLaZRADKKAXpapvRJI1Rt5ULEhAHbiGS+zDTk+4F5AvFbqeVDSlid7uaGXYm2VaLa2lEO28mwfQmtKG7MwwqzZ2f56sTCzmyNFouJwzKLCHnd9QX22S6CawUVQ7t0RZk6eTpOuGRNqmyFXGM6AdCOlTvRgoHQKWMIB0K14f8ej1sO+riC71Q7hrkbncYylj9TNOzlxKiUze6dVJK2NJB1NKwFuI044AyiyXN0lN84a5vDL3PUGxUz02g5YLCGw6QHcrIsKxSMYoK8o3IQKlaaGAsRhOFQVUHyIhcX6eMYnK3Sz22xvRblWguIC0A1cjWI0kcS3NiVOcW4ZSe3WUybGQjRcoBVUYOSGOaFxll5jS3gKre770m77VtVIt0PTxQbuNBQ+pRclAjjbFeBiqV0m2Ui/ZaRYOLiQJldi2NTWJYWldQJGeSYDp2DyZ57/qc0jNmxTtCmlc80J4D2QGolYkWLaCQ+i5Iu+SVbtdDT/K0bPKOWsAStB5+op9QR4OgLDEojUpG2dHAxafbtPF+1xfJ3StqK7wdauYIJsOOFAHyur78FOkkCTZE8y2tcceqQ3Dapjil09EVbw/bqFvaNLvWzVAqZu0AFO7aaiJQXURVZPyb2zO4eQ4z68NObYA0Hb9nCHZhTD9xPOxkvR5TG/iND0DZEyodNViWcHWyS53A+DHBUF6nc89017JTyyJmUGOPWbOIvZVaaxi+Z4ytaE81kqRemgy7me4wV0oRuqjE6WhuJOME94Q4pe+EM2wY8DRNaxWYitGl11FuhdJtwaTJnLq5IHJ1BJVPt1KdQpuMBma5VzPgXQ1DOvFyEm7hArBq3vvL1lEN3Nqmm8JeOZR7ezOngRl2JTBjDeGm0cz0Bbk4TQ5jamYaXpJ8Y31KLM0yN4S3CU+DxJzOQr/3XohT+njYghKYjWq8CV1owQtvg8b8F6m6VVIj9pbrBrxUJ0LeGQtT0mbpqTeAGu7PXWSgsI3N2Iskd6kBZlhb/uMIhIz4HjyUavWoDT0dF180nuOAwvPBbz88/7uPPv79Hw4OzjjawXJ+Oji4dev6tbPv3Lzm3rId4ZROh3LE3T/qcl80BKqRcorfaPJfJEuPYBMLRlnOeNbBAIQjnad2TYPuqUwZyQdlbrk9n1XlXRPJbCHajDx0nsZA4oFpQ9XTttjBqAxdojEIX7nhUvrgw08++uOnf/rsz6/fB70tyh2a0w7DaRbyIVXAghy/QoZdSDX3ffgxSXlYkdbzwS8pfv3M4ZY3t/7nYdT35gQSUHm3CI3p3KVnWNCNeB0ANCgdCVZXgQEG4j2lASUYblLbN08f+/izLz7//PP7X7zu60uZRdvno5zSM9qHtAkW2IKeOQwKrLU6whdBLeoXe4uXDveKuiVdJoJ60CrrdPZcUGUgP5mbX1j9OjWkQuuVLRFXVposDF/4dUPd+dnTn9y//3pUMlDbdxhO6RntQwpP1qIKg2q7dceocKqV6XYeXvGbuBsUVNCubKSjRbdfCagC1B6pb4snPOBCo8/DLEmTtckyVOepoB/AxUL3NKc/vL/xGqMLkidss5xCrgkoVKMu8gxFvOcwwvDqVQNXKvwieTCcN2P1k1IODKHGQVHOBSWsaUJhvi3/R42dt1HqSd0y4Lo26KsffMbh9IbUIJZTevZ+cDk/MOhlKmNCGBT0k3aJTUfVT1L9rJbIIg08HFKjQQ2qqSwfFNQmG+b/IyTu1ojWkaSPwBgNuu/7lMV0GFCUDynvrv7E9Tu6H+W+nW4zA0x7AAMPwQ04kcivslKCjmL+ogc6WlLRjwCUO1nEcxBoupZsKgFdiW6L+p2GoUemw29wGtRrD6QGHeeAukjZ64IS1/4oKIFndhRqQ1W6ebFyx54EoKA7XT4o3Oc3XVBuc9EN6fSmZbk2i9bpfRYUr0U9lBq0XFB4KWVEk8FSxvfh/TpA5ZKDEk03OC2Kw2njK6lBPFCUVzYhqPC61jcU+uiK96sCxQf1jdQgHijKK5sUVHTTCbQeHpSWBCp/pKBWlgiK7fq+fuGg2k2D8aqCP5aa4icHZfYbrKpLA1Xm5F5wNwYSgiq0yzy1NxlQD3ig3pI9gQcqfT7wISUFxVsgVyPrkISg+uslZgsIZKSWAKpczNrc3MG9lwRUSufm40pPvXyg+uwaHe8oBqWYCFS/ZSBbFASwMKh8N4U4u7KekoGSKwTq4XJA3VkAFMzwdCqOYKVciSyMkoBqMNEOywRVrslzPzJQ3yQHxeG0GCi8ZqKcoJno2ioBqLK/YW8YdkTGwqDMASlfnZO7nhyUk41ENKiveKCEuxyueL6+xUDlsVc/aEDYsUy9Z3xQZg1v+Vqo0iwxWhgU2bfVUKo5ZXKv6IlB1aWiQb2VGBS3RVGxsslB4V3BwDVWAI/kgEoQHxTeWbXrrc1yOx9Vf7DgrK8MwRGGne3122z2k+TT8wJ30ueLSp8c1A6vRS0GqkB7yiP+WFB8ULB8Dm8QBFp4wQsTVN3gb+Avc8HL6u2XAZSJN4rIi8FOrDGgq1NsUP1KtNektSgoYqfAjqMF9WViUOd4oHYXAkU8s2SrDuYW4Q3W2KAKWiq6NUppUVDlgcxNf8SgOD6kjW9ld3BBpRcD1Ub+hAl7YlLhmMrYoEbShIuCaqR0yR790YK6wAMlnZ7fPgJQBA54Zhuazmw8xgaFm6YoImlRUJuWcDq4cihQ9fjfhEoO6v15oFyvgHgbmg+qh/wua8gpptightJ900VBVaUbtxQovBCUxputudAtyVGWaO4cH5Ic1N15oJqy+AYBKDPlhfCYAzo+lighKFEJLQqqJzWDAiVPCBrPZxkWD5TUe35xzqwP7BW3e8HRUL8dQUxXNPD1JWlRPXmLCrznODKHEwkSyUs8QrB6yNmLl4b1vcuLQqJPCeCAgY7gdhiNNAYUbPTaU5O/jxgb1HqMFoUjQ0eHAAUrcWFcGo6ZwDMiCL6XndEj86dBrOh20DcsKCmnaNg5BkXH9UF10jWBlRCuZzAXoTqmUAHHx0aieeODyoiLf4X46UktroonBmJQ7vArDPijw68gelfeXnDcdPztySioDRzUJz5GfJ7D6WIoxRRO1ghGKQBRZ3MnMbNFekXlKzaoTWmQa5HaN4apNr93EoKC5bQwaLJPbaIVwNckPXQPTVq4Nmf1bRjUxtfA6dKjR4+fPN+//PTppUuXThFduvT08uX9O/M44cqaQlneImEk6r0h4FuvMP5YnGNszwQObxYsT3DEDO5W2/wnuRKCwqH/otk/jiUl4QPYlWVLQvvMJmw0VqRBZZTeDoHaeANzWnV0gtWzZ8+++3keJ8dKqCzWlH0j4uLhNXiYr+pGyOvnKTYochAjy23NXXychVCEwdLmHKaQ+PqAhT3lrn56sM3hjY8NvEeLWuIlLTmZYwzjrXq/3OBwurLK18mTJ/+yO5fTSrkCe0IG2io26DIvj1PuBU685QopHhA7r4rvlMWHjlCpGkVlFiZwyV/h4XKyBiOmnMSgsI1anb2nP4QNRWPgvS85SIy0jvCLBB1MClkd+QcQsC5QoDYeAKenIk4OqGd/3YuAYg9aO2an8KFHG2n1Um2SA201bbw7iviDbIVsneqIaQ/xQcGI7j64XsqS5zqaZEsVS8OZexNOb+cKpaY1PyV8AUKyHwWTBOcefVrLUdoaaHhDkRqVMDn33L4xKGXp1DnvOxO46jhdNbIrpVCGWfZdL1CcHgKnyydEnFxQfwuDoqPOKTWmpH24O6Hk6wp4C9Q9QMmvYt5hds5kKcEOb887v+w/lzyctNZgnlLwDkNTKWH8kYDqk3v0aO74oRa9/utaXs0LJw6+M2FOUJAklIZTlwMf0sYDaLZPvxdyckB9//e9GJycsbqDPDsjskQTHXzAiHvUL0nMxFjy3QQjVAD+0f1AMMTIYiZ6ljjWQUelUBXcrAtMCeJDRho/BIOzBvB9SCQ+dl/Y72FQP+xRg9Su5JOKjZaONCNshm5o7OcYfOVwX8Q5KZooCqk6RTbv7Q0b6eHRr7DlWBiKV5oLyj00HLmH5G4gJoLeLJYQstnUVCCP2W06NZoxl7dYI64J4jfaF/d7GNQ/9uJxclTOZJt1N8DOAjk/pJrZgvgIZxVPBDiHNqrwNXnhUbWS+9H7uj+y5Yu1iuY/1nu4VS91o2O2OcoObDol6frcn0RnR8xedmAwuaP6tMPpKfKFzlbFQOHkKOTjyvcmpYodzZAzjOMVr8dJ1p5gjKJm5zPht6p8tRvVYmZ9DdTNjBrSmShMBDheC7d1Ovd3hB5MeMCQrgH9zeJ4uEZpXKw2uFWkXBhlgpQtt7DLHfdpktPb7j1dKvPOeqbXEDmDzHKhl8mEjOlEXjHf3xx5pURScJbKb20EnJ7LOTmgvvMb1Oz4fE7JxI1CV/Lkrnjxxob5RNrvuaCe/dMHdWfZnOjdQyVWzoo3LqdVena+nP+pQgl70vT4/uRXTM6KFzhd/XEup9WTV37CoGZ3ls6JbKUJz38q4aCjOJxWvUnf7PzyOWHPRIzPRbyygu2nWJwcULuY01L/9xcWrF7inG1/pXXqURxOq3jSdyScsPf81/+ft45Wv6zG4/Tsn//aTc/eOwpO+RQTH6vEaP/xI3f7aT6on/Z2j4YT2eFNEOzxiurqqV+e7j9evXLlioTXye9204n+v0MCSb92pBTV1VP/vvz8yaMTJ67wGtj3P+xxtgmXIjivb5cSfMtQacW86vLaf/L4x0dkQx4wnbjyn730EXEiAXkxvhCmxJED7NQvly7vP3eRnfjvz3vnk/ynqCQy8VlwNZVYTCYQu3vx9pFMI1zliyNHam6upKSkpKSkpKSkpKSkpKSkpKSkpKSkpKT0/6H/AeCXChMxZHSXAAAAAElFTkSuQmCC;" parent="1" vertex="1">
          <mxGeometry x="728.74" y="430" width="142.52" height="40" as="geometry" />
        </mxCell>
        <mxCell id="t1x7EK1OemjOOLSHdHvf-9" value="&lt;font color=&quot;#000000&quot;&gt;AWS Cloud - Observability Hub AWS Account&lt;/font&gt;" style="sketch=0;outlineConnect=0;gradientColor=none;html=1;whiteSpace=wrap;fontSize=12;fontStyle=0;shape=mxgraph.aws4.group;grIcon=mxgraph.aws4.group_aws_cloud;strokeColor=#858B94;fillColor=none;verticalAlign=top;align=left;spacingLeft=30;fontColor=#858B94;dashed=0;" parent="1" vertex="1">
          <mxGeometry x="310" y="40" width="320" height="500" as="geometry" />
        </mxCell>
        <mxCell id="t1x7EK1OemjOOLSHdHvf-10" value="Region - ap-southeast-2" style="points=[[0,0],[0.25,0],[0.5,0],[0.75,0],[1,0],[1,0.25],[1,0.5],[1,0.75],[1,1],[0.75,1],[0.5,1],[0.25,1],[0,1],[0,0.75],[0,0.5],[0,0.25]];outlineConnect=0;gradientColor=none;html=1;whiteSpace=wrap;fontSize=12;fontStyle=0;shape=mxgraph.aws4.group;grIcon=mxgraph.aws4.group_region;strokeColor=#147EBA;fillColor=none;verticalAlign=top;align=left;spacingLeft=30;fontColor=#147EBA;dashed=0;" parent="1" vertex="1">
          <mxGeometry x="320" y="70" width="300" height="460" as="geometry" />
        </mxCell>
        <mxCell id="t1x7EK1OemjOOLSHdHvf-11" value="&lt;font color=&quot;#666666&quot;&gt;Observability Hub VPC Network&lt;br&gt;(Optus Managed)&lt;/font&gt;" style="points=[[0,0],[0.25,0],[0.5,0],[0.75,0],[1,0],[1,0.25],[1,0.5],[1,0.75],[1,1],[0.75,1],[0.5,1],[0.25,1],[0,1],[0,0.75],[0,0.5],[0,0.25]];outlineConnect=0;gradientColor=none;html=1;whiteSpace=wrap;fontSize=12;fontStyle=0;shape=mxgraph.aws4.group;grIcon=mxgraph.aws4.group_vpc;strokeColor=#248814;fillColor=none;verticalAlign=top;align=left;spacingLeft=30;fontColor=#AAB7B8;dashed=0;" parent="1" vertex="1">
          <mxGeometry x="330" y="100" width="280" height="420" as="geometry" />
        </mxCell>
        <mxCell id="t1x7EK1OemjOOLSHdHvf-14" style="edgeStyle=orthogonalEdgeStyle;rounded=0;orthogonalLoop=1;jettySize=auto;html=1;strokeColor=#006600;" parent="1" source="t1x7EK1OemjOOLSHdHvf-12" target="t1x7EK1OemjOOLSHdHvf-1" edge="1">
          <mxGeometry relative="1" as="geometry" />
        </mxCell>
        <mxCell id="t1x7EK1OemjOOLSHdHvf-16" value="&lt;span style=&quot;text-wrap: wrap;&quot;&gt;PrivateLink traffic&lt;/span&gt;&lt;br style=&quot;text-wrap: wrap;&quot;&gt;&lt;span style=&quot;text-wrap: wrap;&quot;&gt;transits AWS&lt;br&gt;to Elastic VPC&lt;/span&gt;" style="edgeLabel;html=1;align=center;verticalAlign=middle;resizable=0;points=[];fontSize=9;" parent="t1x7EK1OemjOOLSHdHvf-14" vertex="1" connectable="0">
          <mxGeometry x="-0.1641" y="-2" relative="1" as="geometry">
            <mxPoint x="-8" y="-1" as="offset" />
          </mxGeometry>
        </mxCell>
        <mxCell id="t1x7EK1OemjOOLSHdHvf-15" style="edgeStyle=orthogonalEdgeStyle;rounded=0;orthogonalLoop=1;jettySize=auto;html=1;strokeColor=#4C0099;" parent="1" source="t1x7EK1OemjOOLSHdHvf-13" target="t1x7EK1OemjOOLSHdHvf-5" edge="1">
          <mxGeometry relative="1" as="geometry" />
        </mxCell>
        <mxCell id="t1x7EK1OemjOOLSHdHvf-17" value="&lt;span style=&quot;color: rgba(0, 0, 0, 0); font-family: monospace; font-size: 0px; text-align: start; background-color: rgb(251, 251, 251);&quot;&gt;%3CmxGraphModel%3E%3Croot%3E%3CmxCell%20id%3D%220%22%2F%3E%3CmxCell%20id%3D%221%22%20parent%3D%220%22%2F%3E%3CmxCell%20id%3D%222%22%20value%3D%22%26lt%3Bfont%20style%3D%26quot%3Bfont-size%3A%2010px%3B%26quot%3B%26gt%3B%26lt%3Bspan%20style%3D%26quot%3Btext-wrap%3A%20wrap%3B%26quot%3B%26gt%3BPrivateLink%20Traffic%26lt%3B%2Fspan%26gt%3B%26lt%3Bbr%20style%3D%26quot%3Btext-wrap%3A%20wrap%3B%26quot%3B%26gt%3B%26lt%3Bspan%20style%3D%26quot%3Btext-wrap%3A%20wrap%3B%26quot%3B%26gt%3BTransits%20AWS%20Network%26lt%3Bbr%26gt%3Bto%20Elastic%20Network%26lt%3B%2Fspan%26gt%3B%26lt%3B%2Ffont%26gt%3B%22%20style%3D%22edgeLabel%3Bhtml%3D1%3Balign%3Dcenter%3BverticalAlign%3Dmiddle%3Bresizable%3D0%3Bpoints%3D%5B%5D%3B%22%20vertex%3D%221%22%20connectable%3D%220%22%20parent%3D%221%22%3E%3CmxGeometry%20x%3D%22517%22%20y%3D%22291.29999999999995%22%20as%3D%22geometry%22%2F%3E%3C%2FmxCell%3E%3C%2Froot%3E%3C%2FmxGraphModel%3E&lt;/span&gt;" style="edgeLabel;html=1;align=center;verticalAlign=middle;resizable=0;points=[];" parent="t1x7EK1OemjOOLSHdHvf-15" vertex="1" connectable="0">
          <mxGeometry x="-0.1245" relative="1" as="geometry">
            <mxPoint as="offset" />
          </mxGeometry>
        </mxCell>
        <mxCell id="t1x7EK1OemjOOLSHdHvf-18" value="&lt;span style=&quot;font-size: 9px; text-wrap: wrap;&quot;&gt;PrivateLink traffic&lt;/span&gt;&lt;br style=&quot;font-size: 9px; text-wrap: wrap;&quot;&gt;&lt;span style=&quot;font-size: 9px; text-wrap: wrap;&quot;&gt;transits AWS&lt;br style=&quot;font-size: 9px;&quot;&gt;to Dynatrace VPC&lt;/span&gt;" style="edgeLabel;html=1;align=center;verticalAlign=middle;resizable=0;points=[];fontSize=9;" parent="t1x7EK1OemjOOLSHdHvf-15" vertex="1" connectable="0">
          <mxGeometry x="-0.1345" y="-3" relative="1" as="geometry">
            <mxPoint x="-7" as="offset" />
          </mxGeometry>
        </mxCell>
        <mxCell id="t1x7EK1OemjOOLSHdHvf-19" value="Private subnet" style="points=[[0,0],[0.25,0],[0.5,0],[0.75,0],[1,0],[1,0.25],[1,0.5],[1,0.75],[1,1],[0.75,1],[0.5,1],[0.25,1],[0,1],[0,0.75],[0,0.5],[0,0.25]];outlineConnect=0;gradientColor=none;html=1;whiteSpace=wrap;fontSize=12;fontStyle=0;shape=mxgraph.aws4.group;grIcon=mxgraph.aws4.group_security_group;grStroke=0;strokeColor=#147EBA;fillColor=#E6F2F8;verticalAlign=top;align=left;spacingLeft=30;fontColor=#147EBA;dashed=0;perimeterSpacing=0;strokeWidth=1;" parent="1" vertex="1">
          <mxGeometry x="340" y="140" width="240" height="370" as="geometry" />
        </mxCell>
        <mxCell id="t1x7EK1OemjOOLSHdHvf-13" value="&lt;font style=&quot;font-size: 9px;&quot;&gt;PrivateLink&lt;br style=&quot;font-size: 9px;&quot;&gt;Endpoint&lt;/font&gt;" style="sketch=0;outlineConnect=0;fontColor=#232F3E;gradientColor=none;fillColor=#8C4FFF;strokeColor=none;dashed=0;verticalLabelPosition=bottom;verticalAlign=top;align=center;html=1;fontSize=9;fontStyle=0;aspect=fixed;pointerEvents=1;shape=mxgraph.aws4.endpoints;" parent="1" vertex="1">
          <mxGeometry x="560" y="425" width="50" height="50" as="geometry" />
        </mxCell>
        <mxCell id="t1x7EK1OemjOOLSHdHvf-28" style="edgeStyle=orthogonalEdgeStyle;rounded=0;orthogonalLoop=1;jettySize=auto;html=1;strokeColor=#4C0099;" parent="1" source="t1x7EK1OemjOOLSHdHvf-21" target="t1x7EK1OemjOOLSHdHvf-13" edge="1">
          <mxGeometry relative="1" as="geometry">
            <Array as="points">
              <mxPoint x="540" y="380" />
              <mxPoint x="540" y="450" />
            </Array>
          </mxGeometry>
        </mxCell>
        <mxCell id="t1x7EK1OemjOOLSHdHvf-21" value="EC2" style="points=[[0,0],[0.25,0],[0.5,0],[0.75,0],[1,0],[1,0.25],[1,0.5],[1,0.75],[1,1],[0.75,1],[0.5,1],[0.25,1],[0,1],[0,0.75],[0,0.5],[0,0.25]];outlineConnect=0;gradientColor=none;html=1;whiteSpace=wrap;fontSize=12;fontStyle=0;container=1;pointerEvents=0;collapsible=0;recursiveResize=0;shape=mxgraph.aws4.group;grIcon=mxgraph.aws4.group_ec2_instance_contents;strokeColor=#D86613;fillColor=default;verticalAlign=top;align=left;spacingLeft=30;fontColor=#D86613;dashed=0;" parent="1" vertex="1">
          <mxGeometry x="370" y="320" width="160" height="80" as="geometry" />
        </mxCell>
        <mxCell id="t1x7EK1OemjOOLSHdHvf-30" value="" style="shape=image;verticalLabelPosition=bottom;labelBackgroundColor=default;verticalAlign=top;aspect=fixed;imageAspect=0;image=data:image/png,iVBORw0KGgoAAAANSUhEUgAAAgAAAAIACAYAAAD0eNT6AADPAElEQVR4AezBAQEAAATAMPqHviC2zQcAAAAAAAAAAAAAAAAAAAAAAAAAAAAAAAAAAAAAAAAAAAAAAAAAAAAAAABbHftmmh1JCgNh9XIwX6Lu4/P4lDM89/cc/Y3Dmn1rfsSDBCkkIEHKrKxPpzwXpw5mhvpEaYSMdaI0bNPX4rIP7o+6/QEDN2222ThsP/WSl37Z1HzW8dsOmKbb9ApmsyFMjkdjrry7X32tlnurroUBv31udgtfv5Zvbe94L3Qd+q1f92kb7xgXF264uHDQdd2lA99YHljv+fn5s/otY4xtGtXHEtwtp/4u44C+BHPbT3TdzjE9eE3jtK+G9ZbgU/UM1vrInPJnzEHhrmvWE4W9Hb+P/XWeVUefMey2vY/6mnvfuK8kqto/BTcJuLgJwA3khvvbYcWhB2h3P4fRFvTNRztoT6/oOXEwl31vY0u/jc3/9Cs5bM/BGHie4NAY3WeM7eZ8tECapetGG5t15HO127iB17ndGx6v/RN/tWd+ta9JUUHxq+6P2ROQzhdJ1LS9+0f3P/0XNwG4+O/BB85w/ZueTHv79OC9P6FY1wedyx7Y+qFvGfM1ToCOubNPGPe3uXRC4Fe75vdTrMu2nk443GYfGkerS3/afFFv87DdJ+Zp9lrS8YENczadyfkpiezAs4wTjO2Z2/dTR1+fP7j/5+ImABf/ErTN6TbLGn6a0IFWA7n50OtvCnwgzmkL2UHGr4pPHdm4xoeBPwPtt2vbc5KCLTgdzBwgGcOrbPpe3lCEn9mfB7APeQWAbNOYkIMbvPk2YTtt/HJtKFPe82Wu0BHvZPCSjpOMd2V6oqUgmX2sO4ALbu4xrnV/BE/eR5SeX+woeAan7ymX3me+H4B99b22J31/bP8XTG+/uAnAxV+N9bdS14Fll6dpHzb5RJJBv0FBLANu9gHL5bX7HcDdv/vS+kDCgbb52uDxEIyS32N4PF6+2GcHP/Nazz5gh3r6YPtNjnpLUjwWkD7XOfY4NU++Nh+2zdXsuLTMtu6uO8jn3LX1Rc7cgm0c1Gvqf3D/T5Tjb3xuAnATgIu/AftHW72ewYIAzjXgCSMPIgI+ej7AaH88Hl8o24GV9XPozTy+4fWa9oPD88ZP/e36lWfePbzhSB348I86PKcO96njHyX4/uDmWsFWNl1PO+jMdK4ZgF10PVZ0+riZH/vkOYEbHfuOHDI5Z4zHeui0JMNzix36jLbm2HLJHOfceT7yPhSH1mV87XEwh8UWvgK31cCve8l70vWhzPkq+7+/6XPZfsJyouB/MlzcBODi98FfX08P+D05UFAXyhNTCSj9AP/4kCZA+JCnTjvI4GK9rHNog3M4okNf6mefbSVXBn/qh9v27IPt2G+3Pz09f9V4LNOuI4B9bM9+Uu/zW6BgK8ABdxm3xiy7zLP9RSaDdptb3VvwlTkcJ1lef3gqnLS4z9fAc5tvMbyfzO3+lhwAeC134Dd77cPG6GtvIed+P/AHcROA+7FelvqCfvwhUv8im6d75P102QM2B8xrCSz3CDkFo5ANmRpsHLzd78ABaHN76pmTNxYN5kLPIHh7TGuAF8zX5XvwsO5uz+1lTJr7Vqd0u3kLj/xy0Ab7GnksfaxRynfguc02j9vc9tVcmmOwvAF6eb2XtVezTl9/g4aNg0wWsvRPNqD8Y0Kl6z7Tsn5xE4CL/f/aNeC7dEDPrB84QFP6iUp1gSfVyVfTX6Ov6lmeciY5wO8I2NI1b5eNcrGn4K727q9lPX777qDaeJxANLkNLfno153bfWWNS6Dt8wv2ZKf3+d5i3liPmS5/sCWhHqPb4Wpj63hRXX3awwR+6723/52AqO4EAYwfQNo/YO43AzcBuFj+j0tZMur4sCd5+uv79jujf0/8/qns6SvlzHqA6nBLjn74GdazvNssd65PiT+2Tz+y0R7Xlrds12s+WSfnzbJtbPQfHfSQl1ydO3O2Me/yfT3aeqVMwhwNZYwdHlO5b37P2vX7el/jj8ZFQnD0SQx8n/keT2hencQ74fT+5+2BEgFKfyDphxP/I2P/C+R9G/ADJgAXEeQFP8W3L279G5+f6hMZvLOMV/YcNnqS+Ym9M+CwK2nCcCCZL5N/EEEQIATuBxcYEMYawAC7LMYAi/0H+emb193HvPvo7mm7S8w6l1d3V1dXVdeZ7qpz7rk9l40kvNR38Pj4+LoDJ6DtoArN7dVY2oY3bffNgjo2017Nj36CsWnImtnqdo9T3xY8Z9rIxEYD+j8BOmYByHzu+xchv3p++3ZYzg4vuv7O36Tb2Bjsyp77YJ5wef2PnzA4+M/rjfWZHOvDrY7P8flPfZTpAn9Xvzwgxb8VJwFYvcXNoibzd53NiPboLu10Or0GTwHl/+mr/kf6hxstZRDe7k87oC8093lD3AG8K1tA67De58ZQpwSmjWSYttJJe5cfvabN+PqaAl8LYFrz0qY0rBt4vOG+XV5h29fQVvBc48NeH5TB7rWAZjy3Flh/lNbvpNRPuEj6qXfyMPi6T/tN7znpG/+aaHQK58YLzC/8VwTHE4AD8/O8oc1Pd5t/BxeaAv4gg1eg98bCojc9tGwabCqpp8ymkhJAD0bBoAGN0nUQHSkdeEyDd6bHdtzff3tDeyxzn27dzBua4fH7fci0r8Z8MzkOQvhj3765LidRezKsc5/HCaRhu4xV4kkQh0bdQH+wqxegx3R0e26u227WqNflivb807TL+icJmL/XwrsG818TBaM90PVBwBffy/gcn+MzfIt/9Y9wvCh02A31CvR661dvVzvL333ky908+D7+TUrTwkf98+dLm4CSduopaQfQATTGBR4HL32t4+Hh2xX8XZovsL7b29+ubJt1whdaSsugbjCu5+n5tT6ALvuqZY76gGUxR1+TT59urzwH/Gn99o/1m5/SWM2NtvVQp7Q/R9e450zdtkHDpvaRYR2jfl9zxgD6bDM2rv4GbQd0rxnWIiX1xqtX1CsJEEwnwXjuXYfZy4O0ATT/qmlyuuGLPGjoeAJwYPcfnwwXABh/5zZ/gchBHhoL2/DdRIFNpDagChK0FWz+utH9/vbm5tf/AYJOStqMM+/Hjzf0X6UeWur0U6cPGrJbXsuB53y+fxtbWmfmhT2Mo8R2bGUs49If+elDhyFfTG31HJHpPs+deXmsdboNDT3MyTYhG7Q/G+hsWvMhBzspQ4cnstvHHue/pfBTt8yZDwByAnjsA3yDLstCH8Bf1C0bOmifQfN8PTcD+lNyc/F7r1PgJMKJf9pdB353xiXol4nZt3ykd+979G0cX3wkAkcC8LL+4Y4eaQEfqevf8Ot0OuA7etoEfr7368eTfHfPXUfdtVPX3QwbNhsLJbTwjAJXb/J3dw/XvZGlTR3AC9/pdHcdvsjORhsaJTzQGtCpox+7HLTgAfQVbamfOnrMjz5sgMeyCXa0Z3YhE7oTk7YlvPjeOj2X9r+DlP1qu+wD8/j6N0Z+b734rtuWRdv+wafMrfnazg8fzsMAi22WMZs7Y+EFrQebWpZLZPjajMY5SU7Za5OkgiQmdNfhZc07+feTvtU7NexBPt+ApwKjswlmX3UC3xi5nL1jdeCHJAAHdn6zXzwcxzs8G9wHdsx+CjRrk8E7s2dxs/gJ/mwKqzvk0AGbEu1scmxWbLQJ5pQOZJQEfTbK5k275cJLH23qDWgtp22wnchHHmWAPGTRBsj6+vXndw6crce2NA8ldYAt0COHsnVbFnNhHowLsLV1WB9tX4MZrYO2bUIe9QQm5gT6ujtYw4sM120vQZK6r1P68M3oOo0SSfun/54o0YNsy2j7bD/zd8CfXSP7qscE0JyYO1FivbP+eSIQHn8dxx7S6BsObkJIAIAPEwv8lFMnD+7850cnA+D4HJ8f8l0/dYM+JQMpeUu/jiCtM8b9kzzu8FdvtRPkubt3kM/CzqJm0bM5+O7Gd04dRL7L/3Mzu4CN/f37n65Tfvnyy7sgdUA/dErGeLzHWi6bMLTz+Slw9ZjQwxfZQexFFmNShs7mDS3zDR920W79jElA9TxWwC77AZuoY6d9i17GQrcN9rvnzhzCA631QQ8m1wgfDX3fbfzEWPRwTQDzm/kAe5EDekzA3FZ+COizjaB1mxc56BslXvTZH/CM/qbQbR3oX62lTrpCIyGA5gTcycPoqd8f7J0JiN319cWH/c8/q4UwtBSKCoSSCqEphDSIA8ZQqZUApoALlEIDCGVHKKssIvtWCxRkVQrKIqAgLXugIItYsBQBpVRACFGCzeLMJPHXOfP88O4cv7/3TDLz1nPg8n2TlsW3/O793nvuOQoVCLVz2Ir2Kqte20aBdTbdI8JHoj2WzDEjmokOQKJZBHhx0Ke+R9J3RTX9u85R+9L1Zq9wIpTmgPxdW4r1pkBSJ8HXm/tbb/3tB++//88fX7ny319fvXr9wo0b6y9tbGy+rrh16/bFrfjw66+//s838WUXBMFUwO9Qv0n9Nm/evPX2+vrmK/rN6rd7+fIXZz/55NNTFO21aOL3T1GgZO9jDoWeJ1wqCB8f1LFjK6qcuE73WmgE3dLem388B1IATC76vfdHWui27UZXbJd2dKvfmfqVBayoZDyff3srkYcAif6zzy7/4tq16y/ooaEHiB4mXRAECwcV6/qN67eu37x++3oGUBRQJChq58CjkhBrQdDSJHChKvdbaLhhFodFnfWZ2kz8IQtOrgCI/76r9LWVr1aa2vu0+PuMX7zVX1n7+v8pwevHxtzeW3fOCme+qZagfuC6CeiHv7l567Uk+iAIBHUPNjZuvqNngzoGcCc460ZOa5sHjlFdWfRtAhtltvwhGptP/rePVNsWxSkAdrsAiF5/6wtm+/y2zmcmHO6g50S/+gPhhs+PqK7wFNawsatPfdPmX/s/2vn6MetHraq/67orXRAE3xHpFOjZoUtD5Tb0bclQEEAsrCvF3hFwnoBOos9u3MOfw9Z9jZLg3hQA2evv89xvW+uOdlvzuX5N/FTRmr8pqdfKu2+F7e23L35fcz/N6jOb3y0EQXgG6hqKE6RnDIRgugQt7Qt4A1xceL7R0WyNCKqGQHUt1Fl5UyT6MX4qK3c9EkgBkDn/eNIJMZz1E27D6VafLVZ/Ze9XBj/BD05zurrSpB9kbvlBEEwKIhrqoqFnj8aLvr7oIltVqwCuQK9PgWkKVKtydz11vpVxsxjdpghIAXDnN/5xFaat9jWS/3Ddb9SNn5OWma/icPuve+laARKBR0k/N/1pIghSDKgzUNcR4Q1UJUWXveZ5Vw3F4Dq1OAK94wG2BfrHASkCUgDcefK3W3/LzapJ8CP81l+NPjz5V/a+TletYwda8zit9yTpzyKCIGMCrQ9rRFAFl1xCuXonVKJzJQy6/DCjAV77dlXX1bn/OD8BzgQvEo0vjStScbYcsIrnvqKX0U9QEbviniveKUTmG7T4gyAIZht6VmlEoEKADaSq9Fg3ClQEuPQwHYFxWwNwAzy8extzoRQAY8V8xklRcvpqSr35131XT/6ctL9I+C79icqX9nNz2w+CYJ67AnAFGAtUTZJqCoaeySjHQu+s0nmtRMFRRkNZE/RIAdD8Ythr5kw+6y/WvGWNz+b8hLvoufQuqzZJ/IuGIEghoGeaxgN6zkFkriMBAvJgLQQ4fYuqnt4B0L/1yQf7GmEKgCUJu+X737xuefObbnVl+e9U8vt2q//YDuEeou7S6savKjmJPwiCZSkEnCdAMVCtyBWVJ+A6Aq1CgOd0L5cr6oEpAExJqpH0V1zC14V8dPbd+lHGgvVaJHpphQ3a/ct44w+CIIUAMsTu5Ek3QJen6j/QNxYoYdbDeoYT9TkfgiCxbPv9vbd93/evmtS1snSyX93jV/gOfyX67XQTe2yf9veXeXc/CIJwBPQsxB3S/QfED9DlaehGOHjecrrZEJwAxgAKiNvO61o+V8EUALzubf1XYp8KgP4b/4vlxk+L6s/byn3Vdrdq8g8sPx9jh//DrguCIEghIC0BjUJly8ymQOVJMRJgdZDRAOuCLq2uqFtabjfMOcrULQXAgrH8+9b8nOXPjN+FKKg0fbUPZr8b9FQ3Pq3EaPYl4YwuCIIg2AFJmOsZOVAXPKXn5g5ugE4VADxvW7wALwIga+vfrQgYKylMpABYOFOf9szfjXzqykkVqHB2PyQ/dltru19fZlW2avePnvMHQRDEiEjPSj0zV1cf3adCoGVLXCXTuZC5kiBdAVcPLJtdFAOE54cUAAuy4sdpe/6cxM4CQOF7/QRfQBK/2vwI+ZD8Ue+LiE8QBMGdjQX6tgW4ZCn5a+TKZWxl5WdGDmyvCrpmgOkGkCPMVCgFwDzFWBvfKuWrs345BmHJ36x66z4/wVqf5lj60qqS7e4KQRAEgbYF1A1Q6JnKRcvXBpFZVxHAaKBdAPRbDFdDoRL8PQ8IavL3WY5/AWrb3017qke/S/jS6q8EP1isClWuu3frD4IgSDeA1ekqJkRBgL+AKwk6j0tnVRAkH7S8YPpHyOkAzMPNv9kBIOn7jr+7TrlVL+5VajmR/F2+d29m/UEQBOEGaGVw6wK2f3X1uX2MWGsHVs/majmsqIJBet2SEWblm5Z/DydgljsBwSiyXyV7uGUvXwK37PXkz62/3vyR8EXQZ31985UuCIIg2BNsOQ7+8Y03/vpDEQSRT8dXAL0AhUSEeHark1tXuPXaxd2cDE6+mB+tgHQAeq17rbWzXe1VWd+WbS/tftZOMK2g2mSnX1Wo2lO3b9/+tAuCIAgmMhKAF0AhgHAQ44A+GWEue+4muLKyfEXAQor8+IfmxI++W39V9qvGPS7qw16/vnhqS0225R8EQZCRgMSDdAGrnQC3V69FQF3lVjDu7ekEtHIJrxdGOnj+k79Fe71jRVGIfkb6sx1/vjQUAcz7a9tfLSgxVLsgCIJgelsC1gmomwJNTkCDIOjKgT2bAfz7tAmBKQB8TaPJ3LQiAFUoxCJ83l+JfgoqSSV9Mf3V8teXTTOorVnUa10QBEEwVayvr/9JHCyez9oQUBFQuwEuH0wwCnBiOEEO8Y7yoogFzb3E7wgVp6aVr15TAHAqmBNBJtFZ5v224jcrOv5BEASBnsnvvfePn2hLQGMBabHo4sYFThe6ai/sl78q/15PVw0cPR5IATCRef8Ya8cVb+OowqPVQ5D8JRyhLwG3f31hIPtx81cBMPtkvyAIgpADNZ7V81pdANmvUwigHKiz3QlwxUBer1TZ4HYHgEgBsKfhXv6KlRbhr7Xnz+1f0ZL15fbvK35qLUnSd3aTfxAEQaBntDoBGgWwKgh/C88WnvfVVrh6CPiWgIvGkYMm6BuQAsATftu1CS6AKjZaOMPE76x/Z/szN9KXRiYUaicdOXJ+/0cf/fvn88H0D4IgyIaAntl0AuAEKCoxUMlf64Lu89InHcypcD6Aj6JTAOyRsU8NZ/sTkP10Ep74+fBp+9c1P1Smjh17fr9u/kn+QRAE81UE6NmNG6uKANYEKQToBtAF8PVAbIR1VrVAoqk3Y5fV4N7RKgBsDjMU+Kkzf/1NNceHy7yfmT8sUb4U+qIMJCaT/OcdQRCkE8A4oBYB6AToEqiADMhZLo7WCRiKBPWRAlMA7GERwBtO8GEg66sxAK/5EFs3/2roQ9sfTf/FSf5BEATpBLijoIIiQMRALoY6+8iBbhnv7X+/mGYEsIu7/v1OTfxbP+O/VnbMf6qhT03+Ivxl5r9YCIIgnQBWBCkC2A5gHKAc4QVA6QKYcdzOzQA7LW+lALi7MJZlrbp47bv+rutP0PKHCVrV/Uj+mvmLQbqYyT8IgiDjgFoE1AIAThj5QsUAuaTPP8Bz07xJBc+VuU8hX9BmMXe/QvgrAj+s+nHzpwDAzldfClWH2fNfbARBkBVBtgO4AEr3hUJARYCSP3ljK698qxPg4ZdUnbEQvgc4m7KSKnz+7zd/v/1jCVlX/Wj/1Jv/4if/IAiCFAF61mvUu7r63D5dACkE8H1BJ4BxAIWA5xoIgT4K4PU8rAbOhdJfve17QMzwfX+SvwKRHwXSkKoAFWj7R943CIJgOWSD9cxXJ0CFABywOg5AMpgiAMM45RnvBJhk8A6uWolgHJzY5+I/df5f7XwV+psPqq78VdKfos78T5/+7QG1/mUm0QVBEARLgY2NzdfX1p7ar+d/VQxUVLEgCoHaCag6AaULwOlOgukA3Mvsn+DNdaEfv/UTuPox+0fXXx80N3+p/F27dv3lLgiCIFgq6NmvAkBRVwRZDVf+UDeATrJvBng3AD2advufSAHQG/5mUQhQXblZAxa/lvxt7j/U9lfwQetDv3r1+oUuCIIgWEpcuvT506wHqhPgK4J9LoIYyvmKINHjFUCkAPDwWX+fwY+Svd/8afczs3F5X7E8Yftr5qMPPOt+QRAEWQ9ULtA4WMlfYwHGATWHtBwEay5yE7rWRTYdgDHhLROf+WP2Q+vF1/2c8Q/hTxWdZCD1wUL6C+NfCIIgiI2wcoKSP+Rw5Q0IgconrAfKPr52ARSMpL0T4MnfzxQANXokFWn173RlMpMfCoAi86uo5j7s+h89eu5ASH9BEAQBUE5QF2AwIr6wzRVT55hCQAJyCucD9PkG9PrWjFYITAFQ3ygjV1SpX9ouxdxnUACQ/Nn5l62vQq1/VXhbxI8XuoIgCIIgUG5QEaBcAVeMzTGdQxvhE3QCKACafACXCzYeQAoAn5HU01Yrdtz+ecOd9Y+QA25PSvya/esDVYya+wdBEAThA6hTrHyh3KHQ9piKAC6WyAW33APJU24dPIYTkAKAaOkrVx1mT/6qxBD7qUIO+uBw9qP1P2LuHwRBEEQk6OLJk88cVM5gZVwnowAFXAAlf+8C+ChAhQCbbJbwYxvcuPHr7FX685k/J2sa+nBUrenDoo2jD/L06ScP3Lix/lIXBEEQBGNGAbowYiF89uyz+3wzQPmG0TMXUR8FEC4V7LG0HYBW25+TgF3JrV8nTk06a+ufXX9a/qj9qa3TfQcEQRAEgXIGpEB5BiAXDB+AzQAKALoBtVvN5XVwy29uA6QDUFv+hN40N13Qm4oes0LJv678ibFZ/f3L7T+t/ztCEARBRgHKHSoCFBoFYBwEx0wFgHsGMAbwDrbyWh8XYFlb/x6F+KfYSfjT60q8UODvz2xGH5A+KCV+fWj6AO+U9R8EQRAEV658+YeTJx8/SDdZ64EqAHTpRCUQfQAFOYp8VYqAUa6BS1kI9LL/WZ1AXMEFf+rOfyX+se8vwR/Z+z7++DMHw/q/FwRBEGQrQBdJ5RQVAdosU74hVABQBNQcVTlrvhXQ0gOY1lbAlMR+iH6rX/f25+bv+/4UALT9FWJxqnKT41N3VwiCIAjiGnjzHRUAyilIyaMuS+5xnwA3DOJ11zUvvlNVCJyq4A9nXZmos3/C5X5x+quszMr614clk4cuCIIgCO4BH3/86a/gAyi/aCtA4+baCVA+arkGckJmd1XA1uuF7gAoPPmzJ1nnJb7vTwcAhz8If5D+VABA+lP7X/rOXRAEQRDcGyHwwzNnzh8a6AOsYR0MKVCXUASCSifARwGDjTbyXM19S0MIpLqhEqpFALd//jeqJ+R+EV6A9a/Qm49QA2I/+pC++OLK810QBEEQ7JI2AFwA5Rolf+UdOgC1APAugKJ2twd5sKwATtEqeKpuf1Q97u9P1UQR4II/qrjoAIiUoQ/kyJGHt1v/cfoLgiAIdpsQqNyiMYDyjDrOWzlpWxeA1cCqC8Dp42yXB562SdBUZX+5/VMZud6/bv+8mYPb/zHa/9uKf/oAmPvrg1Hrf6tSe7nbRQRBEASBcsvRo6cP6LKpbgCjgMoDoAtA91qaNVxkUbR1y2BfBeRcyLU/r3jc7pcOgDP/UfyrLn9a+WPuL9a/Vjb24vYfBEEQpAvw6qtv/ki5hgJAI2jlIroAuAX2cQG8C+C5kb8XcgTAf7CdzbU/gn1/VVdq/UP6g/inmz8FwF7e/oMgCIJ0AUQIfPLJ3x1YXX10H6ZzENLhpzkhkJVAOtzwAFqk+IUrALjtW4XTcPtrC/6oqoJpydxflZff/sP8D4IgCCbRBVARoByEVwASwcpXmAU5GbCOuruu//bPOfcFgM/7qXC4+cOQZO0PZyVCxAq0/ikAEPxh7q+KbBK3/yAIgiBdABUA2jrTWqA2AzAKIk8pb2FaVzsAXHSHPgGo35o0vjABUuCEkn95XZJ/jfoG1du/3kjp/VNd6U1W619vuFowJ06cOaSKLLP/IAiCYHJdgGe2i4C1taf2KyepM02eUiiHwQlQTvMCQCc5cVqdgIkL/7Q6AqNU/7j1q7JCfAHRnyee+P3Bc+d+c3iSe/9BEARBugAPPnjqIAqBEAKVq/CmUe6iAHC7YFwCq2HQNKSBJ6n/b2SHlV7df0JzFNr/emNp/+vmr8pLrf/77//poUnd/oMgCIJAfDN1nzWCRhcAMmBdC1QXmwIAO3vG3cp9eAQ0+ABzXQC4y5EFGwBUQt9e/WPtT+HMf8QYVIFN4/YfBEEQxCNARYC6ALqQKjepC6DbfyUEYhfsK4GSBq5WwY2b/9x3AJzYAOHBbv/t5K/bP4p/uP1p3qI3XLf/tbVzh7d0mi92QRAEQTBBbG7e/LsKAIUupYwCVAAwAlCwFVDym5EB1f4f5EaSvsecFQBtu0OSfn2tKqi1+qf2iRP/sGNU2+XEifOH3n334vEuCIIgCKaADz7418OMAshRuqwqb8EFoAvQqwtQ+ACmCGhkwDkqAFo7/zqrEhJtEDoAtEpQ/mOWwuxfFZbWLs6fv7B9+//qq42/dEEQBEEwJTKgcpHWApWfuKRKpVa5i062FwDoARDqACgX6kQob247APX2X2/92nnEFYmgAKi3fwWSv2L9683EhUlvst7s48fXDof8FwRBEExzJfChh355n/ho6gKIC0AXoI4BqiYAUbcAfBvAx+fz2AHgHFY01vp34h97/1RNuvnL9Ofs2We31/5E/NObrJbL5cuXn+6CIAiCYAbIgF4A1LVACO1tdUBGAdjir0AMnLsOQI+oAUXAaNlfBbd/2v+w/9fWnt8m/+mNfuCBM4c2Nm6+0wVBEATBFCEi+vHjgzGAigAR1dGsUQGAjL0ut24URCFAN5wLcj8hcIYLgC30Cv8Mqxpip+ofwe2/Jn+Ef8T8V+tfKkxdEARBEMyIMqC4ACoA4ALUUYDUbPEHqAWAbvxOBvQCwNcDZ3oE4HN//sb2V+FdAN4UJX+x/538R/uf2f+s7P4HQRAEgXISXQDlKuUsjQAUbLO1CgC8cCgAPPm3bfRnFztu/tX6F/IfMw8pITn7XwWA2iQo/2G1yOqfZH8feeTp+2ap/R8EQRBkDKDcpBG1igCNrJ0MCAeAoABwTQCF6+fs1Rhgz/b/ff5PePIX+Q+pRCV/bv960xD/gfmvFssstv+DIAiCjAHET6srgSgDogvARoATAemMYxOs0xL+fIwAfO5PF2BY4QwLAKx/YUhW8h+mP9XzXxXWpUufh/0fBEEQzNwYQJdUTIJcGEj5DS5Amwz4JuJATWGguSQBVqlDvW6x/2n/s/tPAaA3TgXA0aOnD+iN1fw/4j9BEATBrEG5aSt/HRZZXSNrFQEDIvuF/2cbgELAk3/dBiBP1nVAnXMxAlDwGjID8393/vP5P2QJdijVRpHlryoqzVZOnXrqe3Jh6oIgCIJgxsYAylEoA0q11m2CqybAMPm/+D/2rgAyoSiKmgGADVIRkZRAJD4fgsQQEEVgEBGA9gFCEoAKAIiWAAUCBSABFAQR5SuTgHpnO+zt8/hgYz/e4QBIkXveveee+zMKcNkEUIKBPAq3tQX5xZTgg+8OgHP8R/5A6uyfpMOSucu4U2hoHA4HMZlM0Gg0UCwWYZomEomECIfDCIVCiEajSKVSyGQyyOfzKJfLqFarsCwLrVYLvV4P/X4f4/EYs9kMy+USm80Gx+MR1+sVGhr/Dx0KZJovT+wCsAPADjYNgaxprG2S9Ltx/O0WCiTpYv578FwHwO2WsSz8qgCQ83/HEems/lExUQAwVYmvfyoqCgDbPlm4I2hosDgPBgMUCgUWeAQCAfj9/l8zGAxSNIDiIRKJIBaLIZ1OI5vNCn5WpVJBvV5Hs9lEt9vFcDjEdDrFYrHAer0Wu90O5/OZrxZoaGj8DU6njzcaAeWVQJ+PW2wkL9k60cAUAKoZ0NkIeH+UXXPV/KckBHpXAKj5xqR69lcaIWiMkM5/Uu7+k3z9U1EZxuuzPv2rcS/Y7/ei3W7zRc+C7RlSOFA0xONxkUwmYRgGcrmcKJVKqNVq+Pq/ik6ng9FohPl8jtVqJbbbLWzbxuVywe12+2TvPcCtKq/uX26/adYk/h+wIKgIomIBFEFUFBQQQcUuUmM0drEmaBK7sbfYe/mCGntvKMEasQdrlG5BURBEMPu958e5I+dluvehnLX2WmufOZ5nPvursNfLzprznXPMMYLD4ahsEdyhw+DVpAmgPEYHIJYFluw9eXDJAkDbAHHujPl0yW4CpOL7zxe1s3/NOfjU7V/iPxyECgDt/ov8RxXFYXbpMmR1Ziwhx3A4vv/++9LVV19d2nzzzZV0Cx8UDJtsskmJYqFPnz6lAw44IBx99NGMJcINN9zASILOQlBX4bvvvistWrQoOBzNkQdAAcDGGvlLZMBYE0BFgN0EUH5UJ4D8CXmeooBIQxY4cQXAqBiI1P/Ks/91+4/X/zD+4bC0+kcBwAiA2UrIMRwObsu77rorSbPZBmOOrl27hjpFTwqFcMwxx4Rzzz033HrrrWHcuHGB8cO3334bHI5aBVw1cpZEgVQAEBQAlgyoIgBenCTy47F5JVngXJL/4nZF3M6IZ/9qe8S+/xwMtr8iAMKgpHoS+9/n/468grb4bbfdRvJbSoL0gAPBGIIRBGTHffbZJxx77LFBRcLTTz8d3n777VDn9un8hMLCeQDkLBUAkNnpaMfmQKjdah3QdgHidUAi91LAVvEP338+47Dsf0IjAA6DAoB9SUgT0v4X+5/DXLDg+4eDw5G7md/C0umnnx7WWmuthJKkFwitW7cOFFOMHSA1Dh8+vFS3CVFiC4JxA9sPn3zySfjmm2+8SHDkUg+AnKUiQAZB5DY63FIEjAuAuhwqgnwZi+D6sNt1ueIA2CpFxD/ZHOqhdPu3AkBURtz+Y+9/VilopXCQdQTAt4LDkSMw6z788MO50XryrjKRkQIBEmOvXr1Kw4YNK51yyimLuRePPfZYiTEDJExIi9UuEBwOtGrgAWy88X6rkr/oZg8YMGrxGIAugAoAuG8iBJIXVQRYEiBj9Di/qhjIT/u/jA9ALGig1QYr/qP5f30BUE/+Y2eSA9P8nw6A6/878ob58+eHkSNHlvKZJD1Yi+zWrVuAk4GWAhsZbDbQPZg9e3agePONBkdaIGe1bg0PoF4PQFoABLlOioCE8qEdAyh3ahMgtx2AOPHHlQuf8X6jFQDSAXAYdACkncyBafd/7bX7rponAqDDMWfOnLD//vt7oi1wB6FTp06B4gC9BIoDdBJeeeWVEroNScDhgkAbb9xvVXIYF1l1AAgKgNghUF3xcu6ACrYBSLW5KwBsZSJOADd+K/4TjwC0/ieXpHp25J4/pwigA8ChqQDICwHQ4YCctvvuu9docvTCAC7HpptuWhowYEA47LDDwoUXXhgefPDB8MYbb9SZvXzpIwXHMoGcxRiAiyyjbHIbXQBE7hAE4sJLzrPugCoC9EkelTCQXQFMohBI3AL4x8SFBva/9v8l/yvzH8n/KvnTAaAAoIJq1ar3anPnzrsyZAyHgz33/v37e7JsfgExkc2FwFgB0aQxY8aUbrnllvDCCy+Ejz/+OPhqoyMGOQvtGgoAAhIguY0CwIoCEeTDhhzZoAPQuDdAxgUAX8AyFOPkzwNU2v8X+Y+Ivf+1/48EMO5/G244cHXUlYLDkSGmTZsWIJzZxODhgRRz586dA8UhAklILyO7PHnyZDYVmqFPg4OtNcjrXGJlDkRui82BtBJYaR3QWgMTZh1QkQ1MFUJUXP+z8r/qAFAFsf9fz/4/9Odq/5P8+/TZf7UuXQa5AqAjU7By1qNHj+VKCh4ejBPq3nWhb9++gXHCxRdfHJ544gmklesSxIKSFwa1vQlA7kLGnnxG8mcdUDy3cvbARDwCUOJXVJDbb9GUaNL/c1wAmC9V2frX3P6lioQGAF0ADkkFANUTHYDgcGSESZMmlVC2SzIxeHh06NChRGHAGin6Bggg0WVyjkFtbQKQw8hldABYbeeSO2DAyf9dB4wLgHgMoPm/OgD6zKEoUNwBqCf/VSoAGmYcWyzeAJAiktoheP9r/Y8VCmYoEya8vkNwODLAxIkTQ7U0/T1cAGmdddYJiB/tscce4aSTTiqhjMhmApoGXhgUD4888lwnxgDoAbAOKEEgrQMy+uYyvLRVQK3QK68maQqUmAmQdf+zAkB6MNkg8tCqgHQgCACpA8Ch0UJ5550PBoUqw+F4/vnnYYP7zD/z8DEC5MPu3buHESNGlJBMfvTRR0sfffRRQMsgOPK8CjiUSyzGQGwCqAsgTwCNAWwBoLCCQKYDkI8CwBIS7Be28r+x+p8UAC0BENIErZMtttj3lzNmfHZ4qCIcjueee46Xrid/j1w7NOLOePDBBwe2EeCpuANjvkDuogCgCyAiIBw3cQB23XXkT3UJJlQAkC9je+BIVdfc/DMcA8SkP30RjQHimYXlAOj2r/1/WwBQKcUdgK+++vovoUpwOJCSdVMfjyIWBGwhXHfddSUsmR3Zg9zFJZZcpgIAPQByXblVwEojADnqklstB0C5uLodgDK7iETc+ifKcQB4UCV/PiFDcCCwI+EAkPxhTlI1IaRQt095VagCHI577rkntGnTxhOKR6GD0dU111xT+v7770vBkakpECT22BlQioAqAJQL5QvQkPzJmeoEiBBoVgETkAZOxABIAgVLMhaXTP5aA+QhdfOXAJBEgKiO6AC0abPjyigAIgLkLoDVgOOmm27iFlUzScDDSYUDBw6sm0N/GBzZFgDqAEgSmJV3tADYfIMEH28C2A6AosIqoI2s2P+h7OzfdgC06hC3/wkkElmPYATQYAE8YjUKABcBcqS8rxuuuuqqmkz+Hh44Jr766quh+nCQu9QBgAhIboPkrnxHAaBOOJ+VxgBEZApExGP37JI/n3YEoPW/xjoAIv9JBIiWCLd/EQBbt27QAEjLBtjhQIjlsssuq2kvfw+Pjh07lt56q9qvUQe5ixwGEZC1djoAjLlJ/oQuwBoFkBvVBVAOJWIeQJT8Tes/gxGAkQImJP+rqoU5xhIywCoASP5xAdCu3cBf0AFAAljz/1ateq1eZ9k5JThSgCd/Vqqag5e/h8e2226LmVGoHhzkrg022PWXkNlRtWW8TY4jtArIJoD8cMQBsFHOFChzQSD9xUr++ozFC+KHiCWAVe1Q+dAGiVcAYwXAuv+7XyVfADi8NbewdMoppzSrNT8PjyOPPDIDpUEvANgE0CogOgCsAq6xRplNAGMNXJdPkzcFSlIHQIpExNJcAHX7tx4ABAJAkAApAtZdd/OV6zsAfVajAAgJwuFAg/3YY4+FJOVJodmFrwpWjw/gwMNms832/BWX2dgUCDVALr3kvrgIkCBQXATQQY+LgMY2ATKVAVb7X1/Qyv/yYBIBgvnIA6sDACOSQxEHgAKAyinJAsDhQDntkEMO8eTfbMMDU6LqwUEOq0vyv+RCC7k9JgJaU6BKioDk07RMgRIxAoqTvt0CUPJX8KAjR/7x/4kNgDBHkAQwEY8AQgJwOBBHGT58uLf9m3V4bLTRRqXZs2eH6sCxySaDfg2XjVVAcltsC0z+owD4/1cBlROXyRQovnxXXwrYSBFa9b/YwIA5hpI/Ygdq/0sLWUUA7EgME6iSIABSANA+CQ5HEzFnzpyw//77ewJo9uEB6fWZZ54JjuoVAOQy1trVASDXqQNA/lP7n+54JU8A5VTlV3KuMQWqLgcgXkNoqErqq5VYwUjrf7YAoOqhCOAgCIgREgGSDwBjgOBwNAGzZs1CEEUvwGYfHh5XXnllcFRvBKACgPG2NgEYeVtTIHUACCX+H8sCJ2sKtMLJ384h4iKAkKGBHkIFgNr/PDAPLhlgRgDqANAuoQBo27b3r4PDsYKYOXNmqPNc97a/h0cUJ598cqgOHHSxyWUSA6IIoACA+E7uEwFQOZEc2aLFlv+nyIBWDCjaBMhuFdBWHzFBIXYxsiRAyQCr6pEJENUQBQAaABwSIwAnATqagqlTp4YddtjBvPw8PDwOOOCAUB04unbdZw04ABoBqAOgEYAtAOwIgBG6cqo2AWQKpNybpRdAi/j2LwODWAVQKw0xCTC+/aOLTDXUrt02v6A6kgwwBQDzk+BwLCfwSkf4xF/2yxZ1/xkNrVu3bibP61H3Pg7VgWONNXr8ilzGFgCXW4iAFAByBYxXAGUKRM4kGqz060M5VRyATHUA4haELQLisB0AyQCrA0AlxGFoCwDJREYAHBqHFxyO5cCkSZNKW221lb/olzHoksybNy+wHtk8ntljvfXWq5IgkKNjxwFrSAsgtgXWJgBuuORBbQJQAJjb/3KYAlURS1YfUQFQxgZYMw1C+/88OKERQH1VRPJvGAE4B8CxHEDkBPMTf8kvh2Pcc889F8CUKVPCxhtv3Az4Eh5rrrlmmD59enCkD3IYo2xyGh0AuwkgISCNAKwhUMyla9FCUb91l7kdsP5iERNsF8COALj9EyoAxAFgBCAXQDoAHBZV07IWAA7HCy+84AlsOWPEiBGl+Cb417/+tZk8uxd+/OelOvAOAAUAzraMttlygwfApZfOtwoAPAHiVUC7BqixujgA5N7MvQDiL6A9Rb6oQg8QOwFq/m9JgHQA8AFQBwDiBIcXlgKHY9y4caF9+/ae/JcjNtxwQ+sVH+bPnx/69OnTDM7R44477giO9NG58+D/BZdNmwADBw5dhXE3+U4FQGwKxAigkiVwbAoUcQCqrwOghF9eCKjBBVAtjHgNkIeMOwCsAFIAUBVRAHBIUgH0DoBjaV7+jz76aKldu3b+Ul/OwAmxHCZMmNCMHRL93z95eAeAAkC2wIwBBg/+zcryvyEPagRQTgeAqHfabZQDkA8hIILEbzkAdguAh+Zhy40A1l6772IZYAiA3gFwNIa77747tGnTxl/oyxndu3cP33zzTaiE3/3udzV+Bh78GzuqVwDQAagXuKsfAZDz2IDDB0eXYsL6ASiPartOuVZ5Ny86AMausHwBwMOJBMhDcwAaAUgFUBsAHNq66/YqWwA4HDfffDPuZv4yXwEp2Pvvvz80hmnTpoWOHTvW8CjAY9CgQdjVBkf6BYDUAOlu0+XmsksBIBIgYUmAcfKvoASYHy+AOPnHUsAaAWgTQE6A4gGoAGAegg5A7ANAEVCmAHB42x+ymu+tr2Dst99+YeHChaXQODjjGnZN9Nh6663D999/XwqOlHUAui3eAqADQHc7NgSiCBAJUKZA5EhJ50sLwJIAM9cBsH9pOQ5AVLUsvv2rACD5qwtA+4M5iEYAdAB69RqyOPlbDoDD8cMPP4RLLrkkrLXWWv4SX0E/+LfeeissC9AG2Hnnnb0LUMNaAN9++21wVGcEQE6LdQDwvonXAMUDIEfqwmw7ABoBSP0vMy8AFQEK6QDoS2pmUUkISAUAD0/7XyMAqiNxAFq23O6XVE86SIcn/3POOYcd5hV86XmMGTNGa3/LhGeffTass846NXoeHmg/OKpHAmTFHRIgBUC8BggnjpE4HQCI8lYOeMkLtdYALRkwgw6AKhHCbgCU4wDwcPICUBGgDoC8AMQB8A6AQ1i0aFH4wx/+UPKW9IrHpptuWoL4tzxgRnzEEUfU6Jl4jB8/PjjSFwISCZAtADoAbAGQ7+IRgFYALQlQY3TlVvKsEQEiqgv9pZYASMQFgOb/VggoNgPiEJiHUBV1795vVcQSqJY4NO8AOJhTHn300U2cRzvx75ZbbgkrghkzZoSNNtrIRwE1GLfddluoHnwLgO42BYDsgNdYo9fPrBIgRUDjSoBliYDZKgGGIC3iJUcAaBnrQfRg4gDESoAqAOgAcEgclncAHMyhDz300Ca+6Dz69+/fJMLX1VdfXYMFgMfZZ58d0oe7AZLL6GpDcKcAkBAQ3W/5AWgFUGZAVglQhkCQ7Csn/wxIgHzGHIB4C0DVSzkhIIkBQYRo127gYjtgtgBok0gIyHUAmi/mzJkTRo4cmUDiceIf4j5N7cLsuOOO/m9RY3HYYYeF9OEdAC6yUgIkx6kDQPJXB0BjccsBiIWAYhJg5kqAtgOgtkTMA7AFgMyAYhIgVZAVAurRY9ivnATYfPH111+HfffdN6EXnb/kGyH+OSGwGcfuu+8eHNXTAaADANE97gCwCq8ioJwXgBUCqo8GHoAi8xGASIByA4w5ANppFAlQBQAVEHMQqqEGO+DtVnESYPPFrFmzwm677ZbAC84DMR9EfZLC4YcfXkPn49GzZ8+wYMGCUkgNDrRsxAGgAJAZEGuAbAHYNUCRAM38XxFxAEJ2HQArQMCnVQBUqACwWwAEBQCHoBEAKxISAiL5ewHQvPDpp5+WevfunVCr2ePKK68MSYK1MbYJaueMfDPkyy+/DOnBoTxGV5vxNl1ucp3WAMmBKgC4/RsSYKNaACbxZ1cAxHuJfFohIG7/cQegnBtgPALACdA5AM0LkydPDjvssENCLzcPzhISZdK46qqrauSMPFDTnDp1akgfrgQoKWBIgLIDJuQGqA6AXQG0iV92wHxmtwYIzPzBcgDiEYCkDQnNOdQBEAeAQ1l33c1XxjBBWwAuBdw88MEHH4Rtt902wZebr/09+eSTqW1m7LLLLt4FqJF49dVXQ/rwNUBu/yoARAKEAL/mmvWXYfIhG3LaBIhJgNIB0Ig9Tv65EAISB0BeALYAiDsAPKScAJECJvlLCRAdAISANAKo/QLAMWnSpFLXrl0TfKl5HHTQQaWQIp5//vkaUWT0uO+++0L68C0AeG1cbjEDItdpBKB1eAoAdQDsCqCNMhwAXcirBrMKSJj2fxkioLwAGlYBt/6JCgCqIkYAyCVyWJtttqeTAGsc3D46deqU4AvNY4MNNggffvhh6oZMRx11VA2cl8fll18e0ocXAK1a9V5NOgAY32n+T/KPxYAq6QAolGetHXBmboBx+5/bv7YAlkUJkJAQkDgAVElwALp1O/DXzgGoXbzwwguhQ4cOBW0lu7jLzJkza0Ah0OPkk08Ojup4AWB0JzdAzf+JXXcdubgAiJUAEdEzHABjCZx5ARARASMSYFyt6CHiDoDWADUGYA7CYaCPTHWkLQBfA6xdO9+nnnoqtG/fPuHk4bHNNtuEr776KlQLKAQWW6LZY+jQoaWQKnwNkFxGRxsOACMAOgD9+x++Evw3uuAkfxUAVgeAqLwKSN5VVBGmADB+AIMrdgCI2A2Qh+cQaIdoBMAh0S7xLYDaTP4PPfRQaNeuXcIvMg8S8d///vdQTXz33XelYlsGe/Tp0yflAsDXANdYo8diKWB8brQFIBJg7AYogrx0c2wBIAIgUcaQr7qwnsSxHXBcBIgEGHcAeFAKgLgDQFVEddSly6DVqZZqrwBw3H333aFt27b+4k0h9tprr7Bw4cJSqDJwlGOdrJjn5tGlSxcXA6qSEiCXW9kBSwqYWNY1wCVX7TOUAi53++eznBhQvZ/xlpEY0NGLqx09NCRAVJFiDgAdAKqm2ikAHDfddJNLyaao9//2229n1tU58sgjC3p2HvA4Pvvss5QLANcBQAhIWwB0u8l7RKwEqC6AcqVRAtQaICEugOXj5YMDIOci2wGQ37GSPzrItgCgSpIdsHMAig885ZkVr7XWWum9yJzIVSIRZwXkhl0hsLjF4/vvv+8FQIoFgMyA0AKg/U+Q98h/cgO0HQCNACgClPzzJAVsHQHjTYCKIwCZASl4+HgLAIYkSoDMSzADwkoxOAqLRYsWhQsuuCCsvfba/rJNKVijxD8ha1x77bUFLQA8XnzxxZAuXAqYAoAOAF4A5DoKAHKf9QKwHADbAbBmQBrF58ILQCMAdQFUwfAwlgDIg1spYAgS6gBQALgQULGT/xlnnJGyYIwT/2688caQNWQZDKGseOfocc8994R04WZAXGqlBIgXAF1vjQDKuQEStgCo6/hr1G45AC2qvAZYeQxg5/+EFQLSvAMZRM1CNAJgDZBqCQ5AcUcA3vb//e9/H3xFLN3o27dvicSbJ22H4o16PK644oqQLpwESAHQoUOf1VC7bbADpgPwm8XJHy0ACQHBmWtMCVDKuzEBP/tVQNMB0KcehC5AuQ6ACgB1AGiTuB1wcQET/YgjjvAXaxVmtxMmTAg5QwEVAj3GjBlThSLStwCQueeSS67DAZcNOCsEVHkLQJ8yAyKAOgEZkgCJ+PZvOQBERAKMOgD1OgBUQ6wBMh+REJCbARUP3377bTjkkEP8pVqFwJufTktT4YRAj1GjRqVcALgQEARAdADgudEB0BogfjjyAtAIIL40VxIBsrf+KhcAlVcB9UXtFoDlAPDAsQ4Ah8KOJIfkboDFwzfffBNGjBhRpRe/r25hn5xXXHPNNQVSCPTYddddQ3rwLQD4bFxq5QUgDgC5jyJA+TAiAZYlAPIZ51rl4CxIgGo9LNUMiOCB1AGIzYDkBogSIKsRVEexHTCHFxy5x+zZs8O+++7rL9MqxSWXXBLyjPnz58NPKFAx6GJA6cK9APC3oQDQFkDXrvvXbb1t8VMlf1sA2A4AeZVLtbn9K6rrBqi/TF+ET+YSWgHU7d9yAHi4WAWQIPlrC8C9AIqHL7/8MvTv399fpFWKbbfdNiDBWwCzp4IIP3lsuOGGYd68eSEd+BoguYxLbbwFQAHA+BsivPLhyJF/lBnQEhwAbQDEaoCEbv9ZdAAMF4AvsXQlQEkBq/1PcAgQIjgUDgfHJA7LhYDyDxzhevfu7Te9KgUrlY8//nipKJsgxx57bAHO1aNNmzZhypQpIR34CIBcRk7jcssWgEYAyoHxFoA6AORMdQCsEmDcBcjEDTCuOhSxCFC5DQC7BigzIEYAsReAOgAcmnMA8ouPP/447LDDDv4CrWIMGzasRGItCpCYzb9lsAedmtdeey2kAy8AZAa0yirbrcIIgOQvM6C4AKA7vjQ3QHKrOu7KwZmuAIqUoN1EioByWgAiARJWCIgDUQcAJUAKADcDyi/efffdEq1of3lWL3BQnDRpUikUDCgEOiEw//Hkk08GR/JAzVZ2wHIDlBkQ3W8VAGzEcTlmBKALc/k1QN38M0r+tgBQR8C2//mvrRAQIS8APTQFQLwFwJyEdgkH5iOA/OGdd96BNOQvzSrH6aefXlhdiPxbBnvcfvvtIT34GiCXWpkBketI/uQ+/AAkA6wCQLmy4QLd4AcQuwGKB5CZFLAiXk2wGgBWB0AcAMJKAXM4dADYmWQE4B2AfGHixIlhk0028Zd5laNuVBa++uqrUFQ8//zzCBfl+Iw9LrzwwpAOvABgDZARAONtcpy2ANQBkBlQXADERkAKzf5t+z8jDkD8JRqKgHhloZwQUMwBEAnQSgG7EFD+gOpcNvNc1/u/++67Q5GBU+HRRx+d43P2OPHEE4OjOkqA8N0oANiAU/KXEBBhvQAqiQEp/2YyCtBfaKWA4y4AFQwhdyMKAB5UpAdu/xAhpAPACIA2iW8B5AtPPPFEaN++fQbJ32Pw4MEhe73/ZBQCN9tssxyftRNMQyrwAkAkQHIbBUCsBAgRXkqA8gKwdsC6TCv5E+IAmKheB2BpYwB7+9cWAA+qsB0AbQFwWE4CzMfN7YEHHoCAltGLydnZb7zxRqgVXHfddV5ENks1QB8BIATEaFtCQNoCoANglQBtASBlXXEACBUAmXgBEPrLlfztCIBPheUAxARAbv94AXAoAwcOXWwGBAGQQ/MCIFvcdddd7Ahn9FLyOP744wNFWK0AAaN8KgR6bLXVViE9uBKgRgDrrrv54gKAvMfFlzzIRZi8SOiyXGkLwIgAKbLpAOiLUI1YKeClKQHGHQDWACkCWJFgVcJ1ALK/+d9yyy1h7bXXzuiF5IGhzqxZs0Kt4Z///CeCRjk7b4+2bduG9OBCQHQA2HBD7p5cRweADQCtAepibHUAYiJgLAJErlUOznwLoJIQkHgA5ToAPHg8AoADQAGgNUDfAshOwe3KK6/M2NfdiX/XX399qCacEOi/OQy9koePAOhoM9Zmw01SwBQByoF2BKD2P6HbPxETACHeZ0kCjP9SOgDLtApo7YDRQZYXAIdCe4Q5iQsBZYNFixaF888/P+Obv0e/fv2k91+zEtK+Tpq/AgCBr5A4vAOgLQCRALns0vUm94kASE6MlQCJmASoIkBywCbxZ0sCVPLXjIIvHN/+bQdAD6wtAGsGRAfAzYCqn/z//Oc/Z9ye9WjdunV47rnnQo0DQmDOFAI9xo8fHxzJmwGJA8B4W1sA+N9QALAFAA9ABYAIgJYEuKQpEPk22Ns/UR1YH+KYCMiXrDQCIER2EPmBAkBmQNIBcCXA6rdlTz755JD9C9njkEMOCYxhah10OOh05OfsPe65556QDlwKGA4AI4BYCIjcpw7A4MFHqwD4EQlQHQDlVs3/M3YDLF8AWDtgJX/LAdAmAIegLQAKADgAHJaPAKoDdsyPOOKIHLyAPNBamDp1amguePHFF3OkEOhx9dVXl0Iq8AJASoBaA2QEoAJAPIDGzIDiMYBI98rBmXQA9BdqC0AEQIoAfWE9gFUCjB2QVAAQHA5tEjoArgSYPubPn8+NMycvII9LLrmk2RFOR48enZPz9zjzzDNDGvARAFsAvVeDA8CYW2uA5D7G4BqJkxspAGzytyqAmbsB2tu/igC7Bmi7ADycTA+kgcwqBFsAFACsSLgZUNVasDm6+Xt07949e+JfNoRAVh79N5CDOPbYY0N6cClgeQHEboCa/8deAMqXfFotAHEAtP7HJ5HJCMASAe0aoB0BqADg5q/WR+wGGK8B+ggg3Zl/3b+Xk7ByEqxcPvzww6G54oYbbvDfQQ5i6NChKRSgXgBwkaUAILex6WY5ALEXAAWA5QDEIwBpAdj1v0zXAIlKSoB2E0BrgARrgLEQENWRSIAuBJQasP50tn+OYr/99pPiX7PEDz/8EHr37p3xWqDHgAEDUiCg+hqgpIAZAbRtu/VKcQeAHCgioOUA2A2AWAlQHYDMOAAKqwNQqf0vJUArBKT2v1kDdDOglPDee++V1ltvvZy8dDw22GCDMGnSpFJo5nj55ZdLTgjMNnr27JmC8ZQLAWkNsJwZEEFHnPa/FQKyJEAVAEb9r/p2wNICiKWAiSXJCuVHAFQ5WgNkB5IqSCMAOgCsSrgQUDpYsGBBCdOP/Lx0PNBeqIePpY455hj/TWQYuDXOmzcvJAvvALAJQAeAy61IgFx6yX0UAPIC0Agg1gEg6nLt/96wBdAgA2yj6gVApTVA2wGwOgAaAUAAjM2AqI5QAkxnC8Bx44035uiF41FXAIcGvX/H9OnTM7QM9qAD43LA6WwBsAYIB4ACgHwnJUAuwiICyg64sRGACICxD0CLzBDN/zUCKEcCjLcAEDzgYTUG4BCkBMh8BMck2QFTPQVHIvjyyy9Dly5dcvTC8Rg7dmxwLAE8EPy3kWFQhDnS2wLgklvODriSDoC66dLXaci1mQoBVVYCjAsAPYTcAKUDoAfWDIQioGELgCrpN74FkDAuu+yyHL1oPHbfffewcOHCUnDY9dQMx1Qer7/+ekge3gHo0WPYrzp06LMal1zp3pD3tAUQcwBsAWBv/4Qh4mczArBeAOwo6stWGgFQ5eihVQAgBYxBAjoAMgPSwQVHk/Htt9+Gbt265eQl44HZ0ptvvhkclS2D11lnHf+tZBBPPPFEcCRLAlQHAH4bOU5ugHQAdBm2OgCENug0/+dTHACz/199MyDrCRA7ARJaAdTtXyMAHlJCQBoBsAnAocRbAGus0cM7AAnhscceK7Vq1SonLxmP4447LjgaVQjkjPy3kkHccccdIVn4CIBcpi0ACgCNAEQAjLsAuihbHoDyqhK/6cBnMgJQGB6A4QCYEQD7jmp3SAgIQgQFAIfDIfkWQLJwud/8BDa4qN81DscXX3wROnbs6NoAVQ5GhcnD7YC51LZuPXAV5O4lBETuUxGg9r9IgNYNkE0AbQEo4vZ/JkJAlToAGgVUsgMWAVAFgDoAHI46AE4CTG71z6VW8xPXXHNNKTiWmRDoapXVjdNOOy0kCx8BqAMgEmC7dtv8gpzHFpxEgGwHgAJA+VOX6rgAiLsAWegAxBVH2TVAfVoOgCUBsgvJYcABkBIgh8X83zsATcerr77KzDkHLxePnXfeuYQB07LBAUmyf//+/tupYhx99NHBkSwJUB0ArQFqBCApYMsBUK6MZYD5tCOAOA9nYQakiAoAglZF5AYYRawEWB/1ZkAcxuDBv1lMAqRNAhGQg/MCoFbWqjwgtT377LNh+eB46aWX3DLY/QAKTwJUASAzIC69av8r+UsIqNIWgC7YsQ5AZm6ACuMG2OgWgAoAWh58tmzZb7EdMFsAsCK1BuhCQMnh5JNPzsGLxQMeBpr3yw9XCHRCYPVit912C8nCOwCMAOoLgBHRCGC7xQUAOTDuAGgNMFYCjDvqmAFpBGDb/1V3A7RGQJUKAB7G2gFr/q8xAFVR9+79VoUEKCtgLwCajmHDhmVMpPJo3759+OSTT8KKwTFjxoyw+eab+2+pCrHDDjuERYsWhWThHQCkgBG545IrDYCYACglQBUAldQA7fyfyGQLoJIUcFStwFxcQgyI9gZtDqkfqQiAEQkHgMOhSoID4GZAycBFVbKP8847LxQFLmPt8tTohjiSWwMkl9EBoABgzK0OABdfOgB2DbDSCCC2A7ZCQJlwAGI9Yj7F/rdBB8CaAakAkBkQh0IBQAcADoB3AJKB26xm/0JlE6Op6nhff/11oWWoeYamEgK9mE0/6jaGSvx7JQcfAdDRbtWq92qMt1ECFAdASoBciMmJhL39WyKgRgDlbv+ZmwGpPaG9xdgNkE8VAOIBQACEAyA3wJ4991tVZkBOAkwGffr0yagA8FhrrbXCQw891KSk97e//S107949YJcbCoqnnnoqbLvttuHOO+9UMZRjhUC3p2bk4kh2DVBmQLIDhvcWFwDc/keO/GOZDkCc/O0WgI1MOABABYC5/UcFQIsWW/6fUgIk+UsHgCKAEYA4AHX/u1Wollq23O6XXgA0HbvssktGBYDH/vvvv0LEPxI/kqx9+/ZFwTG0bds2fPzxx6GoQF+exM2z7LjjjiWKohX1nU+fEOhFa7q/NVcChANAB0AkQOsGGIsA2TGAtAAg3We6Dhj/xfoyuv0zCrAqgBIC0u0/dgOMOQAcEh0A5iY+Amg6+vXr5y+2jG5Sy6v3T7HA2tvee+8deBHrz9piiy1CkUcAU6ZMCe3atQt6HgoBzJDGjRu33ISzTz/9tOSWwenGW2+9FRzJoGvXfRaTAOlsSweADoC2AAiJAXFBJuwGgJUCJufayIAEaNUAK7sBWjOgWAiISkgcANojHJIrASYHF1LJJk455ZRSWA68//77pVGjRpXKiTZxa65Doc2okEC2z7XmmmuGfffdN0ycOJF1v+UiBLpCYHoxfvz4kBxcClgjAJkBSQiI7rdyoTgA5YSA7Bqgxu2ZcQD0FzfGAYhDD6QOgMJKAVMAwJTksCgA3A2wyWCvt8ovEI/OnTuHZSVSffTRR6ivNarWSGEQig14DBWfj2Q+fPjw0ttvv73M8tb+u04v7r///pAcfAQAn41LbWwGROc7sgMuSwIkKpEA47Z/5iMAdQDqv9zShYAI5h4iAlINcSh4AbAG6FLAyWHQoEFVfoF4jB07NiwN06ZNC7///e/D+uuvv9Q/7/TTTw9Fx5577rnU50Tx77DDDgvvvffeUgueV155peQKgenETTfdFBzJrgGS0+huQ3TXCMAKAakDoLF5XABYKWC7Bpi1DgAFgPEBqCwERMRmQDAiKQCojjgkRBN8CyD9F2/y4UHBZQlu1uXuL3/5S9hoo42WmZx52223haLj8MMPX+YzhC9wwgknhKlTpzZqGXz88cf7by6FuPTSS4MjuTVACgCNAOQFQM5jBT7uAMRKgES5AoDQ2n2WboCC6QD82AgoLgJiJUA6ACoA1AHgcCBLaATgQkBNBjPWKr04PGjjY75UDnPmzAlXXnkl44Hl/nNfeOGFUHScccYZy/3cFEl0Pz7//POyBRX/c/bW/beXXCTfcfI1wG7dDvx1wxbA4JXVAaD7bUcAtgAgfiwCtCT7P7M1QK0hWClgtgCkA2AJgDwgrX8ilgLGDEgdAA7LhYCSwQEHHFClF4fHUUcdVfamyi4/gkArupY1ffr0UHTQVm6KOM2FF14ImTDRP7d8eNB9cSRHAqQAoKutLQAJAWkVkAKAfLi0DgAFAJ/Kt7r1ZyIFLDJgvAZoyX/sMVoOQLwFQPXDIUgIKF4DRD3JRwBNB+5e6b80PGC5z5w5Mwistz388MMw+Jv057LyRveg6HjmmWcSUam7+uqrS/PmzYsLrBQ2Xdy4Klm4F4A6ABDdNQIg+dMJJ7Qeb90Ay3kBKN9aMn4GSoAK6wVQngRI8iekAwABgjYIwggcCjKJzEkoAFid8A6AmwEVJUhM2uV/+umn8WBgza3Jfy5KjrVgzgKxj25GUvLKt956a6AQSJ4Q6EHXMDl4AYCoHQUAG24Q3Wn/k/PofOsyrORPLM0LwIoAZUICJKwngNoUlQoAIi4AxAFgHUIdgA4dBq8GB8C3AJLBwQcfnPILw4MkzS2d+T/qf1rpSyJGjBhRCgWHBHxEfEwiWB3s1atXiZU1fAZcIdAtgfO8Btijx7DFYkCdOm23WAiIAoDcZ0mAVgjIFADWETAjLwAlf2MHTPLXFxUHwI4AtAIYmwHFWwDRCMA7AAng0EMPTfFl4cEt/5prrinRNk3jFnraaaeFWsD8+fPFg0g8BgwYEG6//fbQqVOnBP48j+233z440hkB0OXW7b/cFkClEQA6AOoAKPlnrgSoT8KKACn5WztgFQFqfWgNUEJA3gFIFkcccUSKLwsPNO5bt26d2p9Pq7tGQKJO7ZyQF27Tpk0Cf5ZHly5d5GGRINwOmNxmOQBq/xMiyVsSoO0C5EoHoFEioOkAqADQA8MBGDBg1C+0BigSINWSewEkg2OOOabALyMPxgrVhP8WPSCesnGRDFwHgGALQEqAyN5LCjg2AlIBUIkDELf/FUr8mWwB8AWWJgWs5K8CgIek1RELAXH7VwEAUYICwLcAkoGLpRTbmW3u3LmhVgBRMv/n7tGxY8fSrFmzQnLwEQAdAFRuIQGS7/r3P3wlch8XYZK/1QGwIwDN/2MdAI3fM+YAKOLEX5kEKDvgeATATIRDwQ6YAkAjABcCajpOOumkYr6IPJiZ11QrdsKECQU4d4/27dsHpKqTgXcAxAEgt2kEwPo7HIA116znwlkvABEBlfytDoA67pkIAZm5gykA+MJL9wKwSoDiAIgE6ByAZHDqqacW9NblMWTIkFBL+OyzzwqwrufRtm3b8OGHH4Zk4EJAMgPCB4AOACMAVgFlBhQTAbUFYN0ArRogBUAs/5vZGmDciqgPVAArkwAleFD/0Fsv7gBwGNoCiEmAbgfcdJx55pkFfRF58G9XS2BdT66AHvkNSK04MyYL7wAwAmALgMuuOAAyA5I5nkYALVps+aMtAJI/oVF7plLA8fxheYSAGAFoBdB2AKQDwGH5CCAZnHfeeQV9EXncc889odZw4IEH5vzcPdBYSI586lsASAGjAYAUMDoAjLy5/UsHQDyAxrYAVADIDCjjLQDrCBivAWpnsfwIQEJAREwCJOQFIDMgHwE0GTh7FfRF5MZCWd3CvCPl8dxzz4Xk4B0AchocAHIc3W4uvXEBENsBc/snX3L7r2QHHIIE+OQJkAn0JeRRTNi5RYv/FgEqADQGkBeASIC0R2iTqAPgBUDTcdVVVxXwBeSxwQYbBFrmocZw7733FuD8PR566KGQDLwAkBQwuY0uNxwAiQGp9U9nnLBbADERkJAXgN0EyKQDoM+4CIirFbsGuKQIkNiPh2IGtPhAIAHSKvEOQHK44YYbivcC8sBEqBRqEJDL8n/+HmPHjg3JwEcAWgPE5wYSIB2Arl33X4ncBwdAIkAqALQFoFyqrnpcBMS8uwxGAJb8py+iVYWlbwGI+MAsRF0AWJKtWw9cpVWr3qtROXXtuo8XAE0DEqkFfAF5oOBYi2CtccMNN8z5+Xtcf/31ITm4EiAdAPhtcAC0BmhHALYA0O3frgIaESAiOyVA/eVUJcTSdABi0QMOgDaIRgASAkIEyEcAyeDuu+8u4AvI49prry2FGkSpVAqDBg3K+fl7wB1yJLMGaEcA5Du63hQBKgBsB4AoZwZkVQAzEQIyyV8FgHEDLD8C0BYAISdA2QFTHaEDwBgAO2AvAJqOBx54oIAvIDcYevHFF0OtYsyYMa5NkfM455xzQjJwJUC62XS1YylgLr4UAazCWyVA2wFQ+18rgJEccIvMSIBWB0AEwEp+ADAb4wJAYwCqIIICACVAqiQXAkoOjz32WPFetq7EVkI0J9QomC/7v3O+AwGx4EiEBEhH244AZAcsHYByUsCVtwDItRmPAOIVBEIcgErJX52AesvDo38SrwGqAKA6ggPAYUGccDOgpuPpp59mr7dgLyC3Y6VVXquYNGlSSQ6KHvmM0aNHh2TgBQCXWcyAIAFqC4CcF9sBiwMQt/9tEUB+NUJAebED5gstmxCQCA88uLYANAaoHwHsJylgJwEmgH/84x9YpRbo5eNx2GGHhVoGRED37s93HHLIIcGR3BaAvAAoALjson5L7iMHKvlXcgOMiwDd/ssl/kwKgJgDsDQ7YI0A5AWAEYJ4AHIDRAiIAgDihHcAmo6XX365hKtccV4+HrjmhRrHAQcc4P/WOY6DDjqoFBKBFwAiAdIBQOtGOgDkPm3D8WkLAEVsBUzEq3+mE1C9+b+VA+az0hhAbY1YCCgmAUKGiAsADst1AJLBxIkTUZUr0MvHAwJgreOCCy7wf+scx1577RWSgxcAaNtAApQboLYAVAToYqxcWYkDoAKg3Cpgph0AtSakA2Bv/wo9KAEDUiMADmXddTdfuVevIat7AZAc3nnnneDz1uLERhttVNMEQAGpWR9N5TcGDBgQHMlsAcRSwIy5ZQYEBwBDoFgJEClguQFaLwCRAE0RoGixIqH/YrmjDib5N64DYNcAeWgYkBIBUgeAQ1IB4GZAySivuQVrcWLnnXcu/ec//wm1js8//7xEseP/5vmMnXbaKaEi1AsAkQDVARg8+Dd1q4ADfyESPCMALsTlpIBNPo22AAwBMIMtADODUBFQuQCguuEBSf677jrypzy47IBjHQA4AL4FkAymTZsW2rRpU5AXj8dJJ50Umgv69+/v/+Y5jR49egRHMlsAaNpwqWW8TQFAB4DbP7mPDoC2AMiPjMiVM+0YQBFLAGe1BWAKAbgAav8vvQMg0gMPz0FQDdEFEAcA0QQsFL0AaDq++OKLsN566xXkxeOBcmNzwZ/+9Cf/N89pdO7cOSQHlwJmBCAvADoAdgtAlsAUAeW8ABojAmZGAtSX0AjAmhco+fMw5bYAeHgRAaUDoALAOwDJYO7cuTjLFeCl48G2xuTJk5uVRoX/u+czOnbs6COABMAqO10AutodOvRZTUqAmAFJB2BZRgAyAlIHIIQy7f8M3ACNFkD5EYAqGh7OagGoANhxx8Er0x6BA0C15B2AZLBw4cKSm68UI7bZZhtZADcLQHbMJw/Ag3fGokWLQnJwIaC6vLcKBYC8AGQGxDhcfgDWC6Aut0baOnwuuQGQOQdAMwh9MWMFzAP8H3EHIHYCjO2AKQAYAbAF4CTAZNGhQ4cCvGQ9fvvb34bmBMiObgyUz6BrSPcwGbgQEJfaLl0Grc6mGx0AeACMwDUO1yaARgBWB8BKAUf5N1s3QLX/Yw6ACgCSv+UAjBz5x8UdAB6cA6AAoCKKRwAclo8AksMWW2xRgJeOx8033xyaG84//3z/t89hwBuaNWtWaDq8A4AOAAZ35DYuuiR/ut5aA4y9AEwBYGWAI0OgoOSfFQkw/gL1Mwm+nOb/EWNxcfLXFoAelNu/RgAcCMEIAMME5iUwJ70ASAa0lvP/0vH4+OOPm6VQlf/b5y/YHJo+fXpwJLMGSE7TCEBSwBQAaOGQB2n/E3EBQO7kUxdqIwWcYQegjCGQ9QKIxwC2AJAREEEFFCsBsgaIexKHhpdycDQZO+64o48Ach5dunQJtMSbG+bNmxe23HJL/w3kLNAO+fe//x2SgbsBUgDAbxs4cOjiNcD+/Q+nC/CjLQDDAajoBqjNu6w6AJICjooAJf/ya4A4AmoEwKxDBQBCQHEBQAegR49hFABOAkwIu+22m7/U3AAot8B4xn8D+QrUQ3FtDI4mcwAoABqUAOvdAFl9J/eRA0n+BPmxMSEgjQGk/BdfwDPjAFgdgKUJAcVKgLT/aYPQDqEqciGgdLDPPvvk/IXjceedd4bmir///e/+G8hZrLPOOuH1118PycBHADID4pJLrmMNkPxHaCxOblTyF4FeI3U7AojXALMuACIyIFHZDpjQw1ohoJgDwMoErRP3AkgGw4cP9xFAztutM2bMCM0Vc+bMyaFfhWtS4CQaHIlsAXCpJbdRANABoP0fjwBUAFQaAVhDoBCU9DMyA7LBF1KLQsYFjXkBaBWQAiDeAoAtSbuEAsA7AImA9nLOXziu/x+aOereFf5byFFg1DR+/PjgSG4NkAKgZ8/9ViXfkfcYASgXyg5YZkBWClgXa6sDQGRKAoxHACoAlPz1ADwQDyat41gJkKADoAJAWwBOAkwOxx13XI5fNh5nnnlmaO647rrr/LeQs3jyySdDcvACgMstHQByHSMAqQAiBEQBAD9OeXJJHQARAFv878YHIJsCIG79q/2vEYA6AFoBjDsASv48rDYBpANAW4QRALuSzEs4OCI4moy6fwcfAeS41frSSy+F5o4pU6a4aVXO4qGHHgqOpm8BaAQgN0DG3Vx6yX2xDoBp/1sdADMC0OhdxUAVoYoj/hKKxsyA1AFQASA3QKohigAOp75K+s0vEU/wEUAyOPfcc3P6kvHo2rVrvfyvw1UBcxb33HNPcCTHAeByS5cbMSBJARNaAYyVADUGsJt1EgKKNwEy1wEgYg6Abv+VdAAGDz76J/ICIJiHxGuA2gLwDkAyuOKKK3L6kvE45phjQj0c119/vf8mchR/+9vfgqPpWwAqANgCkBkQ83+iZct+IgEu9gJQnrQdAAXJ34gBZe8FoJWEcl4AitgLIOYAaA1QBQC7kowAvABIDEjM5v5l43NWx9SpU0P79u39d+HS1DVnBgQHgBEAdsCMAOgAMALQRVh5sfwIQBHLAYd4DJ8NB4AQG9EqAcY8AD2URgAiPVAEiA1JARDrAMhGMThqdM/aAwW82bNnB0cDDjrooJzwVTyuvfbaBEZTPgKQDoCEgOQFQKgDUIkHYO2ANfPPwxpgi1iFKHYDVKgAkBIgLEeRACkCmH+oFcKhxB0AOADeAUgE3DIL8cJx9T/Hfffd57+NnMTll18emg4fAZDLyGkdOvRZTV4AUgKkAKif/R9dsQDQWr0IgBEJMHs3QMsFsEqAkBn0MDwcDyrpQ40AOAyIEeoA+BpgsnjxxRdz+ILxeOqpp4JjSXz99dehc+fO/vvIQVx44YXBkQwHgAIAEqCUABl7MwKQFLB0AMiVlgRolQAVysP6zGQLIL79E/rCjW0BiAOgEQDzEA6le/d+q1IAuB1wskDSc80118zZC8bNfzDC+TEcp5xyio8BchDnnHNOcCSzBkgBAMGdEQAdgHgLgOTfWAGgEYCVAhbvLrMCQHyABmZi+fa/RgAiAYoDoA6AdAC0BaAOgHMAkgGmHsjN5ufl4vGHP/yhFBwVf69rr722/04yjtNOOy04kuMA0AGgy00BwIXXugFSAJTTAoiVdflU0o+775mMAOznkoSFFv/lA8RbADykkr8qIKwRYyEgdQB8BJAM8Jlff/31c/Ry8XCjlcr44Ycfwp577um/k4yDTkxoMrwAEAegV68hq7MFIC8ARIDIg7oUqwAoJwJE2BEAOddE9RB3ANSWICq5ARIqAOQHAAEi7gDIDEgFAJsAwdFkfPrpp6UOHTp4WzUnseOOO5ZCo3A8+OCD/lvJOE466aTgaBq4xKoDIDMgiIAaAej2ry0AFQAVtgAsByALN0C7Ckg0jAHkBUDbIk7+IgNCAqQA4KHVBeAw5AUgDoDrACSHb775JnTq1CknLxYPdO8bh+M///lP2Hrrrf33kmHgIZIMXAnQcgC49JL76nIifgDiACyhBCgxPasCSBjyX3ZCQGpF8GnbFXYEQKjdoapHQkAEJEB5AXgBkBwWLlxYygWz2gOhm9KsWbOCY+n461//6r+ZDOOoo44KjmRIgFxqyW24AbLxxgoguU9jAPIhl2NxAHRpXpoVsFr/mQkB2REAjkU2+ev2T6AFINajOgAcxuDBv1mZDkCrVr29AEgB2267baFePi796/jyyy/Dpptu6r+bwutUuA4AxHaNABh30wEg74kESIgDAGGeEIleudQ6AhKZCQFZN0ArBMQIwBYA2gLQ7Z/krw4AVREECQ6JAmCNNXp4AZAg+vbtmzEHwINNjNdeey0sOxxnn322/3Yyit/+9rchObgbICJ32gIg+aMDEK8BkhflAxCvAmoUoKSvyNALwPoB6AtVVgJUB0APqw4ALRCqIdYi2rbdeiVtAUCccB2A5LD33ntn/ELx2GuvvQKz7WWHY/r06WGjjTbKoHj1GD58eCkkBhcCogCgA6ACgPyngBcnEqAZAVgSoOUAKKqLmH1otwAIO/9X6EFFApQUsHUDpHLyAiA5jBo1KsOXqEerVq3CE088EWoVc+bMCWnhjDPO8N9QBoEvQ0gULgREjqPbTdeb23+sA2ALADv/r6QGqNt/JiRAawQUmwHZ2z8PpwIAIiC3f0YA7ERSAMCQ1BYAcxMvAJIDs+fsXiYe/fr1CwsWLCiFGsX7779fSnONtY4L4AVsleOAAw4IjmS2AMQBkBugLr4qApQX4QFoZK58aosAdQByMwIg+cNMZE1BqkVq/1spYB5S7X/WH5iDUA0xBqAAUAcADoALASWHU089NcMXqAcmN2mhVMq+rnj11VfDt99+G9LCBRdc4L+jKse+++4bmg7XAejW7UDZAWsEsFgFUMlfa4AUAZDkNftXKJ+WMwPiMzMRINMBqOgGaDsAsRQw/3WsAwAHoFWrXqu7EmCtvEA9evXqVUrz9v/222/nogPw8ssvl9wkqLY4K02HjwA222zPJTgAXHa7dt1/JRUAyofkxngEUJdqyZ+SAl6CBxDn3sxGALEZgUSArBog1UylLYBYCEhKgGuv3XdVCgDnACSL66+/PqMXiccDDzyQ6u3/oYceClkDbYNrrrmmFFLEbbfd5r+nKsYee+wRkoGPAMhpdLfZAmAEwOhbBYDkgAnrA6ACgFzKCqBdA8xEB4BQ0pcSoBK/JQHaNUDC6gCIBCgvAEYAHJqbASWHe++9N4OXiMfOO+9cqkOqIk91yoKlkDHocBx77LGpqwP27t3bR1lVikGDBgVHchyA+txWzwGQFLAKAPKhJQEqrBCQEr9ZBayuEJDVAKjkCGi3AGQHrAJAHIB6d6T6DoC2ALwASA7jxo2r8gvEA0e7tD3/uXlfdNFFuVCb3GeffcKiRYtCmpgwYUJwZ8vqxK677hqSgbsBktPIbeQ4RO9iL4C4/Q9PznQATAFA5GgEoA6Akj9jgDj561MkQAoARgCECgAOgwKA9ghzEggTPgJIFm+88UaVXyAeQ4cOLaW99//MM8+EPHQASPxwHb744ouQJuimjB492n9fVdpccTSdAwChvV4KeETkBTBcSoAxCXAJO2A4AEr8FUiAihaZ2gGXIwBqbiFGY8wBKD8CkBnQfnQAUrADdkvgtdZaq0ovD48NNtggvPPOOyFtnH/++eGuu+7KhXnPbrvtFnDxSxszZ84MW265pf/OUo4+ffokVFg6CZCcxhaAlAAhAsoHwJIAxZuzHICYBKjkn+kmQPwFdPO3HACqGPEA1AFoKAIa1gDFAWjdGrtEHwEkjRkzZpCUqvTy8Pjzn/8cqoEhQ4aExx9/vBSyB9+ldPLJJ1eN04K4kv/W0uWvhCbDRwDkMa0BogOAEFD//oevRO6jABApXiTAuACwGgAqAOwmQCZeAKpE1JagCCAsCdB2AGIlQIJqiKA66tVryOocFm2TxEcAbqziBKoqRM+ePVlbC2mDvXssc1966aWQB+Aex60RPkBIGT/88EP43e9+5783JwHmvgCgA6ACQGZAdL21CVCJBGjVALUJwMi9LkC2HAArBGTHAHHyVweANgdBASAlQHUAqI66dBm0OisTECd8BJBssthqq638xZZyrLnmmuHJJ58M1cCHH34IIS5MmjSpFHKA0047LbRt2zZMnTo1VAOff/55aYsttvDfXUpx8MEHB0fThYDoANRLAff57xqgVACZ/0sGWAWA8qUlAkoPIITyCoBVXwO0XgB8EpXsgFUAWBIgt38KAJkBqQDwEUCyJK3tt9/eX2zpe6hXzfDn1ltvZdOA8U7IAy6//HLOINx5552hWmDLYp111vHfXq7HWL4FQAeA8TaXXHEARAIk8csO2CZ/gsRPlFsDzLwDEO8jagugnBSw9QKg8oEDwCEgi6gtAKokcQCStQN29O/f319sKUbXrl3D7NmzQ7Vw6KGHkvzCvHnzQh7wt7/9LRMb2dNPP91/fynE2LFjQ3JwMyBGAPEWAHmvZct+2gKIOABmBGB8AHTh1uU7B14Ale2A9SDxCCCe/3MQVEMQIyQExGGhn+wcgGSBuYe/2NKJ1q1bo7UQqoXvvvuuxPx/vfXWC3kBZETOAob+3Llzq3oWqNb57zC5SG605HbAFAFcaiUFLA4A3W9txMUFgFUDjJN/3AXIeARgJYE1BmhRtgjQQ1WSAqYI0BYAI4DkOwCOI4880l9uKcVZZ51VVVMe9P8pOjbbbLOQF/zzn/+EA0GE559/PlQT06dPhxDpv8WEgrNMZpTlBYCkgCG4xyMAch8dAHEA+Iw5AITx1VEBoDVARSYdAPOXx6qASvyqYLZcogBQtUMBABFQBYB0ALp0GQIHIOEOgONPf/qTbwGkEPvtt1+YP39+qCb++te/8neHuv98hbzgo48+gpPA9wpjxowphSrjhRde8FXXhCK5dU4fAWgLAC8Acpzm/+S+eAtg8OCjf2KVAH9cAJSVAdZlPCszICMGFM0srB0wD0qlo+TPQbRrN/AX2gKAA8AIgKop2Q6A47LLLkv4ReHRpUuXMGXKlFBtDB48OHdyrfAfaB3rBlmFdUCrEsjcOgHBK5ewfvHFF0MycBIgK+1WCIicR+6DBwcHgOQPCVAdAI3N43wqjp0h/1VfCMj+xSoE1P5X8rftfwoAdQAoAqh+IEJwELEbIIdFByDZAsBxxx13JPii8GD+/sorr1Q1yWn9rX379nRz4HWEvICW8frrr68kEmQPXO0i4LzzzgstW7b03+gKxi677JKgloN3AOQFQGebHEcHgPV3CQHFmwDkyEpGQLpgR0qA2ZAAY/nBeBXQugFqh1HVDNVNXADEIwCqIggS6CVzWC1bbvfLZAsAxxNPPJHgi8L3/e++++6QBe6//359j3DIIYeEPCH27K/7z37lJOJ+AbmNdKSl3QwIgrs4AOQ8FQCa/5ezA9b+P6Hbv+0AZOUG2MJuAZgxQNkRgB5UBEBtAqgDwCH5CCAdvPbaawm9JDz5X3zxxSL9VR0ItOi7nHjiiSFP2GmnnUr6boj0oD+RBb7//vvSiikFuv5/snwW7wBwmaUAgAOgNUDE75T/GAGQE9mQI0c2tgoY51ldvjPzArCrgA2zCkYB5ccAUgLkweMtANYA6QBAAmzVqvdqyRcAjmnTpjXxBeGB/vwpp5xSQoo2K0XHuva/vk84++yzQ56AJXB8Xk8//XSm6pejRo1y4mumKpbeAZAOgNYAJX2vAkDCeBQBEgMirB2wOgDxGmBmZkC2/U+o9d+YFwAPah0B4QBQANAe4ZDkBZBoAeBAn57VsSa8JDyOPvrowO0ygIzb/8QVV1wR8gTEifTdNKKgU5IV5syZE4YPH76UIsBD/1bJF7a+BqgOAN1tbQGIB1CXF3+qXBh3AKwMMFFOAyAzO2A+rQYAIetCPm0BQMRugOoAaAQAQ5I2CQWAewGkcyPaeOON/WW4gnHYYYeFBQsWZJbNSKR1rcElvtNtt90W8oTf//73S3y/DTfcECOqkCUQChoxYoT/7isH45qU/p28AGANkA4AuY0cR/JnC0Dtf1sAWClg5dO4ACBy0P5XEVC/CkiLgk2AciuAhOyAeVhJAasAYC6y7rqbswYoLwDfAkgYJK/u3bv7C28F4ogjjsj8djRr1iw2D5b4Xg899FDIE84//3x7duHqq68uhYwBqx0hrB9vB3hg4DRhwoTgSKcAkBcABHdGAHS7yXmIAEkDwJoB2RGAyPVK/qb9n+0WgKoSCoC4XaECQEXAyJF/XDz/V8XDAcgNEC8A2iPqALgZUDoWqv369VvOF4TP/E866aSQh7Wo6667bolbLMls/PjxIU+48cYb7RmGXr16lbiF56EIwDegQSfAAy8JTKWqA98CoAD41a96/Fx2wOIAiARIAWAJgArpAMS6O+TfTMyALAOxoQOgMUD5LkA8/5cZkEiAFAAcEgUAxInECwAHqnX+4lsOQZRzzjknMya7ZbX37dvXfr8wceLEkCc88MADZYuoZ555JjdF8JVXXinBomYdFEKXXnppypK/vgUAn40RALmte/d+q9LtlheACgCFOAB2/q81QIoASwRUZOIFYFcAYx2AShyA2AuAQ+AwOBRWJOgAcFgQJ7p23cdHAO4HkJkZyg033EDCyM0KJwnffsf33nuvFHIEWsnl2uzM4OsQ8gC+x6OPPioxpWbL+L/wwgud9FelDoDlAHDpRQMndgKUEmDlAqChA0DEHYAsSICRDXCc/CsrAfJwtgCQHDCHUr8G2I8tAFcCTAlnnHGGJ/ilBGt2rK/lCccee6z9nujeY4IT8oQ333yz7KYJc+Z//etfIU/AUGmbbbZpdr9vCrTLL7+8itsZbgZk1wAZe2sEQJAXrRCQigCSv3JqgxlQnH+JTKSAFSoClpQD5gGsBoAKAD04hyASINWRpIDdDCgdXHPNNY3cejx23HHH8P7775fypt/QoUOHkv2u/M+++eabkCd88sknyAFXXKHMGfAvaFZaARRn8DQc1dcBYARAl1sjAAjwjME1Eo9JgBjoVTIECiGWAJYwX5VhRICi5D+2UTMgTA/iFUA6AF277r8SHACNAJwDkB7uvfdeT/QVyH4ox3311Vchb7jgggvKfudNN920lLcWLudnixVFu3btKhgnZc+vYBZOl6KWf+Nt2rQJt99+u9/8qwhW2cllXGrVAYDwzqWX/BevAXI5LuMFQNJXByAfQkB29UAViQiADV2AFv+HvADsCCBWAqQdgg4AJEBGAFRLLgSUCvBp94RfJjGxqpZHA5R58+aFrbbaqqJne94AYbJTp04Vz/q0004LeQRJEQe8bbfdtmaNq/Cu8OSfjRkQOU1rgIMH/2ZlTPBUAOy668jFfgAaAcRaAHYLQCv3fJJ/Mx0BqAiwq4B8UQoBJf/YDIhQ1aMiQCMAeQFQLbkUcDr44IMPIpKWx/bbbx9ef/31kFdwY4v/vaxue8ghbBK1xRZuhiGfQAwHzQcRLmsiGMk88sgjIVv4FgAdAC65dLs1AiBI/BqPN7YGSG4l4tt/NiRAwnwBFQC2/R8HlQ0PKCEgkj+VEAVAbAfsI4B0pVHrE4qv+I0ZM6Y0d+7cXOs29OjRo+IzDB48OOQRAwcObPTsTz311LwWAOoGILCEOl7hf+cQRceNGxeyg48A1AFo3XrgKnQAxAEgYjVA6QDIDCjeBLAjgHj0Xm0hIEXZ2z9RyQhIREBtAagA0BqgdACkBOgFQCpg1tnsb/1FUD678847G30OyGshhxg2bFhpaTfSyZMnh7wDPgPbF0UVDkL2+4UXXgjZwkmAdAB69Bj2KzoAWgOMhYDiNUDrBWALACsDnJUQkLEhXNINsDESoNodVD0QAMUB4FCQAu7Va8jq7gaYLrp27dosEz9z0DPPPDPAnC+CbDMKeo09zzHHHBOEvK8s2jjuuOMKMY9GJOfZZ58NO+ywQ+G0/V955ZWcHLBvAXCpVQcgHgGQ/LkQ2y0A6wNAxB0AJX4T2SgBEpr9K/SFrRtg/MBaAyT50wHgcBgB0C7h0HwNMB3079+/2Yme7LHHHpr1FwJjx45d6nPVvQxKRdWaoAv1xhtvhKKAovGiiy4KG220Ue5XBjt37pyjs3UOgNYA5QZIrsMMiNyHHL7yoekAVJQCVgGgMUCmHIB4FVBmQEr+CuYZ6gBI95jP2A2Q1Qi7BugFQDoYOnRos9l7hkFPMoXhX6RksyymTSSkHAKp3WX6t9l///2LpkTH6IJ10dySBOnu5UsdEvgaIDmNDTekgGUGJClgcQBiJUAi3gSwHYAQlvTjycoOOBIiIBpkC+MRAKIGKgBkBsRDE1RAHEa8BsgWgJMA08OJJ57YLFb72J+H5FcwoNK2LM+IVHHRuAtWi76w7PSXX365tOeee+aKUEvRiBCTI18jAGTtyWlcbtUBoOtdN6b5qToAav+rA0Ao+cfKuiT/WAeAzyw4AMQSWsT6Yka16P8sxwEgYi8ADoOqiBFAly5DVuewvAOQGrg51mrih/WMJ33p008/LYUCYubMmWGzzTZbpmf9+9//HnIIZJSX+d+r7t0Q5s+fH4oI+AGPP/44Jk2Zd9R22mmnErLQjvyNACgAGAFwuZUQUP/+h69E91skQI3G7RaA9QKImf9EZhwAqwPAl1IBUIkEaL0ArBSwRgDiALgZUDr4n//5n5pM/BDLPvroo0KLnZxwwgnL/Mwk2jyC+fPy/NvRqSkysDqmGKuTkS5l0RGA00Ph6MivDgAjADgAbdrsuDLdbnEAyIG6FKsLEK/OI6an5C8OgF3/q7YSIDAaADb5my6A6QCo2pEIEIdBVcThyAuAqsm3AFK7odG6rJlW/+jRo8OHH34Yio5//vOfy2VT++qrr4Y8gn+L5XkOCIEUbkUHqo2MPygEqrU6uPvuu4cvvvgiOPJbAHTrduCv2WwTCZCOd4MUcIMPgN0CMI6AJP9IC0BJP4M1QKs+pA4AEbcr9OVjJUAeUiJAzD+0BkhICdClgNO/oa2zzjqFTvywsWHB//vf/w5Fh9rJu+2223IJGU2aNKkUcogZM2aE5bXahRAoombRwXM888wzoe6dh/4+z5dKoLeAsFf+4VsA4gBwyeWyqzVAcqE4AJYEqA6ALtVEPP8nMrUDjr+ERID4kkr+lgNAqNJB/5gHlx0wh8J8hAJgs832/JXrAKQHZoVFFAOia8GsE/Ib5L5awq233rq8mga5JXx9/fXXYfPNN1/uf19GU7UGuCg4cA4YMIB11MSkfS+55JKCbVC4GyDdbYSA1AGQHT55kIAgT5dcHAC7AsjFWgWALQQyMQOKv4AMgVSpkPypXpT8xQHgIeNNAKogCgAOheoItSTXAUhfZEY3tCIE5jJHHXUULXLMZkKtAYe8jh07lpazA5JboiPueivis7/JJpuoo1NzIFmzQsiKJNsDcFZWxM3vkEMOwc8jOIppB4zYHYR38h0EeBEAyYk45do1QKsBoC5AzL/LbAsgXkOwPAArBKRVQD1wTAKUFDAFgEYAdAF8DTA9dOvWLddJH0vZIUOGhHvuuSd7i96U28UjRoxY7mKMGzY37bxi5513XqEC84ADDggUEKGGQTEAae/+++8PRx99dKBYoqNTzqKaQo+zPO+88+BJMCoKjmIVAOQxRgDqAKgAQAafHBjbAZef/yufjtUIgMiuA6AugEIdABUAlbwAaG/wkJp5SApYWwAaATQ/HQAXA6K9T1eCBIBwTzNZaeJZV6g1jBVwnhPlvvvuu9zPpKR33XXXlUIzgTomH3/8MXbE4cEHH8S2Nzz22GOliRMnUih40q8BO2BIgNIBYNwdCwGpA0BYEqAl1osMaEfwmUgBawyg5M+XNEqAZdcA5QVAcAgNZkCDV5YSIMxJVJSCI/uZc4pJn533I488ktsQVqyhOWHq1Kna+V/uQJs+x0Atb0V/FxSCIjg6HIUGY2yNANABoMtNrqPzLR0Azf9jKWBCOTQW1zMcAKJF5iRAwm4BEPEKIKHkz6fm/zEHoG3brVeSDoC7AaaL2bNnI5ObydoeM9CLL74Ybf5mS2SCy7D33nuv8DliuZtnYLW8gs+mAqeEQFAtweEcACkB0gEg78VWwMqNFToA0f6/PltYLl6WSoARCdCIABExCTBWApQWgOyAIQEyAmAN0AuAVMGtO/V1QIhdJKuzzjorPPfcc4G1JVqawdUYm6TFAD8iz7jwwgub/Ns5/vjj/bdSE/ARAAVAz57ktgYpYAkBaQtAyb+cG2BsBEQo52ZoB2xHAZr/8yUrSwHHGwB1c8yfcAgDBoz6BQciHQAKAA7N1wDT3z2/7LLLEisCuN336NEj/Pa3v0XPHtY+bX3zEncg4COhnBWNww47LOQZN998c5OeT14BKOw5HLVmBxxzAKQGGHMAIM2XcwOMb//6zGAEYMWAWiwOVSexEFAlKWApAcYjAHUAVAD4GmD6QDb3vvvuw0J0mef2JC/YybvsskuJ+f1VV10Vxo8fzzrbUtb0HLNmzQo9e/ZscnLE7yDkGA8//HBigk9vvvlmcBQZzgHo0WPYr2IvAHIeWwDkP3EA+OSSrORfrgCI2f+RAF+LzAqAhi8UdQFMxB0AigA6ABIBkhmQvAC8AMhOvOWmm24KsPCxFGUvHaY56nTc6E8//fRwyy23hHHjxgV2tbNhoBd/5W/kyJGJbF+cffbZIc946aWXEhsjbb/99jVAEHV4B2C7xR0Ach3KtyR/uuCxGqB1A+QSrRFAvAqofJulHbDpAOgLkfQrewGMHPnH/8fqAOCMhEECh8OuJFsAtaYE6HCwy51UUqTrkmews54kl+Sggw4qFbm75PAtAAjuXHLpAKgAQA5fq4CWAxDlUWsEZO2As1oDFAGwXghIZgV2DTAuACwBkDZILAXMIdEBqKECwOGgJd7kuX+RZHM///zzUuvWrRNdGT3zzDML5/To8AJAJMBevYaszhqgdADogJMD6QBYHQBrB6ywIwA+M+MAEHYNkLC3fwUPRwdA7Q4qIEYA4gCgksScRCOAzp0H/6/gcBQcb7/9dth4440TFV569NFHSzlfM2V+n+gzQwq8/fbbC1MEOBxo2cQ6AHQApANA7mMEoI64FQKSlH59B6AFedWaASmUj6sIs/4XEwCtDHC5DkC9I+BvfkQCZAuAeQkFgAsBOYoOrFrTkF1+4YUXQp7x7bffpqIzgWQuPBSHoygFALmMnAa/jQKAcTf5Th0AciI+ACoA4rxZ76mzJAmQTjt5NzMdAP1l8c3fWgLHXQBYjbYA0BZA7AaoAkAdgK5d9/ERgKOwQMhmjz32SEVfAaW8vBMe8cVP49k33XRTVwosFJwECK+NDoC8AMh5sRSwXHKVJ1UA2DFA7AUQFQHV3QIw7X9CXYClCgHxkNYNEB4ABQDVEYdEu8S3ABxF13fHuS2NBIhe/rRp00Lesfvuu6fy/PJCwA7Z4ShKASAvADoAWgNUASAhIG0BKPFbTl2sBEhkQgKslPzxAbDGBYQIDTygKh0emAfnIKQEKCEgDgs3QCcBOorq9nbqqaeWpPSXRhsckl3IObTymFIgF1yIc3AIvgWA3L1GALYAIC+KA2AdARWxEFB2ZkCE+cvFAbDJn7AdAJEeJATEYdAWoT3SpcuQ1SkAXAnQUVRhJWRwcfhLU14Zkl3ecdxxx6Xy/NYT4ZtvvgkORxG8AGIOALlPnXAlfxUAhCUAEloFjOWAM+0AWEGgclLAdAAIFQAqArQGSHAgrAEil8hhFbEAcHjyRwJ37bXXTjXpIdQEyS7vwP+hGgZTBx54YJg7d25wOPLoBRBzAMhx0gGwboCEkr/1A1BOlQhQEslfBUBiaoB8QX0SamHogSgAYDuq6pERkJUCLqIXgMNx5513pp78pYxXACVGxIo0Akg9ULCcN29ecDjyOgKgu43lPeNuch4EeBUAEgIiR0KaNzoAKgAiR8CGAoDPTNYAK60CxsQFSwKE5GBHAByGOgAUAByWCwE5ioS77rpLQj+pR9++fQthsHT33XfrO1erE1DKWxHg8BEAl1k6AFoDJNdx8UULQGMAbQJUsgOuxAOw8//M7IBVmcSWwJW2ADTzUAHACICqCJUkLBOplIrUAXB48m/btm3VEt1ee+0VigD29fm+1YyhQ4eW8jYecXgHoFWr3qshcy8vAAqAehXAegIgUU4IqIwSYPYkQCtAQGj2zyYAn5YAqE+rA0BQEWkNEKakOgDMT4LDkfO2P6z8aia5uvZgYRQQ+b7Vjv322y/MmTMnOBx5KADIY3QAKAAwBNIIQBwA3f5jDoBGAOoCyBAoXgPMkgNgiIANQkAUALb9LyIgDyYp4JgESDWkAoA2CYe1xho9fASQazjhDz1+tf2rGaNHjw5FwKeffioOQNVjn332CXnYlHD4CIBcBq9NIwAKAG0BSArY6gBYAiBhpYDtJTyTAiDuBtj5v7YA7AhAYwB5AVAAyAtASoB0AFwJ0JHX5I91Mtr0WSS30047rTBiSFqHzCJYEfzss89KweHIsAOApo3MgCC6Dx78m5XXWKPXz6wSoB0BWBKgHAEJ68ibiQ5A7AZoZYDjVUDJGxJUOdYNUEJAIgGim+wkQEcegSUte/5ZJX/i0ksvLcxZyRAoq2BjAmtiR1bwNcCWLbf7JTmNNcDu3futKiVAdQAaEwKSDoDdAijvBJiREqDaEnGlQuJXByBeA6TK4UGtEBAFACpJ2gKganIzIEfebrRjxozJ9FZL0H0oiiLiNttsk+lZEZ07dw5vvfVWcDiyKADIZRQA9UJA4gBst/j2rw4AoQtyuRGAuuqxCFC8CZCpG2B9lO8AlOMAqACwHADaIxAlGAG4FLAjT2C97NBDDw2S980y7rvvvlAEsKrYr1+/zM9L6onjx493K2FHJm6A5LTYDlgCeGwBaCuOLoAuy+VkgG0HIDMdgHj9gFjSFbC8DLCCDgAPykO3bt36/0UMgWqIQ7FmQL4F4MgDZs2aFfbcc8+sk5iiSHa4MPJzc24bbLAB2gReBFQVTgIkj1EAsOGmNUDpAEgISBoA5aWAG2SAYxIgnxlJAduk3yADzBeVKZDdBKDFETsB8vCxGyCHE5MA3Q3QkTXefffdUs+ePUkguYnXX389FAWHH354rs4Opca//OUvVRNScngBQDdbboBo3eB7o+RPLFUIyKwBhhAR79UFyKADwGfUfpAAEFG+ABAHgIeMRwDldAB8BODIGk899RTe8yKx5SUKZYNb95LK3fkxxjnssMNcOthRNS8Achrjbcbc5Lt27QaqA7DEFgCXZKSAlTNVBOhirUu3kr+JqqIiEdBKAWv+z8PFZkC0/1mFYCWCAgCGpAoAmJNOAnRkgYULF5auvPJKCfzkLYrkfsfGQi7PkBg0aFB4//33S8HhSFkHgJwmDkC8BUAnXFsARCU7YHUACDoAmSoB2uRP4rcFgCLeBIjXAHfddeRP+dQIoN4OuN4NkHaJrwE6ssCUKVPCQQcdJC//3AXCQwsWLChM0rrtttv43rkN1hRxcKToCw5HiiMAOgDkOG0BcPkVAdCuAPKJFHBMBFSOjccAikx1APgy+mKWAFiuABDj0a4B0h6hSsILwDkAjmqvrKHsp5Z/XqNjx46lIjgBCo888kiuCwCNBCArfvDBByFpOLwAIJdRBNg1wHgEQNgiwPoBiBBoRgDKvS1WJPRfLHfYDYClbQHEJMBYDZAxAB0A2iIcDlUSYwDvADiqBV78++67L8kg91EnHILATigKXnzxxVBGNyGv3RUIgs4NSBzOAaAAEAmQXMfIm+SvLQBx4/gsJwRkLYEzVQK05AMl/5j9r7BSwHpItf+pgliJ4FCkBMgWQLduB/7aOwCONDF37txw8cUXh/XXX58EUIjo3bt3iW5FUfDee++V1llnncKcL9GjRw/WBX0skBi8ANAaoDgAGgHEHQAlf1sAWDlgRgFx1z0TDoCqEOsFENsBWyVAuQHGZkB0ALQFQHVEm4RqyTsAacJJfg8//DAysYVKTMQee+xRqD32zz//vCTDpCIFXQtIgjgaJgGHmwHJDph8R9D5VgFATlyaF4B1AuQzExJgzD6MSQlK/OVu/+IAxB0AdJCpgho4ABQAI1aDMEHllHQB4HATn9dee412v9rShQsIikXzTtA2RdGiXbt2YeLEicHhaEoBoDVAutvkOAkByQ5YF2JUcpUrtQoYt/5jHQDb9q/6GmAIwYgR1GsBWCGgeBWQ6iY2PpAbIDuRtEVYA4QAyGEl2QFwOGbMmBGOPfZY2fcWNo444ohQNGy22WaFO2cEgyCFOhxNlQJWAcCG27rrbr6y7IBFAoQLV68BcPRPyJHkynIdAOkAxEVAZkqAlgSo5G+DhyHiLoCkgHl4CgB2IutbIvVCQK1a9V5MAnQpYEcSnvSnnHJKSbfQogdmRKFg2GGHHQp3zqeffnpICg7nAJDTGG8z5mbcTQcgFgHiU1LA6prbXCq1XT6tBkCWZkCRKxGf1gyoPAcAHQCKAK0BogPACqB3ABxJzZ7POecca0db+DjvvPNC0QBvoUhnPGrUqNJ3332XSKHl8BEAvjZyA+zZc79VxQEg98UEwHgNUF0AiQDZMYA1AcqCAxBFC2MJvKQSYKwDoAJAOgDc/mFEciC0R+QGqA5AqVRaLtkzh7f6zz777NCpUyde5jUX11xzTeES08EHH1yY8+3bt2/pq6++Cg5HU0HuikmA1gxIJEDlQwoBCoBKmwCWBKjuu5J/JiRAawq0tDVAEQDjAoDDEAmQQ4qVAOtMO6aEpcDh5L5p06aFU089tYRQTi0mfsWdd94ZioYTTzyxEGfbpUuXMH369JAEHA5yl0iAPXoMWywEpAKASy8dAPJgrAbIJdkWAPEKoPJszAHIhACoxB93AAjd/gk7AlABIBEgtgA4BBUA7EhySIwAlrUAcLiIz+jRo8U0r/l47LHHSqFgOPfcc3N/royKfOUvaXgBgJaNRgBsAcABoNvNxZdQB8DKASvxm4i8AEJ8+a7qFkDZEUC0/79MXgA8uAoA6QC0bbv1SjAl0QEgGAH88MN/3goGDpftfeaZZ8KBBx4Y1lprrWaR+IlWrVqFF154IRQN1113Xa67MhtssEF49tlnQ7JwuN7IognxGqC8AMh1dguAIkAkQHv7t6HLdkz+y8QLIA7N/60OgF0DFOORTx7e6gCoA8DchOqJQ+QwHQ5ms5jL7LTTTqXmlPgVPHMRb6n33ntvbs+0TZs24Z577gkORxoFADmMkTY5TSMAuQHCAeASLCtgQlsAce6MpYDZAjCrf9mNAawVsNYU4g0AQqxGkQDZAFABQMQjANoksgOmdfLtt/N9Gbd5t9ECcrLM97fcckte2s02kNSdOnVqKBqee+65XJ5n69at2fVPRVnR4Viw4PuH6QDIB4AtN7YAtAYoO2ARAMmJdAE0MpcToLR19Bl1ADJbAbRugPEKYFkSIMpGcQdAOgAcAtWQOgAUABwWBQAjgOZZADgwZHnwwQdxaZN4T7MPzuGbb4q3FPP6668jrJM7qd8bb7zRk78jRa+ReVeRwygANAIgx7HyDgmQ/FfJC0BrgCoCxKkTCbC8EVBmXgDaABi7RLUiO0N1AVQAxG6AIgFKCAgOAFoAtE26dt1nja+++vovwdFs8M477wS/7ZePtm3bFjJhffTRR7kiaTJKufLKK4PDkSbIXRICIqdxuSXHWSVAEQG1BbAsZkCEHQVkpgOggkAFgO0ESAkwtgPmoWUHrAJAYkBUS+xN0j6ZMmXmUaGm4WCFD6IYO9gQ3TzZlw8kdYuIL774InTo0KGUl7b/9ddfX4VCyuGaJJ8dTgGgEYAKAEYAzP8pAMiBsRlQXABEIwCjAyDvHSIDKWAlfVsA2Pa/XQOUHXDcBZAlcL0/8uD/jgBkCPThh1OGBkdNSvSOHTsWYx5Y2J7glyG23Xbbgs5CF5Q23XTTXIxQIJHCK3E40u9mfjCI2z+5jA4AHDdGAFoD5PIbz/7VAVD7Xx10Xap1yTYjgAwKgMgPIF4DVNgCQKE1QBEBtQ7Yv//hi1siFADsSWoEwOE98shznYKjJsR6Zs6cGe66664wfPjw0vJL9Hr0798/FBXdunXL9OwYQeDx7zd/R7UwYcLrO3D7p5vNxVYdALX/2YATIV4uuUYEKBICaqHkLyXA7L0ACCV9KwRkCwC1NlQA8LAkfxEBBwwYFYkB1VsCQwQ877zr1w+OQmPy5MmI9YRNNtmkCS1+DwiRBQXFS2bnxvhh3LhxweGothEQm2zkMnIaGwBo3ZDr4vm/9v/5jJUAlUPtGEChxJ9pByC2ApZTUbwGyKeVAiY0Ahgw4OSfyQ2Q9giHxAhAfgAcoKsBFh+aBU+YMAH2dTjhhBPCnnvuGbbYYovQsmVLT/DLEGjqFxSINmVyZl27dg1vvvlmcDiq7QPQrduBv9YIgNt/XABw+6/LiSIA/ncEoORveQDKqeoA5GINMA59Kc0qrBKg5QDUFwHb/UgMSDwA7BNpn1AA1K4YkI8FFi5cWMK5b/z48eHqq68uHXPMMWHAgAEUBmZ1zIOiqag48sgjq35e/I6y0k1wuAgQuUsbAEr+WgHk4qsxOLmwsRGAPHYiH4D45t9CnxmSABtEgNQFKGcGpBFAbAqkAkBrgIwA2ASIOwDsUwZHsxL/Yd+dlzciMtdee22J5Lf77rtj2BLWX3/9ZlkAnHnmmaGo+POf/1xVyeSjjz46U80Eh2sAqAPARbZXr3oS4MCBQ1ehA8DYmw4AOTD2AKjsBqjbf4slHAH5zGQEYG//ClUpSv6SAdbDxYQHiQJxGOoANBQAu/5SHYBPP511ig7W4QJBn3zySXjppZdgdIc//elPpSFDhoRtttkmtG/fnjWvmi0ALrvsslBU8N2rJe17xRVXhEWLFgWHIyuQs9CxkRGQZIDpArACaAsAFQFEXfezrBWwQqTAzDgANvnrky/Fp+UBELEWgB6YNQgOgZAaYL0Y0HaryBGQA2SdIiwFDsfs2bPDW2+9FR544IFw0UUXhSOOOCLstttuoVOnTowTQtEJiLfeemsoKu64446qzPv/8Y9/BEce4CuA5C6pAHbv3m+xCiA5jgKgZct+P40LgNgIiAIgLgJi8R/lWbsJkIkOQPwF7AqgLQAIjQDEA5AM4hprNFgCc0h2BOCbAI6m4uuvvw4TJ07ETz+cddZZEOpCv379wuabb44sbCEKAAqbouLxxx9Pde1z5MiRpVmzZgWHIw8gZ4kDQAHQp8/+q5Hb0LvhskvOq5fEr5cB1gZAnC9jQT2J/8QFgC7emUkB86nQF9NGAKuAPIAeRiE1QEkfcgBUQhAjIEisu+7mK6sDIC0AWim+CeBIw1YYkRo6BxQH7IlfcMEFdA4gkHGjzBXfAD5EQcH5pnEmjH1KN998c25a/g4HFvao2FIAcJGFBMiltt4JcOAvyHWMAJT8yYVq/1sCIHmUqL9gt7ArgNmbAekz+oKNmgLFWgCqgDgMDkYdAHgArAKqAOAw3RSo2vANhblz5yJeFP71r3+FRx55JFx++eXh5JNPDkOHDi316tULaV4KhKqsMTLCePXVV0NR8eGHHya61cGZQwqdNGlSKTgcOXQB5OKqAoDkj8gdXDdGABttdOjPlfw1Elf7XznTqgCKBGgLgAw6ADbxx3OJeAzQYApE8HBUObEngDYBaIvQHqELQAGAcxJdAGYoHKQTAR15KxDmzJkTPv744/Dyyy+XUDiEd8C2wgEHHBDqCoRSx44dSyjQkfiSkLF99913C5vspk+fHjbccMNEkj8qkldddVX47rvvcnkeDicAUgBo/t+ly6DFGwDkNgoAdQAIFQDkQ3JjJROg6OZvuu8ZkwD1BTSjaMwTQETA2A+A9j+ECFYBYzXA+pbJb/67CYCsYnA4CgQ0DmbMmMHNPTz88MOBpFX3n4/SIYccEgYNGhS23nprJGohJy6ti4BfAmuRBXZG+4qOSZNv/aNGjSpRdDmKACcA0gGgm01nmy4AF11yHckfI6DYBXDw4PoCQPlS7n8xB8D672RXADTBFIhqR0WAyIAyBZIWgEyB1AEgUFcKDkeNdRIQQsIznzHDLbfcUkcgOi8cf/zx4aCDDirtsssuJbgIW221VYCrUFRwW2+KH0Dv3r1dztdRCAXAzp0H/y/yFSNsOgBcZikA6ABIBZBLbywCpM74kh2AsXYEYIsAouqoWADw5SQERFTiABBqe6CGRPKXKZDUABkBUD1RAMAD4FC///775/0n9v+xdxZAciXI0R4z20ezs7yCZdDeUsjS3lwoQnS08tEymJmZ2Q4wM9tBZma2A8wMCjLbx4w6hvZ83fftVJfeWxR0z2RGVLT+39z95lVWVVZWsJ2AuI3keeLECV4uS010Dh8+/Kg3AQ4dOvRexJkbf/tp9wdL4QDo/j8EwENAFLWMuCEA5Do7ABIAkv+Q+U832DP66t8Z1AAMrwN2IyBCBtOPAkkAJAESAHUAsCW+NMQTJH9iuXUAQRDccccdj/hmP1sYv/EbvzE1fgqCZTQAkgBgA0z1T3ELATD5KwKEAIxdAew5tbT7F4MASALGrgN6D6D7AXgauLoBoo7kS3IMYAeAq0o7dx5ciyFQECwvPuMzPmM06V900UXT+w9f+ZVfiWZiuqIZBMt4AphuNQRgff0TVxEAQgDIaVUASM67/fYv/LAqAOwHgBTSm0uJVvmbd88OhsSA+gD0jQATv5bAbgEYfCm1A+AqYHUEPHDggXOjAwiC5b0HsHv37ulWBBsB6+vrkw0b5/d+93d/9+Tv/u7v3otocrKkCAK8aqj+DS2A6wYAOU4CYO4b9f8v4j8/h3LuWR8B1KNArv6NHQXS5rAeBaL9jygCN0C+JL4sGBPiCRgUrZT9+2cE4M1vPvELkwVCEARBEOBVQ46iWD3//ANP4aItOQwbYDrb5LYqALT6ryTA5G8OlQT4SSwOAWgkoPsB8NnvAegFoCUwXwTBl7K2dnB6FIiDCToCagi0Z8+Rc2BVL3rRy79gEgRBEAQLZXb1ok8gR1GsMrqmeHUDwA6AR4CY/ZP3PuVTvmFaCBPmyX4BsJrs9Q7AwowAijvRSUeBiE4C6hpg3QTwKBBfWCUA6AD4cr/1W3/giowBFg1BEATx/2f+jwkQo+urrz660f4/8AS62Yy2mf+jczPX1SNA5ETDXNlXAMmrJv2F6ABU9nGyMyBRjgKV5E8gAtQRECaEKhIfAIUS2gIrBFxbW19FCMgXzKrFZDEQBEEQpP3/Byb/egOAInZ2A+DW6fyfC7gkf8IuuJtxJv/m/je8+8/nIqC3I+wGEK4CSgK6F0C1BHYMAAnYu/feqR8A3skKAekC8OUyY8kYYFEQBEEQkJPoULu2zgYABEABIB43VP8k/jr/ZwRALqQ4NvkPXQI0rPgXYgtA1JaEjMX2/5gh0MrKzR8oA/IoEF9OXQfky3MbAFEFzCpjgEVDEARB2v+VAJD8yVuMAKoDoP7/hGNwxX+uANoBYO6v+9/KSrv+t2AY3Agw+fNvk7/hOiDBl8AXYmvEbQBGAIgocAWkA+Aq4K233nX+2XYFDIIgCAI202j/E7b/9+375CdpAOQFwLoB4AlgR+GdBFQzPT5bfjVWiLO8BTBsCaxqUSIwdBSI4wddB8CZRAmAfgAHDz4wvQrIJgBjgGuueda5MQUKgiAIFkH9T2FKbqL6hwB4AZAcxkjb/X8IgGMAHQCH1P81d5pTa+JfOALg7L/rAPoIoK8DEjoiqQPgy4IAOAaop4HtAkACzuYYIAiCIIj5z003Pf882/8eACJnOf9H1E5OI/Ez6ibXeQHQQti8qHNu8fyXBCz0CAC835AnAMylnDScMwOaJf9NEsCXw44k7RIJAAwKNyVmKny5uiytr9933ute94ZvnwRBEATBWWr/k4vISRSoVv+Y/6D+J3/pAEhuqxbAG5c+P4T8Ry7cPP+7clIHwPW/fgRo4UYARLtYVI4CzfsB+H+4Qog6BoApVQLAl4mgAmtF/ABotfCl47s8CYIgCIKzgJ//+d/dRy6q63/o1uoBIJI/Ra0EoFoAD+3+E9X8Z8gAaKFGAJUEGMW8oBkCzXcB7ADwhUgAtAWWBPBl0gFwHRASwBiAL/5tb3v7X02CIAiC4Ayf/rX6JycxAqBIxQLY9j/zf3IZ838M76z+HX+bB10DJEj85EoKZ431zKsL2wEYCpWM6gAcBUgAqh+AXQCqf3UAhDqAHTue+wQJgOuAqC7/7u+O3z4JgiAIgjO8+48Wrc7/KVTZAKBzLQHA4h4CoP0veW5MAGiYO7vlr58LuwXgnML/t//HjIsBZ1HXAWmVrK1xHfCzHjwPTKAFYM7Clw3jggAgwIgYMAiCIDiT4r8bbjh2vu5/EoCZ+E/3v+d+1Orq+lT9j75N5b/at04AHJXzSdhJHxgDLOYIwM+mWDzpNHA/D8yXoS8yBEBbYJgTCkpsFPlCdQWEBPCl8+XDwF71qtd95yQIgjOEIEj1T/FJDrIDMDv+c88T6/lfSAAEgJxGbrPTrQbOvX+iVv9Dyn9z7AKOAIbHAXYEHAeMGQL1DgCfjgHUAnAdEHEFBxYQWjAGkAR8x3f8yNVnogsQBEEQpPq/6qqj5/Xqn+IU7386ABz/cfff9r9FrkWv6/Ani/8Ij+rZUa+xoOhdAEcAfRtAEtDFgHw53gZgDOB1QDoAMKrqCVAJAM6Ap7sLEARBEATkmsOHP+l88k81/3H3X/W/53/JY/PzfzsAdQNg1gFo+//L4QEgRo8CtTGAyb97AtSVQFomfHkQAMYAfKlaA/NlKwRkG4Af43TeBwiCIAiCd7/7PS9m9Y/RM9dpVf9X8x+Sv+Y/2P/WA0Ac/3H+b/Jn9x8CoPK/jgBGYmUhRwDdD0ASYAfATYDeBbAlUscAugJCApij8KVKABADQgI4EOQ2AIKM02kMFARBEKT6L7P/ov5n/o/5jwTA9v/hB2//SwDYeuvK/zb/7wSA+nrxCQDhzGJeDLgyag08dByIDgAkoK4ESgDwBEAMyK6l1sCOAU5XFyAIgiBI9f8zP/NbH0v1T1D9k4Oo/kn+VP+bzn+zy3+1+rfyJyoBsPIn6higF9R8LjwBGPMFqF4AnjqspkAKItwEsANAVB0AYkB1AJgurK2tTzcCbrrpvvPoApwOLUAQBEGQ6r+K/yAAVP90pAln/yr/9f9X/Mfs39a/c39zop1yP+vMv1f/Cz0CMNnXf9eVwBnDmX1KAAwYEkEHQGtgvkDaKJIAGBZKS77w9fVPXK1dAFyZ0gU41QiCIEj1f/31t11g6x8CwAiaQpTVv127Dk01aqj/Tf542VDMdutfi94xA6BKBoYT/+JrAObIADHmDOiXYHgeWEEgJMA5Cl/uc5/7CU/gy2bVojoDKgaEob3iFa/5uskpQhAEQZC9f3KLyZ+cQ+5hFA0BMPnT/idf9fa/BkC2/+0APJz4b9j+dwlHADIao98GGNMC8AW6EYAngFoAPQEgAQgxvBKIFmDjv+aCDcZ2fPI4EQRBEKT6J6co/oMAzC7/3fYU9GhHj977JMR/EICZ+n+m/CdvSQBM/kP2v44AIAF1DFALaj+XAv0wkP/vcuJwsAuwsnIzrZFBMSAEgJUKvmDFgJCA2gVwDIBA4/HeCAiCIAiC//zPF31CTf5W/yr/6Ubr/Eee0vrXUbYEQOt7K3/ynzmQvKhYfihvbsTK6Qj/cUqjawH6qeA6CpAAdE8ABBOuBSoIZKZSNwJQXWoP7JlgAgKAIPDEibf+weQxIgiCIMi9f2b/5JR69Y+gA63zn7a/nP2lYO3tf7Rt/eofObDP/XvbvzkBLgeacGFujQEBIDGmBagngt0IICAAiiv4oiUAY10ACACGDREEBkEQBI8W5A7W/mj/k1PILWydsX1m65/kv3v3vo/W+pc8ZfKn+mfv38LW6Ot/5sIR8d/SaQBM+mMkoI0BfnGOALgOaBegOgMSkgAYl6MATjCqBdAimJYNeoAIAoMgCIJHC3LH3r3PvxDxHznF2T8EAOEfJ+pJ/hSk6NMYUUMArPwN2/81+UsAWuL338OJf1kIgEmf6P/WGKiLAYdIgIJAOwHMVRgDoLJECwDretrTZs6AMLL9++8/xzYNGwEwN+Id73jHX06CIAiC4FEI/wjb/xSXONDS+vfsLwSAkXSv/slb+v6b+AlzHQTAApjPh7P+XaIOwHAnoB810AvAOYidAHyRh0YBWgTX+wBdC8AYgN1M9QB0AK644uj5v/d7f/6MySNAEARBEDA+ZoxM8rf6r57/jJ7JPbff/mkf485/bf2b/N39JyQACgANdXHmyZ78l7UDYIwIGoZ0AN8weCTI5M8IQJaF2OLYsU+drgWygnHw4GwMQItmtqt59/RGAKMAWFxGAY8EQRAEcfxD+EcBuVn9HzmH4pJCkyD5k3swp6MjTW7y6p8+Nlb/iv/Ib60DUNv+xErNkUs9AjD5G3W+0WcefiH1s44AqjNgdQeEBNCC4cdgJmMXoJoD6QvALOdtb3v7X02CIBhBEKT1v2fPcy8kbyj80/Nf8R8dZwnA3r0z8Z/Vf737X53/DB1w9f1nHF6tf41h+98lHgF0RsOnHYB+KdAvSxLAl0lUEoDgop4K5kdBC4AgEAJAu4Yfj4DFQQKyFTCGIAiCqP5t/esnQ+Wv5z8dZub/zP49+Uvs23dy9Y+jbfX9N8xx5LxZzDv+VT3A8hOA3gkYHAfMhBBEPY4w5AzoFwwBcByA+lIhBj8MJIAfig4A95pp3/Bjwuho6/RRQBAEQRD8x3/835fQKdb0Ry2Z4j9yi3v/7vzP5v8HHzz5W5O/+UuTO5O/Oa51xMdb/stOAGo3oIYWwXYB/FJM/gbJX0Gg7oDOXPgB6AAQbATYBZAEVGMgCADtnde//o0/wQ8eBEEQBOQEkj95Qsc/kz/tf4R/jJm5Rkv7n+R/5Mh904008xGf5Cij7/0Tqv4N818XyxNbjQAQfb7h/KM4A8qO5gWBkgA7AEY/F4wgUHdARBv8gBIBflxGAV/7tT9wNbOePPZBEASZ+5MTut+/jn+z6v+Tp7N/us3kGi1/3fu3MDVP1eRf1f/VCdcceOb2/xdgBGCY/A2Z0ZAWwBsBhN7KhLMXWNjq6vq0E+ChILUAbgW4FkjA9KIHCIIgAJn70x127U8vGQpHCkku/in8c+efMPkTrqqb/Lvwj0873PrgDORDAvC55dBFgZ39lDEAhEACMN8FkAD4edttn/LhzGD4QVBkuhbIKIAfjotNsDgIQN0KYBRw/Pi/f+okCIIg2JYgB5ALtPu1WLT1z8EfhH+0/skvzP5nqv+bPty5v/mIeX8nALb+q9dN9f83F7bYunioE8ESgG4P3H0BCL94xYCyMi2C+cH44fQG4AdVEIhLIF2Aa6/9uIvY+ZwEQRAE227fn+RP5U/r37W/qvqnm4y2jJxC+3+WZzYtf13763N/utb93G/d/6+rf00IuLVRZh0DnYCVuVPBGidsEgDXAjfPLCoGrMeCsAi2C8AoYH39E1fRA8DsNAfC3xkScMstd1zExadJEARBsK1EfwTVP3mBDnF1/CN3kENQ/UMA3Pln5NzP/VL5D6/9rZSbN2rdBs1+tvoWANF3HvschP9/CUDRAQxoAfQFgIFtmgPN7gSwGuhaIAyOgNHB7AhJAOMAGOD7RIHHJ1saQRAEAe963vkUf1jFkwtq8idXICTX7tdrf678WXR2xz9X/k6u/AlJwLzxz9AK4JYnAMNRWyGzbkD1TO6jAHYtbbuoBeBHwZNZAsAPh3gDBSdaAH7YodVAWCBnH7f2ZkAQBEEU/4j+eOdr90tB6LEfCACOf+QNVf9U/gQFpoY/zv2Jrvon8Rt1vM1nL4J75b9tCEBrffRRADG4EWBIAOwCEPw4hA6BrGvwA3IyGEGgDoFDtwJCAoIgCLZ28ucdT9d3Vvnfd56J37m/1T85g+rfyt/Wv/v+utNKAPD6r/mpH/oh/PdQDtwWBMDw/9g+BzH8suoowCuB3SHQ9QtHAbA0tQB0AfgBYXIIOSQBdgG0CfZqICSAy4Fbaz0wCIIg634kf2f+qv6t/mvrn7k/GrI697e4dOdfAkDyt/VvnlK7ZgFb5v7d5nebEgBjwBTIT7sAbgbUcBRQSYBiDM2BJAGuBeoSyGYAosC1tfXpaqCbAd4LYC4UEhAEQbB1kj/vdLa+htr+5ALa/gj/uCqr1z8bZeQQi0o7zSZ/8093/OvVv3mtVf4hAGNfiFqAeQHFMAHQHZBQDCgBIFwNhAQg6mCvEwLAaiChHoBRgJqASy9NJyAIgmArJX+qfyt/3vfu+5P49fonR/TWP/mkXvsjJAAK0539O/fvYY5bgLn/YhIAYuBL43OQAPDFM3dZWXErYEYCJALMa/jh2NmctXBu/xg7AbR5SP60fZj9wARhhDBDuwDXXntXOgFBEARbKPlb/fPe5/1PHkAgTuJnVEyOoPpHSL66Omv9O14m2s5/W/nrpj+0+09K/Ea5j7ON4Rcz5IqkHsAYEgRKBugE8OMYdTWQH5MuAKJAfmAEHnQCYH6VBNAJwB/ATgAPznKSgCAIgiT/jUR9Me/y6vNP6PSn2x+HfsgL2Mk/5zmfO1X8s1FGEYnwTwJQ1/6q8M+5v2HOGhH9WexaBG/HDsDwZkAPOwAKAtEF2AXwB3AkUC8G2q7hB9QpECJAewcSsGPHc59QOwE6BaoH8HLgRufg4uUiAUEQBEn+jHK1+aWwI/H7nscYjra/in9ygnN/8sSs7f9p07Z/tZ4n+Vv995l/tfntgr8R4x8iAEPmQJomELRSXA0kJAGGmgDCrQA+1QRwvtFOgF0A/AGY+/AgDHUCIAGXX/7MCzb+Yxf+1E/96q1ZEQyCIFjsVT/e1byztfklVPy78sc7nxO/Kv5ZF6c4pFAkV1j1m0dcOx/y+q+t/zK+No8thOHPwnYAiD4TkQgMOQT6ZXtekR/BboBdgLqjWdcD0QNAAAi0AMx93AygE9A3A+rhoF27jl20+CQgCIIgyR8dlx7/FHQe+XHuz/gXAkAesPon+av6hwCY/MklkgBzDdGFf7X1P0QCBnRvgYnfGCIBdQxQiQAxZBDkZoD7mlUPgJUjnQBmPc997idMOwEeDSL27NkUBboZoGsU4wAesMWyDQ6CIIi9ryY/RBX8kfip+kn8Jn/e+SR/8oBtfyp/5v7kCZxlTf6umpP0x4R/fHrm1xFAz2EDG2/pABh9NlJDNtUJwNBqoF0AwuRPcLyBH7iuBvLjezMAIUg1CiI0ClIYyIOFMPArv/J7rnvta1//U5OziiAIguANb3jzL/NO5t1M5c/Y1tv+JP/q8e+6H4p/CYAnfukQa/gzq/i/8MMkAeaWSgC0qh/aXOuj7F71hwAMRfMB6KeDN7/szX/zaVQS4LymGgTR1oEIaBXMricEQE0A158whPBwkA9P1QTwgNEJQF36ile8+nsmZw1BEAQ56cu72OTPO1q1v26v+vsj+KPQI/FDAJj58/4nF6j4J/lb/Sv60+lvaPZvHjIvdSJg0h+v+kMABsPqv58QrhbB1R+AL7xuBlQ9wDwJmI0DYHswPwIWyMOgRwAtIlpFkIBqGwyrdDtAXcDx4//+qdkQCIIgOLNKf969N9xwzyUk/672Z4zr9VcU/xR1iL7d9Wf8y3vfyp/usN3iqvxX9De27y8BsP1v6/8Uqv6jCSA6AdAqGMMFfwjDH8q1QEIS4ClHRwGSADyfXQ+kRcQD44qgnYCqCXAccMMNz78k4sAgCIIzK/bj3Us3lqKMWy62/Un+Fm+8xzH64Z2u4E+Pfyp/j/xo+EOQK1z3o/rvO/9Dyb9W/H7678dQ/acDUJN+DwkAX3r1CBg7HewPyo9r0AmodsEEIwFPCDMOoBPAA+QD5TgAcYkjAUjAFVfcdvHp1QUEQRAEvGOd9+vwZ+K37U/iV+2Prgu1v4nfA3Gq/Un+7Ps797ftb+U/fuXPInR4578m/RCAx7gW2NsnfvpvScD81cBxEjDkFEigAOWBoCWEWyAEAMZYSYD7o31FkAeQBxHrYEYC//Ef//clGQkEQRCc2pb/i1708m+y6mfVz6qfYozuLO9mtric+UMAeIfXeT+Vv6Zwdd2vnvbt+/7mk3rdrxr+mJdG89WjRyBjql/s0GdP/kRVaHaXQHc6JQFHjtw3FX+wHuhIACKwa9ehj9l4MJ7QNQHE0AEhuwEIUjISCIIgODV429ve/le8U3m3IvRj/GrlXwV/te3PO5uZP21/kr8bX96GofAz6r6/t/1p/fPZx8sm/hq1wtfi9/Eb/mQEQIwmfkL2VUUYMrTSqpl2AnQJ7DcDfAjqeiABU2QzAI9oWkgQAViltsHdK4BuwEyB+sB0QwCmmi2BIAiCx1f1P/Wpd+5gzErlT/K38q8mP7b9Sf60/dnzp/InGOt62pdCj3c973yqf8V+msf1yn9I7V+tfnvlXwXrRgjAKYgxZWW/F0AgDCT64SAYnaJACQArHzBALYNhiIhDJALMjvAJQBzIg1W7ATt3HpySAEYCtKF4MNlB9ZogCtV0A4IgCB5b1c9YlYKK96nJv878Tf4EO/6s+eHwauJ35q/avwr+zAEmf0zkOCzX5/3V4c/84mo6ny2qo20IwKmKAWa1UlmX0S8HVrvg3gmA+VW74CoM5KGBAPAJCSB4sOgEwDKJ2gkgIAEEDypEwJEA3QCY7CPTBgRBEGTWz7uTqp+CipY/yV93vwMHHpgmf+zbKcjozqL2p1CjYKPtXyt/z8PX874Wgqr9u9jPTxJ+JQFGm/Gfzlv/IQAl0Tc/ZVcwjHmm1i8HaudYSQCOTwZtIQhA9QngQSK8HQAJWF//xOlDJwkgeChpSzkOqKuCtLFgtLhWTeYQBEEQnDjx1j/gHXnVVc+bCv0IEr/Jn3erK9m8b1X6e9WP9zOFmslfTZcmP9Xid0jxX0mAejI7ACWveJzORD/YmQ4BOEN6AP/dDYL8fw91AQyNguoDIUNUE+AFQc8I01pCHHjw4AMnWQfrFeCqoCSAs5TMsBgJ7NjxrEswsMhYIAiCYObj/xd/8Y93k/id9dtF5R2qyn+z5T/z9Xfez7sYrRbvaNX+dc/fm/62/e38fsqnfMODyb+3/h0j9+6yRSZ558zt+ocAvN8YEeg/RPUGMGRxM2a3Mv10HODxoAMHZqsg+gR4QVAWCQnQMRASANvk4aPtVEmAWwJ1Q8CLgo4E6AbwsLMyuN2JQBAEafdb9TPrN/F70IeCaubrf/eaHVeqflb8qPxp+1v1s8ZN0ba66p7/TPDnqJfgXe+9mO7tP1/120WuDn+TnvDPqNtfULyV+7xFYYbRRwF+VnMH/j1bEbzmg2kHwRB5SGgVQQJmK4IzIsDDRfCgMWciUJtCBHggaUkRdgN8cHmQ61iAhxwisEEcdnzFV3zn9WwLhAgEQbBdEj/vPAx9SPwmf419eE96w9+qf0jpzziWde1a+Tu25X2tyY+VPyNeTeFM/uaAsQM/Jn+3zMw3Z37mnxFA7QT0L/9hxwF8jnUCJAE8GJUp0jaCAHhFkBUSuwHeDiB4EFGf8mDiO107AegCeJB5oAkfcJ2s7AYw+woRCIJgOyR+3nsUQbT8PeTjvN+Wf9/v7/N+L/qR+Akqf5L+2pprfrfT9ifxz3n7EzXxmwvMFxKAfuWvW9J3ImCEAJxFm2BXBusP5yxnTBOgMLDeDui6AEUkzJUIiMAGa53qAnbuvPFj8AzAL4A1QUmAzNVNAQWCnhZ2LIA2gD8IIkQgCIKtnPid9fP+q0I/3o0m/rrix/uUxK/BT/X0pxgj+VPxe8vfmb+HfRzv8l7vJ30Ni0Nn/xaNI4n+bFf/IQA9uhLTec38icZZ9JsBht7PdALUA9g+shsAw9RNCqEJIwEeQK5LwUjdEqhEQDKgZwAPOUEn4OlPv2vKfiEC7Lz6B8LnMmsEgiDI0R4S/zd8w/fsueGGO3fyXnOvv97tJ/Hb7jfxe8PfxH/gwN1PQehn1e9BH6r+ut+vwY9HfXR/1dmvEwDV/jU/1NY/UXLM0BggI4CzGFb8o8LAkvxLtJsBLbptsHcEfLg2HqApEXDOVAWCCFK8KFiNgyQBrrAgboEE8NmvC/IHIgngDwcigDHGJAiCYAlMfFD18/6yoLHVj4e/1b4iP5K/70UTP8UTa9YI/XiXkvzd73fWX1X+7vlbsNnF7e5+hG1/cwAVv599BGA+qf9emHZ/CAAxPIfpYsHK7IbdAodHArpEOQ6QXWofTNsJFophkGIUhCk8rHYCNA7ytDBrLGgDHAu4LQAjlgzAlPnDkQwgGNRHIF2BIAgWsc3/G7/xp8/iXeW7y+Cd5jvOMagd0dru18tflT9hy99jbRRc3m6xKOOTdr/vawgAwm4r/jF7X6v/WYxe9fPfdgBCABYsBr2Y6+fJoo55TQChQJCoZkGsCvaOgA+c2gAYKIzUkQBEoI8E3BTYv58HfSZsse3laKBuC3BXgKArAIOWUe/Z85ydeAnEVCgIgrOZ9K32Sfq2+XlHoWtivo8HCmNO1/oUQ9d2P+H2FJ+8KxFV6+rnIR8Sfz3l67zftW1b/oauryb/Ou+34jcGxH7+v2teWdC5fwgA0TsArQvgj9rXA+eFgR4PshPgZajKLKt9sPaSjgR4SI8d+1QvCkICpg8xTLZ3BFwXdFPAC4PeFZAIMC+jdUZXACKgsyDBGiEjAly0JkEQBGcg6fPO4d1D4rfFX1X9ipxr4lf7xPvOu/2a+vBeJHhHcsVPVz+invG15e8pXw/6GCZ/kr5F3JjYrx6PqwfleuJfgso/BKBvBwzNcMaMgnwghsSBhmxSAgAZkATUToBkwHVBHl62BXigcRCkIwAZkAh0kWDfGLAjAAnQIYtPW2v+AUoG6AxkTBAEwalM+rxTeLfwjrH44N1j4ifp0630aE81QdMPhfeas35XpWvy573Ie5LCycRPIUXy551K8I7lhDuJX9fWesyHtr9VP9Hd/foIoOeC3vpv//9EsKjo4gw/H8o22E7AGBEw+feRQGWdEgEeTAkA0V0EeaiZZ0EEeNBhuvwBcFeAT/dd/SOhK6BQkJAM8EfmiIBWmzoBWnD8URKMCZjH4bQFY88hoiAIHk2Vz7uD9j7vEpM+CZ93jUnfdxEFSq32FfeR+HmfcTkVJz8rf7ugJH3a/RRGvBMV+nmMDX0VPixqrjD2Yb+f9y7vXIV+Y23/fsffir+PgYeq/FZMriwJCQj8oYbnN+PbAZKBsS0B/KJ5uBgX2AngAXQk4M6p6yisp/AQw2AhApAAgodckSDeAXYDUL1y3ap2BYguGCQYEdgZsCvgio0dAYJ/E/wR88fMHzXjAvy386oLgoBuIRU+7waKBgqJOs/nk2D06PvGNr/zfc/0at1bD/do5lNd/Ej8VvwURfioqPB33k/id96vF4vv2erpr6X7mODPKMnf4q/f9V+p/+6F5OJHRgDGoGGDUUUe9d+1G1DbROgCupAEAsBDp2cAISt1NsUD66oKnzOP6vWPhAR4XMiVwT4a2L///ukfTO0I2BXgjwydgG02tQLoBHQY1G6YDkH1F7BDoA2xpOC1r339T6VTsLURJNFD/vlbt7rnHUCyt6Vv0vffCpG9ztfn+yZ9Ej7vJtv8tdr3ap9GPtinHz1675PQR5H4+TTpu9tv4qerum/f5iEfouqxuqWvM38JQOvytqJPf38DnLxNFgKwNdYEjZWBcUAJ20TEQzsHEnYCJAKOBOwK4BkAe+WBZnWF0YAPOg89JIA/AvZcIQF0BGiJ9dsC/EFpL8wfmXM1//jsDMjOUd9CAiQCsHfIgGxe1S6f+g0QdAr4pBLgBYHYh/UeXhq8PCAJBC8TIoTh7CFIq/7/2bsLndl65ArDiiAcQVA4PMIRhEEQZiZxmDm5g1x6zns+PcpSTbeG56duaalMuwy9XS6XvW39MIte/bKZfKjP1ndbt+/z4QZ6/Xv7PHmQP7iD32Y+5v3A6pic+ZVf+cv3dI/sjSajLGU6yCfLZjS5ltWzAd86v1l/MrFJUvKRrExuNvjb6JeMdapf7uDwtmcn+7XpOxrOPrDo/ewPXpf7fGx+Z0PHHfyF7U7Q3F6etQTAvmirCASKQAoAi4Algc4MaFmgm6p6ySkCnSIYaMPuFvDVAO3ZsgC6nxDuxsE6asi9hwxBFgGWAV8WUA7MBhb2FLzhTz4XCntnvvscgSIsSongfsf/PUpfGPzkT/7x55dn8YVFw5e+9Eefh/W/EzCfDV/84lu6kH+fKy6KH7rxwoO04jed+E0vv8LB8xsXVRZ+FNTpxl1Ic+t0+QtbftqLH133bSP++/zG3Wel41cWz8LW54ZtHjdOXvvfX3fp5A/4el6+17153P/kllm9hMGWCa/r3v7gndJfotz8+tZNo5/dtBT8XQoEnxTX98Ggb5ZPbgTWxqj9SGQP837yKNqu/l3fz9xv0Hd+f7Ac2tIoc7/BP8upzdVm/XuJz13nd7AP+WzWv24KwFe6TXb8HwfT/8sCAP7woccd7BV4c3t5wioBwBoATFLRVQJWEXBilU9a3FxlWSB6rQJ2ybZZ0IFC4e4VYBVw0qC9AkGHjqbNQ+Y99xEEygCrgU0/dwkBxH3mM7/z6Y3Pzw0rnBKA/LmhMINF/twJsmj+hK00UZBOGrwKk0bYpgnyUbbcwvDFR5z68OeGrRtlZeO2DeC2hTpfnuu+z6FBntGtz6Pnbz7abfmjj8q7+QQ8lQGv24bBQIoPKO8tD8hHXWHTKPc+wy0clGXjA773GTBwh81XuW6bBvGBXzoz8yj/Duj6WDTUz6TJbYPensAXXLkbbZCH3UNkI18ywhG9Pt0zybjH9bqkp5P7mPib8WfJzNTfEufO+F3Za4Of2X4yMThfJbCoRoPB/6713wN+rqkfhBnYn5n6XzP/j/Hv2bnO4c3//+cFrAIAd4PgwktpU0ov7d///f9+Fw3Wi+04YRsF037rELs0QBFIAbBWlia9+wQoAauF65jBpzdRXxEw4eno9g9cS4GZQPCpD8UAhDu1kGkRCrsKAn9p47fh4FlCj19agk0Yv3yFEZjyw/OWRVru6PWvW76b3ypE8gHp93lQnkdtdrHP3LLdsmxeIF74V6qjgUTYQt1u2Z61cfB/3voq85YL/5smKl5eAc87y900t723/oH70nXjg4e8bhmVfct601++698LwviX+n+u4q6PsvQ5ftcAb9d+0P939z5YWrwH9jDv76a+H/iBn/khg78d/ayZDvJp4E++NeEx8P/SL/3r99vcRy6aLPnUOn8y1Lf9uyE7ShbDXuST33n+V9Zfc7/4M05EXxaAj+sGQbgmIS/NVQCAphnu4UEUAHDN8P1aIPiuNdQZWgOrk6BOFHSOQLtlo5YG0rAzsaWBUwYcrhEsF/QJjiWCaKiD0/KBgkA5oBSs0GA54C6u/QaETZRSYP9ByF08v2WInrXuCMWxTKCF4yOd5+JTms2DgrLl2TR45y9uoY5Molf52fwpSICHMi/K6+bXMzZZrbBWVlaa8vLZp/jCWGrkJ2/tD9vuWy/tVBrluHXcfDZOO/pP5IMyLXP7L/Gobmt9uvnj0zuy+WmLHeik1z7y9H7uM/4n9XEdrXdD2fDyHH73HRSv3NrTf7H/jfTO9QDvsHSU6/3v9r3QJ6ub93j7Zkfu5o5au99B3jn8qJk+K6JB/363b8b/dlyvGf9vvN+7lGyKNug34Dsa3cBvQ3TwWd87bem7H5n7o8lSu/tXAQAKgDv891IfdJd+4fGg/7Ef+F8KAOyffq973JOgvEjA76yA3SMQcrtbmiKA3pc77CFCfd+aQpA1oD0CWQJ+7/f+w/GX7y0CadRZBSwR1OGCJQJnaEfXQtCnhawCax2gGOweAkgwtNEnd4oA5QClEFyFARrIiuf3nGcJpcun8D4t6hlnhxNo0m9+wqBnb/rLX1xp8YLiLJNE72xJGLe6eVZaeUhXvqhy3fLjK5wwD9zFweZ12+Dy9p+UFoTjDcVtfvJXJuEgH3X23wu7PMRB7Sedd0zctVCB8hsEhcnj/n/8gfu2sXTBfyqcWx7e4ft+7v8rPOz7dfleqlz3/XzU7rAH7/gkL5rfGr4JQDTcA3rcU9JAb+B3dLlBP/lC3riXn1wCM35mfsuclj+d3x9WLtrZn9/ufrgb/ILj24Fs3oEfvWZ+sp4/Ci8F4JOD7/hKmwSF75rSHiUZze/FjAJTFQ327g2wLOByoV0H8xmMfQJ3aSAtm0XgWgZ8axt1E+Fq8HXo3Kvh21RIOdijieFtpvD2GWIgWC58lbCCR5hw/J49n/Kxs5RQnLBrqsQfCED8bn53Y5NdzTcef27AC32Wz5ZDHZ6VQxnkGVV/7S09iu+tP784Ar+yiMMX+G99uFHYcojLjwrbMuAv/OYPpXkWLk4e4L/kf9Zet+3Qrb93orTS7HsgbOnWST6w5dt24L/vi3jgv2W8fQr03fpxWOtf54rs7aSBjNj9RXbvm+m7mY+ZvwPNnGlyv+FPZu2OfnLNt/xhZ/1O8nOe/yoA9lixtprxw07UuJ9aeI8igH5SwfGJtwQY6L/SZyGUAGm9gJYMnBtw9wa4naoX24lVFIH8dQbw/WvUXdctEWQZqHNRBPbSob13wAVEDtywMeduJLSOFwgEQmFnBtE+QwzuLnCmd3GbjkVBGLcTwQiiDS/shuenhARCTLlgFQBh0lw+zlDYcOmkEQ54bZi87K3ARxwqHo+LLfPNV92WH7fwX//1v31Pt6zc/o+t961zz2/bouqibjc+iLv5qMuj2Sa6/zNeqFPj8ANp+Pe/vvkpm8Nobh1AWZ4NlnAHVGGAx76T3Pu/8G9f4L9lhH2Okn7/R/XEV3lY+OwRCmb1u46fhTDa2SNm+sH9JU7pc5y5CUcTEQO+S9B83bRn9kfdomrANwGCHfSB/DTws7bCo+/772yfG/0y+f76vX53CYD7vkS+DvCi3YuFZl/Aw9sFg8MqvPBMX3dZwFnXoaMvXTtsf0BaddQSQZ2vTphCUAeN+vSG1t6egZSANPqQdm/3bti9BGYGazkIFIHdEJTbM9eyIJxQX2Ug90Ke4q9gJdAuj00L4jdv7s0jLM/rhkf54XvTiON+xm/D7pKMuKWA90I6g8FXKq/4WxZheNx8heN38wm37puHeOEXj5678evmv3TLGrgv71vvxT4nHdx6UIbwUQb/x6a77bt5Xbdv6+/M/fZJfU+4fszvnn2H8tT3faNvA58BPxp2M5/JxX6tZDc/ubSDfjLLwJ97Z/ysoLu7P6yc3L1V5KmNfZZgDfpfYfA3yD/4vO+FVyPcOwO+wrJANEUgPNscaH/AKgQLL/h+Mhge3S8ANs2gzhSwtraWAea46Gc/+xPvFQKf4diokyavs6Ow+wjMCtxVwF34Cpv7eSJ3gscehMLBs4QZlA74CXNp1v9jP/YL59m3cOC/vBbCxaHAf3ld/uq4Zaru+W/5tcHlFW56fMXDbZdtk00vHPhv3OV73XivO0zbPm17ccIvlg9e8lrgBVuWm48wCqlwkA8aSivs/ifa9LaDPPnF3/9eHjtQew4F/eiicKCwp8SbzW9/DMXVn9caaNOefm+SkJwAZv3OJ0mmNMnIHw3tT8rMH2zqC/YzWd+PsnSCtf4761/ZuEuqZOrdhxUV9mh2j77M/s/BMXjhmSKw/v28ZK0B+z0q6qAK7sWj/QG5ryKQWydzzHDQ6Rw3HLIOpJ0HioBTB11IFO2cgb7TJQDC7iVAA6Vg9xiYNVgrRKVfy0JxCacE0h4NSoDZq0CoUTIK23B+uAoHXsyasAJy840CP37yRD27ectnFZvlK0z6i+VPYRB22+bWVV49s/Hct14XyuV/icrrmog3n2eDD4gTf8u26S4/kP5Z+G1/VF2vWzvi95Ugb3XzLm78+u+y2rad/0l/UB6b6vSFbVNh0qD6IxjQrdPzg7Csf9bug/5v6ZBMSFaANX1WRgf2OLSnSYjZvut5yar9jt8yJwoGfp/0ZR116qpNfjvjv9/zc7vD/9n3/c8H/xdOwAuPBn0QB/wGfkpALyy6L/LuEdiNLXu4hc7hHIHcd5kg/yoCPiXk9jWB9bi0dUsHlILgPoI+M0zjZyFwY2GUxWCVBG73GJhJ5HafN8vCCq2rJKwSgRb3S7/0jz8sDR5QGnzwvIpK4KegSA/KYU/E5U/oMpEqL163HvK++RPwudVNmQqDNcvGDw9tw2+g4Ee3DuolPtw28Iy4W3ZhCxtLw9YP5RZ/ccsbP22urS8/bcCN3vbnBn55eUfg8pOPttv8ufnlv8/3jPeg/xi9efDDjb/lqe85TU//Kkw/5OYX5ma9aOfuG+izCBrgt/8nD8zy23Ds7pJkhs18gZwhf8z291M+MPNPlpFrO9u/ICtDfsex3x3+ue9ZLiCc+ygG4w4vPI544eHLc182EOcAodzhWgTC+u/5AcGNg8HRws4SoAS8dar/+Z61Etgz4PzswDIAdWqok1MIEgCO5lzlIPQ5D1Ogk7xSDHbjYUhhYE1oZgHWEQmmX/3Vv/yh/Akl8SvcPIcPAUfw4VNcfG76ylAenl2BWVh+cZUb7yANPikyNj4VV5lZSKKEbvld5UhZ+W858FAeVFq8quOm2TyFUbrk1WyvOOXGcweIUB2ZfqPaEK9o+eAbCpNW+iBNg5U8Koc6R6VVXm2xvDbtllfdDYr+Q+5tS3y5lVc4N57BFd0bJj/ttNAWTrtb3vjjt3mrj4GZO6oc2w+swetD15+buT74Bt9Av+v2hde3o74qIgt2LT+QGSyMNiWTMzb1BYM9rCXT6X277Bk1+THYXzk5MnKtrOHpJu2vcKMfDF7geOHiaovnpYMNv18JoLAvOfezS4bW7auBXTujXV/rgE039go4cXAtBfYOhD/4g3/4AZo+MPc5fyB3NOxmw7AXemwYoeMgo8JSGAir/IQSNwqUC8/haz8Df8KQv3SE3+YXcsdPWQrjv+mUJ3ATvDccCGN549UztQH+8l++161uS4N22Dyugib+tsF9Xlr/z+YRuOXz7H/T3urlWTPOwmoD4ZTK27ZR6bw3t67+A/ns/7ptLO3GP+J167bAH27czdt7uTPrIC9luP8z/szwof9z/0Mb72rP2k+Y/0IfXNio5xCe7ddO44sWn1xwWdnuNTLo//7v//33FrYz+x3812KZ26APPoneXf3JQeemkIf3nv7cO6mawR7u2v83f8b/UgBe+EovmTB0rxm+uKdXRbdjcO8Vl44XToOmYXMb/K296ZjdnOVs7ahduTYRUgpYDZxImGAgLEJKAjehsQKFUtBMwgUfzvyOlk7arkOWnpDC4w1vaaPMkn/+5//4Ps3yuc96bstVOZQLf+7i8RW3ZZJ34PZcPErreXlcS0rhIb80m//yDZWXG259heFVfcXl1143H+VBueUvH37ABza+fG6Y9gj8+6zyyksdKr+wZ/WP4s/fs7WbNr51xcO7KS/+/R/vOxa4G5C3Pt5ldRVuVr3pNt77oL7gWf+xZ/jVQ128L3uFLhSmbeq722ctDzLlo2b2xVvTZ9ZnbdwZP7lzP+O7gz85Bg34qPX9nRAZ/C+9M/1zwM8HN/C/FIDXUcK00MDPfZWBXdMK1/RFG27gh3vMcB0NWAS2U/I7enjNdT7Jae3OkgFNP7evClZQmB2E3FDaziYoPJqQ4S8OL+7i42n2sQJMGIHuJERxTJSFxYMfz6UbZy0T/+vfQ0uuO+CpHJ4LxeFZuTyPb+H8oN4gL7hlu/lq002z5Slu8w/c0srLM/aJyAeURx33P1T3G6d9V4mU7tbxAu9bBnloD2Fmr9Ip16P/eP37H/HLd8P5QT7KuWm9r8qj7trmUTn89zcPZYH6Wv1KWd+U9Dfob6x6UQN74dzW7TcsP+yBZNby0TXp5941/R3smfcvyDi4kx9KgNk+WQlXrnKHOyF7fdv/+n27fo82mFAE3vyDuyQAXv7ovWnwWgIoAWADIeig9g5EQUfe3bm+MIiGPaLTPdwEBbedv0DgUCRyF5aQ2vBLKRMOOYpSQKw5Cs9dGIVkccPwh56Vz4bjHd204aYLwg2ygRAvrHjlzy2/W6bCW5bhLm3PSyc/6bds8b7lVq5LS7v1FMe9vLZsm/+68VVWPLhvO266m0a9UW1Wu2hXbSbPfbZ3hxIkfJWgfZ/w2f8QH/nHhx+fW7/rB//71jH/lnfblZKyPMRLK5/bz1AD+NKgb+4mvc7a17fr0wb43Pq/WTxZsOv4WRHJkmhhqwBcucSKWTgTv0t5omvaR++17PdI9sKXLj6cR/i+LAD/x96doECSAlEYZoZ9ztDn6/sfYQjgg8ePXeyzVsHDLRa1MiPMVNP/On6DX+0aEFde7MmC3d/a0TK6DgZgR+Abd6MaGAh3VH/olsMXnNjFsFy4cUYHvFYEvIwQp46+cpsP+HbqYtc8VI48rzWV4T151c9Itu5bX29Q9hUqmcoMmrQXLZ3kAvorb18vLb2nSz7dwuOThrZdv1x9OYltu3qjXV76P+lRpt+a3nPf9ckn7PW5Osl76ffpWXmA3zXVvpavr6tLPZSLw/LutVG67cfVdY7X9ek6xGM+nuP/8UNdfv5hHZA67mt7oSd7zn7tgfjBvP7Zm/uK6a5N8vDRvfvAZkGPVp8V/Rz9L7/fv2BX6/TFv/gOAP4O9On/vWUw+d3PKr2DANtiNv6aV+P4oTeoAUBx+WBA0DcFC0a44ZVteh2YfHEGNnlPnLFbXb6HUJ1kkbs6GDpxssU5F06wuDrgQdM6CNu27TcgRxyaXqxOIT3S+ktZeVb+/pdtS9P0CFcPHS+nQ8bWV4iXwzq0T1bfgjzAJ7/tqs6lV9a6bvvbv+j3mjxcWb/d0f98dfV/QiPewc/JP/R620V54p2jv3l8cdj7f6cTvU3k8DfsOqV9MJF+H9bTvftgavS9hW/LQPrrd/6xA4DvG4GG4rBl3Tq4Wwh7CNHh05kD4rYU7jSBmxzkMwIvMCZ3JrfFQPK637fpbg2KUXzyoqmjVgZXF7SvUJz+GsgdEEBlyIPKB3WtrKWto1ma5WldqlNZ6dcBoYM6iupXvmUvffpv6dvm1bP88oT44ZV+DWpa1499mCdb+g9kkFmsrNXXQUfb22sTjTj0P/ikV78L2+4eMIbWinwy9UdX678+znP5G3ZNkmnK1/oldqswx39hnTr0yV86+OcOAL4DgC/q5HvuwKFzXO8jiPNRoUwPXLo348Zf0wQ7OHCDH7rboOsIDB7OiFy+QQHnvluBwILEM4gHxlLZGrU6BjTrQGDTNYTKhLZMqu/SX7oOQt0ZcmWl0bbya8/Jfm3XbL3F6UXX8s0X6iv1wFNDf3jJE4fKIqN6/O94Vo96CqsHjdCgsk+s7fOj6/+78ld3+dZJblnTgI/M9n916CP0cPmuh67FoQMdmatn+wfQgnu0g3vbhxfr1O/+l+bgG+fsX/CE35X8fd1/n0xf2+Wo3s8PRY/yf+Hv+/seLvR8M/BhNevvytw8e/DQhb3B6vS7rVC86OFEpgukrSfY8NCnhEsbNIjLb7i08pqGTZPdvcalLQ+5C/nogOxXO+gUX9mte0F2ech8tROqGz+6xoH81k35yqruxvE13b5YvuppefPfT6TFWxZU3sppHH3TULkbh1efFp94+v+0Hvrk03/XFficvlD8tS1vB/5bduk9fW/Dy++8fnY2ZTqTjWPn+s1+eB/g813k9195A/DFcxAg3sWDQuhN1emBHYEX8jNf9wQD4GZnGD7j55/s3QHOHCcMBeBtT97z5JKtfq2efver80SmiaJEjPTEjBlsAws2MLD/C+mMvhVzeUMn5pR/0uU+z0LnQXkz/ih/JX7maaubxA15ofF8IBMeu3GQr7y7nF4n1sFeRxmtAujQgHpTjz8I5FdQB1sdmwfvHb0LlgYP4P/t731KYN+UcEIDv4zuoQW/33Wve/3RsDkLzhy4nWYuF+iVp9Fyz37c13+2H87OYxshbLRTTOMdzPg8h3fCzXjIz/RJ23SccTEg7Z3EyzPPpl9pxAXmtcmMvua/6S4/w2ksjetyer5rXHEO9t/A+e/sWJ9SN6c6TMc07zae3h/phy7S2zn7Ccc6/dr+6SeCLEWm72F732t8yLeO6B3Jhz4x6fe61+977dNfO83tMWl4+Yr23WBCn0sHH3H+O+EbabQ29OwqcDtPnrMLoZ1cmPRCup3T7Hzkq0x5ys9n3xV+3CS9IZ2o+ol0uOUd85X3MjOz6jPj1Vl+Ip1/0jRnSTlP67jn33hpe1yTp37eJ/9rGuXD6zxfnefpe/wGyOtfnLZnuwps/9OgT3r6mdd6Ot/cwhcs56C0k1Pvf/TfJYALZwDAy28GRjgwlxD2ZYPQ4hjMBq2jMLf0zD/syHOMdGh2utLFMIbrWuOkJy70JlMZRT50gFE3bsufOmuw5HPKNzxO8uO9PBttyghmnPW2y+n8J926b/rpoDZ5CS2TJivvh7fvT5z+JnQQjQ/dEfruCJ5Ny/d4Db9T9zoDc7lRo//vLXr2T0JHIKH0i+sA3G8Fyr9btXOwQ9djz4zA3Irjdh3X9ubxnGPXgUsHf/aO6csRbToaCT94R0boBUn70NAn3Ph0meq+8z7nN/Muz5a/pIlM7zu/c527budl6HbW0Npvw7qMnITWS347xNd8RUZLZ5xyJz/rAlptHzHC1rFnhTiiV44zgS4XBg4UPJVvzkLaN5U1/Qfb9y6uA3BRp81sXLOhunSQ2YHpGOT+A+k4cu/HPLNj8oMfj/ac3yNMvv7DV+sI7dwxLHS0z41t9DOt/Gdc9BAxOOqVDjh8ldcMhqM37wPLaOpIGnRqxqnJiVGJzC5H/ZGLTp2n5bjXUc+PDpP17nNC60vHsdVdsP0mPChnbvt96/llbUOzLdpGg5nWdj3aP8fxzrV7HYARVwz/d/p3vovrAFxshh9PPLDRSZ/rdgkHLZgN3mWFHYnbec5ZiNDX0U83cmtHLroxmHDfsh13Osf5PPSEL3HIQQbGNGUy38/HVszIDMRIzKNVHfFFn8kTHl0ONOXMPO33e50pz+cYwcjtBv/zeNni4FQHQVrKyfuNn87h1MOy2Hh4Cmgz3B4bPr8FMn72D9Jzb58Q7CP+Pr3/Aw38xXUALtq+WafiXCoQxn1+TLgvK6Szt7Oxk3LEHyM1aZ4KplEJvyDyPVBEZyLxcThCd+QjYnAmz6lTnhNGFqModmHMnRq7PDv+mW4awiD0WaZiOhSTpztEzNOW/0Cjod6LHBybPb2YTpfOCYYy9buUlfppxHddNmfHbbaWb+i2j2BzkjH6xbDnubav0YayJEf7XNv/q7T/+j3SGn//mOc6ABc/CbXR0mBdVvBvNkOb9ISODhwpGJ+Opnb4dJTOOPg+h4ms6fdRjvwT7vHCWYxd5r6GGh7KyHt5lj5l7qdENh0s470eNh02Jyj053Jmvrd47/uzfHxH+lYne7oZN+tEJ63LSui99Zyw8VRf2oPQsH+/9h9Au8b+OgAXPw9+SStsoGng7jwIjk4vdLZhxs/wjf1EsLJeSAccOZ9ORTD135yE2eHKP/q4g8IOcfIWiZt8w2vKnzoEifP5XUZJE710BP6GFvoc8SXPW4du3kzvctNSp5Sl086ONK2TpMmz/CN7k5k48yH/8veylFtC40b5IM+yoS6HjuN5OIS8Vxz2z/xrpGlvU7fatk7b/+xjfsER/sV1AC5ODheajVzMDrYY6sSdILyr42IHZ+etgYb/N9+DdZeFYWQfnmWuTNPOsMbPsmho9Zg6kKaD0wxEcGpM2jvWq3ps5ZE4+WzvAOX7/sofXtvvZQ3LXvjgZZ2bj4SNXtr2s/b/61/3ute9nAUIyvNqrL42mvgImxEwvTyqvPKnIWB9z1CDVDv6YkS3XRfGt/VR6cppRsh06uz9NPZBk6MuysFBUy/gLNXzWSjzZd0+/Y1M9N99r0fLpDsqPu/nfVjeX3OW9vqy3s/b/3UC7nWve31tZP6qRnU33PXAIw2qaTRgzciYJs/qaChmmiJvNRygzoAUA12MfpBLPXp+ZvkWo9rkhEY5KWfnD9Rf+fA9uK9O757mkKf1UPPRt/T2WSLjfS5t5eiEvYuLGnlxYQeyntxVRkh2xho7OzDTFpmrLGWofzmNLDC+wnxhULpjhJFrjsc0wsbJw7qTT3tH2fJd0q/80LeVt3R0KIYcmM77ztN4333Eq6G1tVanOsWr3v+0WwckAAAAAIL+v+5HCPhBAUAAAAABAAAEAAAEAAAQAABgLE4mzI55ya9AAAAAAElFTkSuQmCC;" parent="t1x7EK1OemjOOLSHdHvf-21" vertex="1">
          <mxGeometry x="50" y="34" width="40" height="40" as="geometry" />
        </mxCell>
        <mxCell id="t1x7EK1OemjOOLSHdHvf-22" value="EC2" style="points=[[0,0],[0.25,0],[0.5,0],[0.75,0],[1,0],[1,0.25],[1,0.5],[1,0.75],[1,1],[0.75,1],[0.5,1],[0.25,1],[0,1],[0,0.75],[0,0.5],[0,0.25]];outlineConnect=0;gradientColor=none;html=1;whiteSpace=wrap;fontSize=12;fontStyle=0;container=1;pointerEvents=0;collapsible=0;recursiveResize=0;shape=mxgraph.aws4.group;grIcon=mxgraph.aws4.group_ec2_instance_contents;strokeColor=#D86613;fillColor=default;verticalAlign=top;align=left;spacingLeft=30;fontColor=#D86613;dashed=0;" parent="1" vertex="1">
          <mxGeometry x="370" y="260" width="160" height="50" as="geometry" />
        </mxCell>
        <mxCell id="t1x7EK1OemjOOLSHdHvf-33" value="" style="shape=image;verticalLabelPosition=bottom;labelBackgroundColor=default;verticalAlign=top;aspect=fixed;imageAspect=0;image=data:image/png,iVBORw0KGgoAAAANSUhEUgAAAT4AAACfCAMAAABX0UX9AAABblBMVEX////xWilBQEI+PT/5sBL5shH5tRD6uQ/6vA/zbCT3lhnyaiX2jhv5rRP6vw4qKSw2NTf2kRr3mxf1ixz3oBb3nRf4pRX1gh71hh3v7+/zcSP0fh/yZSb0eSEwLzJmZWcnJSjKysvW1tampaZPTlC0tLXxVR9/fn/3lAD7xgzwSwDq6urwUBNHRkj4ngD7yQvyYAB1dHXzdAD1gwD97Of2nIVYV1nxWQCMi4ze3t7yaQB+fX7Pz8+YmJn1ewD+9NX5wrX1jnPyaT/4saD+8u7718/8493zdkm6ubr3qGn+8eT7zJz8263+7sf95a30h2ryZDn6yr73rZzze1r2mXv0hV/3p47zd0QbGR30hVb3poX5vaX0ejj2nHD6y7T1kVr6x635tpL1ikX3q3v83sr3m1j2jjT4p1/5s3L3oET3nzr6xJD6w43827n4q0/5tWX70ZX5ulb5szj7xW37z4f7yEj+6bf94Zr802b83IK7z66RAAAMa0lEQVR4nO2b+V8TOR+AS2fVxRVnXM/66nRKT0vbbTl7UChQoBY8EPFCVtkX3PUooois//2bZK4kk0ynhdcpNM8Pfkrmm0z6NPeMgYBAIBAIBAKBQCAQCAQCgUAgEAgEAoFAIBAIBAKBQHD2Ga/7XYPTzEI6U/O7DqeXufTAQPqR37U4raxnBgCZedGBu0G3NzCQeOx3TU4jc4Y94G/Z77qcPmrpAYvMhN+1OW3UMXtg/lj0uz6njEcJXF9i3u/6nC6WiMYHmt+a3zU6VcwlSH2Jdb9rdKrIDFAkFtbGiYjxxbWaGBHZLDj0DWQy6cxczVhBr81l0mmQIhbUThbnMk57ehPMpJeBwdpAWu/bmSd+17XnWDDd8Axm5m25Yj9C8oTX8Nikl/yusI/UF2vP5gAT5rRQ60we6L01f7+BfyxOPAaDfwIBJoGBicXx9XR7YSSJPt3NPXGMcMCh25jH0Tfn9xfxh47bGUdff56l1jsc47j6+rPzetUHhsV0Oj0wD3icAAtluntnFvz+Jv7gRR9c4k3UFq29Wn2pNjFPKuzT1udBXyYzt8bYk9Vr62ksc7o/9x3tGl56vsbNO/4ME5jmx51h1l0XKZn5NmcpC/b6ui8Poidc9CW87CUmrHVjpg+PXWr8wS+z7snHknly0I/P4ejDeJu058l0wiijH4+tuPY6WMmtGf7S4+1jzxj0wwzTXq2TQpYSqJQ+fBCyyOy9nS7jxgeQvz6cfZmzRscHKON6I+6/x8BPnHNvN+8C6XOQt+YXKg2XRjq/RU9Sn3J23W6O3tEo4GH0a1QUWVZVWY5Vh7u4Tc/xLHOHJPOsq3IWpkDeNuZDRVWVgjqSIk9GuroTVp7OMUs5HndouJGLC083lpeXNyY2WZ10I9FOfVRVgjiSHD5GJ44UgqARy7JW6b6ME2BtipA3VeOEPZqaMiPBp+VNelNSn3J1HwiEVaPZQSRDYLzLWofCsqSXIZe6LOKEeO6h8dXukJKhwg2qp9ZAyBS3944E0bdV5Fgx2ohHC0Y3lpNd1TmkWINAuKsCTow6ISa/yQhZek7L0w1ukPuMZZCdt1sJobYiqUWrrTQmoUBpsqtKx/TSAC+OO4Aek1r+N4w8I2Jz6jcOU8RYtwTiXnLugr6vSo51EQm0oa7q3IDjgFqITAO6KuDk2BjEfAw+dQa84toDtp/jQ+DLQaZ+QBFOGnKVTi686G7gKoAfQ4l2lfWkyQ9i5J1z6lMiwAk22i3lB/PMc4NhDbYWxvftcthXu+71J80SYafsuL6NXy/ny2VaX37HDn45mP+TdZNJ2Fq6myRYhMCvoTiasi9slm/bDG7Rl3fy5qVy/vXW9ubmqze383iW27fzdvv7s1xmTT3TMmgt3Y1yTEJyz/TdLdxE2dF2rCvlbatbLr0qEwLL9vhXLr9i3KMCGp/aaFOR4UKyAmIi0WISUDBSS9VwUFGyhTjcWxSSSbRGhvqkMIpLWm2aiKyYJVQr8MNIdVJSpcmqY5XOztQBrwkR9Mj1yvBU3iJXyUSbvf3aSt8qO9ovAMwbUrZdRSKypMYbigqW1JKk6luJUlhT4IpHAls80Fk1sOSGyVAfSIMoaoCKVGGkqkgvUHpYkbRQUUPLREnRisQtS2HZLF7VM2ntaklDtiPqYt2052iV9TdYRrvJ7bD0DatehqoIiMqauzoZnSdUNXNxDBfc2RH4M8B0pM9MRpmjVCT4V0MXwhJWKrgUw3bIVPEl2Efa1ZKiWb6L8Ya6uj2Kkss7jJzbWM6yNfyx9EVB9dW25ysR1doLS1IMpiStXZ6kJwdxffrmT5FhQlF2Rmqo1LBklmlcilk3tIqX7Eyd6tscxeyN/pe6ash5y86K+fvLTNzadgbCRZ9s/+ojww5Ktj5JDU5OxuBAWUUJihIuFietwwZLn1SJ69iRKogMW5GEPjVbAZfgZ2sBwCy+M31Lf+H27o5SnnZGmW3SZNvOPMpcrxjAmUOy/6xqKoUcs/Qpk+Y2YlpDMvUJNlSVJVIfNvMOG5HoFwpFjTMxDV0L67s7NG+NhNHiveRSfEf6tome65Sg+xnlPvDdZTQ/BmCPgM8cUfLYKmgsgZE+7AAAbvOkrDVXlowuhr4tqQ9FBq1I43BCQ38gfaq5Oi+AWyv69JFlFt+Jvt3R/5CMUmPc7l2YSPdom/ooNytOgWx9UUXCMaUhfXb10Z8KNtCXVI6+CBz4VGxNMqKS+jDTcPKRXIr3rq/+jrbncHCznZhtq4gZvmR67ItmYzjQbcX4Qoq9sIDOVeI0ELVahj44NijOSA19hPpU+96wKsg0p3jP+uo3aXlOUzMw8aZbIfYv4BLmOvNaqxqoD1tbW64sQhx9sAErZKEyrg8fOOKKMfjBshiZPOu7yWCG1FefgYm7bqXcn+HkxZlWXfZYVegWntkhfdbh3YhsNEqMsMTSh6ZharcA25Zm5sHWKkgfHAlR8dQmPNzBum93hqWvRcQgfTOMlYjNjq3PJU4l1lskcAhHPZvUN8xQXlVY+kqMRTmM1NAnjj5W8ahj878EzjbL3s2Zt2TUzK12+uowROc+PwoNNOxzzYh19nSK9DVnbrEYo8b/qzDNVV9gzMr8jh9kO3IQs04TnJ1XIXeo9gxO6GP1w0q7zlviFO9N3y7T3q1b78mw+0DOmEurAry33btEwR7KOi3VG5R+lEXqYx0zSOypwznJBIiZl6UPjSfUEZrqdepojV1lQyl4i+Jci7pvFTXm8jplA02Fzoc6KN2Ybil9aCAncsRVtr6C4zgMPQrRzGKY+pzFNzzre8exd3WMnD6bY840ivtXvejTF/8yfeQXl7GNBqUPfhui+YUkTutDkUTzI48MmPrijuIVr8vmHV7juzr2kYz8+xJIc+29773p05/Lkg91Q0n94MRY1FL6kAP8IW6Mu2mTqAeek+SmjalPX/jZxYcmPW/a/r7E5QoZ2RwDaa7N74qV1VVfYFjWzzesA9+RqoJ+b81cT9P6UMdWssaEHQnyjwxQpJQ18kay1JEBW59efIwq3ou+92NcfbSqf0DolSsuYsY86gtM62caihZLRqPRZExG8iTZWs/Q+tD+HgTEivF4MWu+WsTSF6igSBVFxsxIDV3i6mMX72nse5+6wuMfKhQlXuSaaY5ZOVNtbloK6ictEjznNN5PUbL2k0qHvkBYN2y9EsPZtAXM12fISE2/wtXHLN7bwmWP6+9Sk/KDIi/y+u8KVtCHdnctytjhOPrp8ZWXU1+ggmeQ1EiWpy+QJCJlGKmhCy76qOJRJo+7js+pi2xSn6nIZgqGpvZMgStEwB5WTqqtv1JBtl/tUdQK8ZA8okoSpS/QCJq9SoEvs8GTLpjMeFAZsSLRa2+gdWsoPWye/OvEwU3sV7IaElE8CJXbfQWDj1x/dEOrf0D+Uhc/f1z5tJdK4cNjnSglRfd8J6F4QYEv5clKJU691hhRslnFsTRshNHLqGoSzjCSpQ+MAPQqvFEwIqf1SA2lhoPZINH6wE2wX40u3vOJy87vHIHONrSS0lugTou44q6ezchIR29FjpS8vgrtPfK4mQCfUqnfGaQ+OUNbe4a7DytEOp23bfc9SzQ/MwWy29BOa7XVouaVFTp7qsXKemZpfsqlctdpUs32OSH1lCPr3v+3vr1H69s1YPAazvVr3v5z6V7uGsX1XB/+t9TALOUh58nfvsMeyNlfvdeANpHLte+/LYa9a7lvP6G2vccNmrbNqJVz5AG5vvRj5wVziENG7sA1wyrDXi63+pOq23PsM3S4NMADp+7cjf2fV92e4wujL36dZce2hqjAg4P9VY+rnbPKEIMbXxnd8cHXG1TYl59f256jyfIH3RDtanZ/iJY3NNSf8wXFLMcf8PX14Nv+6ur+wReGu6EbD/yueU8wO/QLH9MV40o/zxgY+y72XLy6L3D6h8NzXfCLsGcg7B2H5rnzHXOuP7e4LLrR993vSvcOzfMXOuR8n280CJqd2rtwwe8q9xLNC792it9V7iVY+i672jv0u8o9xWWKX4+OgD46FePI7xr3FIeknEN4WtX8/uOQ7Q7o5Rxn9SlHl+8ZADf3sDVJc/bB94cPHx5dtgJQ0D3/qtqLzF627P3LPEQ5IvWJvkuiazn8wT2A+oHrE42PYvbBg1n3lfARZu/hT6rVWWL2j3t/6IhVS1c8NPT5XY9Ty/d/gT2xaDkGs8KeQCAQCAQCgUAgEAgEAoFAIBAIBAKBQCAQCAQCgUDQK/wPdy47rPb9JpIAAAAASUVORK5CYII=;spacing=0;" parent="t1x7EK1OemjOOLSHdHvf-22" vertex="1">
          <mxGeometry x="65" y="2.4999999999999982" width="90" height="45" as="geometry" />
        </mxCell>
        <mxCell id="t1x7EK1OemjOOLSHdHvf-12" value="&lt;font style=&quot;font-size: 9px;&quot;&gt;PrivateLink&lt;br style=&quot;font-size: 9px;&quot;&gt;Endpoint&lt;/font&gt;" style="sketch=0;outlineConnect=0;fontColor=#232F3E;gradientColor=none;fillColor=#8C4FFF;strokeColor=none;dashed=0;verticalLabelPosition=bottom;verticalAlign=top;align=center;html=1;fontSize=9;fontStyle=0;aspect=fixed;pointerEvents=1;shape=mxgraph.aws4.endpoints;" parent="1" vertex="1">
          <mxGeometry x="560" y="144.31" width="50" height="50" as="geometry" />
        </mxCell>
        <mxCell id="t1x7EK1OemjOOLSHdHvf-27" style="edgeStyle=orthogonalEdgeStyle;rounded=0;orthogonalLoop=1;jettySize=auto;html=1;strokeColor=#006600;" parent="1" source="t1x7EK1OemjOOLSHdHvf-20" target="t1x7EK1OemjOOLSHdHvf-12" edge="1">
          <mxGeometry relative="1" as="geometry">
            <Array as="points">
              <mxPoint x="450" y="170" />
            </Array>
          </mxGeometry>
        </mxCell>
        <mxCell id="t1x7EK1OemjOOLSHdHvf-37" value="Private subnet" style="points=[[0,0],[0.25,0],[0.5,0],[0.75,0],[1,0],[1,0.25],[1,0.5],[1,0.75],[1,1],[0.75,1],[0.5,1],[0.25,1],[0,1],[0,0.75],[0,0.5],[0,0.25]];outlineConnect=0;gradientColor=none;html=1;whiteSpace=wrap;fontSize=12;fontStyle=0;shape=mxgraph.aws4.group;grIcon=mxgraph.aws4.group_security_group;grStroke=0;strokeColor=#147EBA;fillColor=#E6F2F8;verticalAlign=top;align=left;spacingLeft=30;fontColor=#147EBA;dashed=0;perimeterSpacing=0;strokeWidth=1;" parent="1" vertex="1">
          <mxGeometry x="-60" y="140" width="190" height="370" as="geometry" />
        </mxCell>
        <mxCell id="MrLOl76Ptph7SCetX4YU-41" style="edgeStyle=orthogonalEdgeStyle;rounded=0;orthogonalLoop=1;jettySize=auto;html=1;" edge="1" parent="1" source="t1x7EK1OemjOOLSHdHvf-42" target="t1x7EK1OemjOOLSHdHvf-43">
          <mxGeometry relative="1" as="geometry" />
        </mxCell>
        <mxCell id="MrLOl76Ptph7SCetX4YU-42" value="" style="edgeStyle=orthogonalEdgeStyle;rounded=0;orthogonalLoop=1;jettySize=auto;html=1;" edge="1" parent="1" source="t1x7EK1OemjOOLSHdHvf-42" target="t1x7EK1OemjOOLSHdHvf-43">
          <mxGeometry relative="1" as="geometry" />
        </mxCell>
        <mxCell id="MrLOl76Ptph7SCetX4YU-43" value="" style="edgeStyle=orthogonalEdgeStyle;rounded=0;orthogonalLoop=1;jettySize=auto;html=1;strokeColor=#006600;" edge="1" parent="1" source="t1x7EK1OemjOOLSHdHvf-42" target="t1x7EK1OemjOOLSHdHvf-43">
          <mxGeometry relative="1" as="geometry" />
        </mxCell>
        <mxCell id="t1x7EK1OemjOOLSHdHvf-42" value="S3 logs,&lt;div&gt;event&lt;br&gt;trigger&lt;/div&gt;" style="outlineConnect=0;dashed=0;verticalLabelPosition=bottom;verticalAlign=top;align=center;html=1;shape=mxgraph.aws3.s3;fillColor=#E05243;gradientColor=none;labelBackgroundColor=default;fontSize=9;spacing=0;spacingTop=-1;" parent="1" vertex="1">
          <mxGeometry x="190" y="110" width="32" height="40" as="geometry" />
        </mxCell>
        <mxCell id="t1x7EK1OemjOOLSHdHvf-43" value="SQS" style="outlineConnect=0;dashed=0;verticalLabelPosition=bottom;verticalAlign=top;align=center;html=1;shape=mxgraph.aws3.sqs;fillColor=#D9A741;gradientColor=none;aspect=fixed;fontSize=9;spacing=0;" parent="1" vertex="1">
          <mxGeometry x="190" y="204.31" width="32" height="40" as="geometry" />
        </mxCell>
        <mxCell id="t1x7EK1OemjOOLSHdHvf-50" value="Amazon&lt;br style=&quot;font-size: 9px;&quot;&gt;CloudWatch" style="sketch=0;points=[[0,0,0],[0.25,0,0],[0.5,0,0],[0.75,0,0],[1,0,0],[0,1,0],[0.25,1,0],[0.5,1,0],[0.75,1,0],[1,1,0],[0,0.25,0],[0,0.5,0],[0,0.75,0],[1,0.25,0],[1,0.5,0],[1,0.75,0]];points=[[0,0,0],[0.25,0,0],[0.5,0,0],[0.75,0,0],[1,0,0],[0,1,0],[0.25,1,0],[0.5,1,0],[0.75,1,0],[1,1,0],[0,0.25,0],[0,0.5,0],[0,0.75,0],[1,0.25,0],[1,0.5,0],[1,0.75,0]];outlineConnect=0;fontColor=#232F3E;fillColor=#E7157B;strokeColor=#ffffff;dashed=0;verticalLabelPosition=bottom;verticalAlign=top;align=center;html=1;fontSize=9;fontStyle=0;aspect=fixed;shape=mxgraph.aws4.resourceIcon;resIcon=mxgraph.aws4.cloudwatch_2;" parent="1" vertex="1">
          <mxGeometry x="190" y="263" width="32" height="32" as="geometry" />
        </mxCell>
        <mxCell id="MrLOl76Ptph7SCetX4YU-19" style="edgeStyle=orthogonalEdgeStyle;rounded=0;orthogonalLoop=1;jettySize=auto;html=1;strokeColor=#FC9432;" edge="1" parent="1" source="t1x7EK1OemjOOLSHdHvf-20" target="t1x7EK1OemjOOLSHdHvf-43">
          <mxGeometry relative="1" as="geometry">
            <Array as="points">
              <mxPoint x="310" y="230" />
              <mxPoint x="310" y="230" />
            </Array>
          </mxGeometry>
        </mxCell>
        <mxCell id="MrLOl76Ptph7SCetX4YU-48" style="edgeStyle=orthogonalEdgeStyle;rounded=0;orthogonalLoop=1;jettySize=auto;html=1;strokeColor=#FC9432;" edge="1" parent="1" source="t1x7EK1OemjOOLSHdHvf-20" target="t1x7EK1OemjOOLSHdHvf-50">
          <mxGeometry relative="1" as="geometry">
            <Array as="points">
              <mxPoint x="280" y="230" />
              <mxPoint x="280" y="279" />
            </Array>
          </mxGeometry>
        </mxCell>
        <mxCell id="t1x7EK1OemjOOLSHdHvf-20" value="EC2" style="points=[[0,0],[0.25,0],[0.5,0],[0.75,0],[1,0],[1,0.25],[1,0.5],[1,0.75],[1,1],[0.75,1],[0.5,1],[0.25,1],[0,1],[0,0.75],[0,0.5],[0,0.25]];outlineConnect=0;gradientColor=none;html=1;whiteSpace=wrap;fontSize=12;fontStyle=0;container=1;pointerEvents=0;collapsible=0;recursiveResize=0;shape=mxgraph.aws4.group;grIcon=mxgraph.aws4.group_ec2_instance_contents;strokeColor=#D86613;fillColor=default;verticalAlign=top;align=left;spacingLeft=30;fontColor=#D86613;dashed=0;" parent="1" vertex="1">
          <mxGeometry x="370" y="180" width="160" height="70" as="geometry" />
        </mxCell>
        <mxCell id="t1x7EK1OemjOOLSHdHvf-23" value="" style="shape=image;verticalLabelPosition=bottom;labelBackgroundColor=none;verticalAlign=top;aspect=fixed;imageAspect=0;image=data:image/png,iVBORw0KGgoAAAANSUhEUgAAAgAAAAIACAYAAAD0eNT6AAAACXBIWXMAAA7DAAAOwwHHb6hkAAAAGXRFWHRTb2Z0d2FyZQB3d3cuaW5rc2NhcGUub3Jnm+48GgAAIABJREFUeJzt3Xt0nXWd7/HPdyfpBcoMF/ECozOjHrkIIoKecTiSHaiDpbsdxSSLtrQsZ6ApoG3wDJcDaBoFgZGRtOhAKwNDaasrrbd2F0QL2UGZ8TAULzByGZzjXACVq0JbIMn+nj/SQqm9ZO/svX/P73ner7VcrBWTZ39ZJHk++f2e/fuYuwsAAGRLLvQAAACg8QgAAABkEAEAAIAMIgAAAJBBBAAAADKIAAAAQAYRAAAAyCACAAAAGUQAAAAggwgAAABkEAEAAIAMIgAAAJBBBAAAADKIAAAAQAYRAAAAyKDm0AMAaDy787Z3qan8d5ImSXa+56c/GHomAI1l7h56BgANYqVv7y81XSxZt6SJ2z48JPOb5Xap5wtPh5wPQOMQAIAMsN7enE487gyZ/lbSm3b9SXpWrs/pqa1f9o6OkcZOCKDRCABAylmpmJfUJ+mYMX7JQ3I739um31G/qQCERgAAUsru/s5bNdJ0hUxnSLIqLlHUiC3yk6f/e61nAxAeAQBIGSsW99EUXSjpIkmTxncxvSLpBm1p+oxPm/a7WswHIBkIAEBKmGQa3NAu+TVyva3GF39CZevV3ffd6D095ZpeG0AQBAAgBay07nipqU/yE+r7Sn6f3Lu9beY99X0dAPVGAAAiZt9fd4gmWI/KdpasYQd7uaS1Kucu8JNO/Y8GvSaAGiMAABGyNWsm6ODJ50j6vKT9wgyhLXJ9UZpylefzLwWZAUDVCABAZGywOENSn1xvDz3LNv8t16VqK9zqo6sDACJAAAAiYXdvOEJlv1bSKaFn2Y1BKdft+VN/EnoQAHtHAAASzu6440BNGuqR6zxJTaHn2SNXWdIqlcsX+Mkzfx16HAC7RwAAEso2bWrR7371CZlfIekNoeep0POSXaWtuT6fNu3l0MMA+H0EACCBrLRhquR9kt4depZx+jeZXeqt09eEHgTA6xEAgATZoaa3EHqWGttI7TCQLAQAIAF2U9ObNtQOAwlCAAACGlNNb9pQOwwkAgEACKSKmt60oXYYCIgAADRYDWp604baYSAAAgDQIDWt6U0baoeBhiMAAHVW15retKF2GGgYAgBQR42r6U0baoeBeiMAAHUQqKY3bUZrh4f1Nz618J+hhwHShgAA1NCrNb2mz8n1B6HnSQVqh4G6IAAANZLAmt60oXYYqCECADBOEdT0pg21w0ANEACAKtkPbj9YI+XPS36Wkl7Tu2vPbPvnQUGnqM6IZDeqKfcZ/9C0p0IPA8SIAABUKPKaXkkalvlNyjVfJisPa7h8kczOl2tC6MGqQO0wUCUCAFCB6Gt6TXfJct1+4qkPvO7DA+sOUy73JblODTXaOFE7DFSIAACMQQpqeh+T2SV7u0FaacNUmZbI/chGDVZj1A4DY0QAAPYgBTW9myVdo61NV451idw2bWrRC0+eK6lX0h/Wdbr6oHYYGAMCALAL0df0usqSVslyF3r+1F9Vcwm781sHqbnls3KdpxgfcqR2GNgjAgCwk+hrek33yn2R52f8qCaXu3vdsXLrk9uJtbheANQOA7tAAAC2sdLtfyQf+ULENb2Py3VJvQ7KscHiDLmWSPrTWl+7QagdBnZAAEDmRV/Ta9oi9+ukly73fMeLdX2pf14zWS/vs1DySyXtV8/Xqgtqh4FXEQCQWSmp6S1Kw5/y/Ed/2cgXtbuKh8p0ZbSrJdQOAwQAZFP0Nb2m++Va5PnCD4OOMbj+/XJbIumDIeeoHrXDyC4CADIlBTW9T0u6PElPtptkGijOlelqSW8OPU8VqB1GJhEAkAkpqOkdkun6JO9d2/e+t68mvHKBon6WgtphZAcBAKmXgpreospN3X7StF+EHmQs7O7vvFUjTVfINDf0LFWidhiZQABAqlmpOCApH3qOKj247VjbjaEHqca23oRrJR0VepYqlTxfaAs9BFAvMe6BApXIhx6gCs9J6pamHBvrzV+SPD99owY3HSPXmTL9JvQ8VciHHgCoJ1YAkGpWKsb0Df5qTW/aOu7thxsOiLF22POF+N7iCIwRAQCpFk0A2E1Nb9rEVjtMAECaNYceAMi4MdX0poW3zXxE0vQU1A4D0eMZACCMzZJ6tbXpqKzc/Hfk+ekbNeXN75XULem3oecBsogAADSSqyzXrVLunZ4vLPZp014OPVIoftxxQ54vLNHI0DtkWiopEQcbAVnBMwBItUQ9A1Djmt60SWLtMM8AIM14BgCov9Ga3jwHy+yJnzjzx5JaU1A7DESBLQCgXkxbJL9a2nq4txVWcPMfG28trNfEre+W7GJJL4SeB0grtgCQagG3AILU9KZN6NphtgCQZgQApFrDA4Dpfsm6vXX6Dxr6uikXqnaYAIA0YwsAqI2nJXXrN1s/wM2/9rx1xr8oXzhBrjMl/Sr0PEAaEACA8RmSaam2Nr3D84Ul3tHBW9nqxCX3tsIKvTLhnZJ6JVHZC4wDWwBItTpvAURV05s2jagdZgsAaUYAQKrVKQA8LPNPe+uM2+twbVTIBje0Sd4n13tqfW0CANKMLQBg7LbX9B7NzT85vHX6gEqbjo24dhgIghUApFqNVgBSW9ObNrWuHWYFAGlGAECqjTsAZKSmN21qVTtMAECacRQwsGuZqulNG2qHgb3jGQDg9TJd05s21A4Du0cAAEY5Nb3pRO0wsGs8A4BUG9MzANT0ZkoltcM8A4A04xkAZFlma3rtztvepaby30maJNn5np/+YOiZGoXaYWAUWwDIngzX9Frp2/tbaf1Vair/TFJB0lTJ77fB9cusVHxD6PkaidphZB1bAEi1XWwBZLKm13p7czrxuDNk+ltJb9r1J+lZuT6np7Z+OWudBrurHWYLAGlGAECqvRoAMlzTa6ViXlKfpGPG+CUPye18b5t+R/2mSqada4cJAEgzAgBSzUrFpyRdnsm/al8ry3ndX7UVKGrEFvnJ0/+91rMlmUmmgeJcma72fOEtoecB6oUAgFSze9bt5yfMzNT+rhWL+2iKLpR0kaRJ47uYXpF0g7Y0fcanTftdLeaLRRa/d5AtBAAgJUwyDW5ol/waud5W44s/obL16u77bvSennJNrw0gCAIAkAJWWne81NQn+Qn1fSW/T+7d3jbznvq+DoB6IwAAEbPvrztEE6xHZTtL1rC39bqktSrnLvCTTv2PBr0mgBrjHIAM6+rqagk9A6pja9ZMsFJxkVpyD8ttfgNv/tLoA4Udair/3ErFxVYqje85AwTD74BsIwBkVPuc+VOfeUE/Dj0HKmeDxRl64+SHNPrWvv2CDeLaR1KP9OK/2UBxnlX3TgME9MwL+teOOV0doedAGGwBZMxpp89/V85yfyfzgiStXb2MX9qRsLs3HKGyXyvplNCz7MaglOv2/Kk/CT0IxqZ9dtf2G8DGcjl3/je/fn1mjoQGASAzPvaJT+zf9FLLxTLrljRx+8cJAMlnd9xxoCYN9ch1nqSm0PPskassaZXK5Qv85Jm/Dj0O9myHACBJw3LdNMF06erVy54ONhQahgCQcr29vbkHH33yDHf/oqQ37vz/EwCSyzZtatHvfvUJmV8hKbZz+p+X7CptzfVRrZxcOwWA7Z6V+edyQ89/ub+/P1OHZ2UNzwCkWMesc/IPPPLE/e5+i3Zx80dyWWnDVL3w5I9lvkzx3fwlaX/Jr9LkkQdscAN7zHE5UG595eYDHjht9oKPhB4G9cMKQAp9dNZ5b23ODV8h19y9fS4rAMmyQ01vIfQsNbYxa7XDMdjNCsDruRWVyy1au+rvM3UkdBYQAFJk5syufSbupwvdx34ELAEgGaz07f2lpoul1z+jkTJDMr9Zbpd6vsAecwKMKQCMekWmGybZxM+sXLk0U0dCpxlbAClgZtYxp6tjwn56yF09Gu/572gY6+3N2UBxntT8sGQXKb03f0lq2XZmwSNWKi6yNWuS/UAjdjRBroUvlV9+uH3Ogvm9vb3cO1KAFYDItc9acLzMl0j682q+nhWAcKqo6U2bzNYOJ0UFKwA7sU2es0XfWHk9R0JHjAAQqb+c9deHtKi5R6azNI6VHAJA49WgpjdtMlk7nATVBwBJ246Edhu54BurbuRI6AgRACLT2dk5odyy/zly+7xqcAocAaBxalrTmzYZrh0OaZwBYJRpi0lftKF9r+7v/9LWGoyFBmEfJyLtsxfMKDcf8JDcwh4Bi4qYZDa4oUP76SGJZzR2yUf3mLXPyEM2sGG+scccD9c+7uopN29+tGPOgnlmxh8VkWAFIAKnnX72Eblc07WS1/wIWFYA6qtxNb1pQ+1wI9RkBWAnLg02mXf3r1rOkdAJRwBIsM7Osw4stzTV9QhYAkB9BKrpTZvR2uFh/Y1PLfxn6GHSqB4BYJuyTKuGvHzBd1Z/lSOhE4oAkEBdXV0tz7zo58ptsaT96/laBIDasjVrJujgyefI9Dm5/iD0PKlg2iLXF6UpV3k+/1LocdKkjgFguxfN9Hebn5t45W23LeVI6IThL5OEebWmd3Sfv643f9TW62p6ufnXDrXDMZvirp599n/5AWqHk4cVgITYuaa3UVgBGL8IanrThtrhGmnACsDOqB1OEAJAYLur6W0UAkD17Ae3H6yR8uclP0tJr+ndtWe2/fOgoFNUZ0SyG9WU+4x/aNpToYeJVYAAIElDct1M7XB4BIBA9lbT2ygEgMpFXtMrScMyv0m55stk5WENly+S2flyTQg9WBWoHR6HQAFgO2qHAyMABNAx65y8WzkRR8ASACpjpQ1TJe+T9O7Qs1TFdJcs1+0nnvrA6z48sO4w5XJfkuvUUKON07/J7FJvnb4m9CAxCRwAtnuoLPv0N1ff8N3Qg2QNAaCBKqnpbRQCwNikoKb3MZldsrcbpJU2TJVpidyPbNRgNUbtcAUSEgBGUTvccASABqimprdRCAB7loKa3s2SrtHWpivHukRumza16IUnz5XUK+kP6zpdfVA7PEaJCgCjqB1uIAJAHZmZtc+e3+7SNXK9LfQ8u0IA2DXr7c3pxOPOkOlvJb0p9DwVc5UlrZLlLvT8qb+q5hJ257cOUnPLZ+t5EFVdmZ6V63N6auuXvaODPeZdSGAA2O5JmS0++l1vubGnp6ccepi0IgDUyXhrehuFAPD7oq/pNd0r90Wen/Gjmlzu7nXHyq1PbifW4noBUDu8GwkOANtQO1xPBIAaq1VNb6MQAF5jpdv/SD7yhYhreh+X6xK1FW710WN0a8oGizPkWiLpT2t97QahdngnyQ8AkqgdrhsCQI3Uuqa3UQgAKajpNW2R+3XSS5d7vuPFur7UP6+ZrJf3WSj5pYro+/xV1A6/TiQBYBS1wzWX+L9QY0BNb5xSUtNblA+/2/MzLq73zV+S/IMdWz0//WqVdYRct6oOKw11Re1wvKgdrjlWAMbhtNMXHJPLlfsky4eepUoPrl297OjQQ4QQfU2v6X65Fnm+8MOgYwyuf7/clkj6YMg5qpft2uH22V0PSDoq9BzV8VK5nOv+5tdv+GnoSWJFAKhCI2p66+w5mfc+88ShXxkY6BkOPUwjpaCm92lJlyfpyXaTTAPFuTJdLenNoeepQmZrh3c4kfQaSQeHnqcK1A6PAwGgAqM1vfYJd7/CYj0C1nVTbmTosv7+mzJ1fnoKanqHZLo+yXvX9r3v7asJr1ygqJ+lyGbt8Jw55x7wcnl49EhoxXkktJldtfm5CX3UDo8dAWCM2ufMn7ptjz/KI2BNdpflvLt/5bIH9v7Z6WKDxRkareh9e+hZqlRUuanbT5r2i9CDjIXd/Z23aqTpCllyTrys0H/LdWm93k2RZJ1zzz2sPDL8JcmiPRLaTJeuWbWMI6HHgACwF6FqemvG9ZjldElWfyCsVByQlA89R5Ue3Has7cbQg1RjW2/CtYp2j1klzxfaQg8RwrY/eJZIivZIaGqH944AsBuha3prYLOZrtn83MQrs7wkZqVijN/gz0nqlaZ8xfP5qJ/RePVExZy+KA/Xelktzxcy+6T56Jannyu3eI+EpnZ4jwgAO0lKTe84uEwrc0PNF/b3f6WqI2DTJLIA8GpNb9o67u2HGw6IsXY4ywFgu9PO/ORBueGheI+EpnZ4twgAO0hSTW81XH6vcr7oGyu/WpMjYNMgmgCwm5retImtdpgA8Jr2Weccq9Hfj/EeCW1+/tpVyzkSehsCgF5X0xvtEbBmdsna1ctudf6Dvk4EAWBMNb1pE0vtMAHg97XPXjBD8qWS/iT0LFWhdvhVmQ4ASa7pHRPTFpX9utxIy+X9/V+p+ylwMUpwAKi4pjdtYqgdJgDsWmfnpyd7y5aF7pEeCU3tsKSMBoAYanr3yq04IvvUt752/S9Dj5JkiQsANajpTZsk1w4TAPass/OcQ8st5SsjXj3NdO1w5gJA+6wFx0vlPplFewSslcvda7721R+EHiUGiQoANa7pTZsk1g4TAMbm46fPf79ytsSiPRJa93ku15212uHMBIDYanp35tLTZn45T7JWJiEBoK41vWmTpNphAsDYja6sds1196iPhM5S7XDqA0CsNb07GJLp+qzvVVUraABoYE1v2iSldpgAULl58+btu3Vk8gUxP1tl0henTHjlqptvvjnVR0KnOgBse1q1T4r0CFi34oh797e+viyKI2CTKGAAKErDn/L8R38Z6PVTwe4qHirTlbIwe8wEgOp97PSudzTldKWkjtCzVOm/zezSNL+7KpUB4LTTzz4il2u6VvJTQs9SpYet7J9e8/Xlt4ceJHYNDwCm+yXr9tbpPKNRQ6FqhwkA4/fxOV1t5uqT9J7Qs1TDpcEm8+7+Vct/EnqWWktVAKCmFztrYABIXE1v2oSoHSYA1Aa1w8mUigBATS92pwEBIPE1vWnTyNphAkBtUTucLNEHgNhremW6M2c6P4s1vY1Q5wAQVU1v2jSidpgAUB/UDidD/AFgdlec/wIZr+ltlDoFgIdl/mlvncEzGglggxvaJO+T136PmQBQX7HXDq9dvSzq74/o3g+fApvN1LvltxOP4uYfneckdUtTjubmnxzeOn1ApU3HynWmTL8JPQ/Gbu2q5RsP2k/vlXm3pN+GnidrWAFonLJMq6jpbawarQCktqY3bWpdO8wKQOPEWDsc+wpAc+gBsoCa3ohlpKY3Lfx/TX9O0sU2sO7mmGqHIX3zli8/I2lR+6xz/lHmSyT/UOiZ0o4AUF+Pm9kl31i9PLUHSaRYJmt608LbZj4iaXostcN4zdqvXf9jSSdGXzscAZ4BqIfRI2Cvzg03H75m1Q0ruPlHZbOkXm1tOoqbf/w8P32jprz5vZLYY47M2tU3rM8N73ukmV0s6YXQ86QRKwC15lYccWp6I+RyraSmN338uOOGJC2xO7+1Mqm1w9i1/v4vbZV0dWfnOSsjrx1OJAJArZjuz7kW9X/thh+GHgUV2l7T20ZNb5r5yR97RtIiu3vdPyatdhh71t9//eOS5n389PnXRV47nChsAYzfkzLryg0994H+1cu4+cflcbnOVGvhzzzPzT8r/MSZP/bWGa0yzZT0/0LPg7H7xteX/8s3v7b8BDM7UxIrdeNEAKjekExLJ+UmHr521Q3L+/v7Of89FqYtkl8tbT3c2worfLQHHBnjrYX1mrj13RJ7zDFxd1+z6oYV+zRvfaeZeiWlurK3ntgCqAY1vTEryqnpxSj/YMdWSVfbXcWVIWuHUbkVK1ZslrT4Y6d33Rp57XAwBIDKbKvpXcYpcLGhphd74CcVHpc0zwbXXxeidhjV2/aHWGfstcMhsAUwNs/KvPuZJw85es3Xl3Pzj8vTkrr1m60f4OaPvfHWGf+ifOEEudhjjsw3Vi0bOPqwQ47d9nwAJ3aOAUcB74XJr7Ph8uL+/hufrefroD7snnX7+Qkz2d9FxfjeiVdn51kHlpuaemX6ZD1fJ/ajgAkAexH7f2AAyCruD3vGFgAAABnEQ4BABtldt79DuZE+SZOUs4V+4vSHQs8EoLEIAECGWLG4j6boQuV0kaRJkqSy/9QGi9eruXwZe95AdrAFAGSEDRZnaIp+LqlH22/+o1rkWqjh3MM2UJxnvA8eyAQCAJByNrDuMCsVvyvXOkl/vNtPdB0i0y0qFQfsznW8lxpIObYAgJSy0rf3l5ouVi53vlwTKvjSVjXlNtng+pvkdqnnC0/XbUgAwbACAKSMSWYDxXlS88OSXVThzX+7ZrnNl+kRKxUX2Zo11OcCKUMAAFLE7iq+T6XiPTLdIulN476g60BJfXrj5HttsMjxuECKEACAFLA77jjQBotLlNO9qsc59q73yXWPDRRX2J3rxh8sAARHAAAiZqVSsw1smK+JQ4/ItVBSPZfqTaa5aso9bKUNF9maNdVsLQBICAIAECkbWN8qe3GTzJdJekMDX3p/ya/SwZN/ZgMbTmng6wKoId4FAETGvr/uEDXnrpLZGfKg79k/TObftVKxqHLuk37Sqf8RcBYAFWIFAIiEbdrUYqXiIrXkHpZprpJzYE9BTeWfW6m42EqlSXv/dABJQAAAImClDVP1wpM/ldQnab/Q8/we1z6SeqQXH7TB4ozQ4wDYO7YAgATbobSnEHqWMXqHXOusVNxIyRCQbAQAIIF2WdoTl6mUDAHJxhYAkDB7KO2JDSVDQIIRAICEGHNpT2woGQISiS0AILBxlPbEhpIhIEFYAQACqVFpT2woGQISggAABFDz0p7YUDIEBEcAABqo7qU9saFkCAiGAAA0QINLe2JDyRAQAAEAqLOApT2xoWQIaCDeBQDUSYJKe2JDyRDQAKwAADWW4NKe2FAyBNQRAQCoocSX9sSGkiGgbtgCAGogwtKe2FAyBNQYKwDAONj3vrevDa6/QrmRf1V8N/+Rbf+LyVSV/cc2uP4K+9739g09DBAzAgBQJRssztCEV/5VbpdImhh6noqY3y3XcZKOkuz7ocep0ES5XaKJrzxKyRBQPbYAgArZwLrDZLklkmJ8q9qTcl2s/IxbXfJtH/uLbfvrX5brbSGHq8hrJUN/ZSPlhX7yzJ+FHgmICSsAwBhZ6dv7W2n9Vcrlfqb4bv5DMi3V1qbDva2wYoebvyTJWwvr9YKOkNQr6eUwI1Zte8nQMisVOWcBGCMCALAXKSjtuVMjI+/11sIinzbtd7v7JC8Utni+sFgqHyVpQ+PGqwlKhoAKEQCAPYi8tOe/5DrT84WpfvJf/nysX+T5mY95vlCQaaZM/17PAWuOkiFgzAgAwC5EXtqzVVKvNOVd3lZYUe1FvLWwXr/ZeoSkbkkv1my6RqBkCNgrAgCwgxSU9hSl4SM9X1js+fxL472Yd3S84vnCEpV1uFy31mLABqJkCNgDAgCwTdSlPaZHpdw0zxdmeP6jv6z15f2kwuPeVpgnqU3Sg7W+fp1RMgTsAgEAmWffX3eIDRRXyGxArveEnqdCmyX16jdbj/b8qd+t94t5vlCSphyr0W2B39b79Wpse8nQervrtj8OPQwQGgEAmRV5aY+PLsnn3un5wmLv6HilYS+czw97vrBEI0PvkGmpXOVGvXaNUDIEiACAjIq8tOfH8vKHvK0wz/On/irUEH7yx57x1sIiWfl/SvpRqDmqQskQQABAtthdt7/DSsX1kn9f0hGh56mI6VlJ3Xpq6/u9beY9ocfZzvMz71O+8OdynSnTb0LPU6HtJUPft7s3xPX9AIwTAQCZYMXiPlYqLlZu5EHFVtrjKst1q1yHeb6wxDs6Elfg45J7W2GFfPgwmZZKGg49U4Wmquw/tcHiErtnXWwrQkBVCABIPRssztAU/VxSj6S49nxN98r1wdHl/sLTocfZG89/9HlvLSyS63hJPwg9T4Va5Fqo4dzDlAwhCygDQmqlo7SncOvO5/bHwNsKP5V0IiVDQHKxAoDUSXNpT2woGQKSiwCA1MhKaU9sKBkCkokAgFTIYmlPbCgZApKFAICoUdoTH0qGgGQgACBKlPbEjZIhIDwCAKJDaU96UDIEhEMAQDQo7UkvSoaAxiMAIPEo7ckGSoaAxiIAINEo7ckeSoaAxiAAIOEo7cmqNJQMhR4C2BMCAFArEZT2xCYFJUNAYhEAgFqIrLQnNpGXDAGJRBkQMD5Rl/bEJuqSISBhWAEAqpOq0p7YRF4yBCQCAQCoXCpLe2ITeckQEBxbAMDY/Zdcl2Xp3P4YeH7mY5IK27YF+uR6e+iZgBiwAgDsXSZLe2ITdckQEAABANizTJf2xCbykiGgodgCAHbF9Kg8t4hz++PkJxUelzTPBjfcLPelko4KPROQNKwAAK9HaU+KeOv0gYhLhoC6YgUAGOVyrZTlLuTc/nTxfH5Y0hK781sr1dzyWZX1SRl//AD8EACU9mRC1CVDQB0QAJBtbl0a3HQ8pT3Z4fmZ92lw0wly6wo9CxASWwDING+bvlxt00OPgQbznp6ypOVWKi4LPQsQCisAAABkEAEAAIAMIgAAAJBBBAAAADKIAAAAQAYRAAAAyCACAAAAGUQAAAAggwgAAABkEAEAAIAMIgAAAJBBBAAAADKIAAAAQAYRAAAAyCACAAAAGUQAAAAggwgAAABkEAEAAIAMIgAAAJBBBAAAADKIAAAAQAYRAAAAyCACAAAAGUQAAAAggwgAAABkEAEAAIAMIgAAAJBBBAAAADKIAAAAQAYRAAAAyCACAAAAGUQAAAAggwgAAABkEAEAAIAMIgAAAJBBBAAAADKIAAAAQAYRAAAAyCACAAAAGUQAAAAggwgAAABkEAEAAIAMIgAAAJBBBAAAADKIAAAAQAYRAAAAyCACAAAAGUQAAAAggwgAAABkEAEAAIAMIgAAAJBBBAAAADKIAAAAQAYRAAAAyCACAAAAGUQAAAAggwgAAABkEAEAAIAMIgAAAJBBBAAAADKIAAAAQAYRAAAAyCACAAAAGUQAAAAggwgAAABkEAEAAIAMIgAAAJBBBAAAADKIAAAAQAYRAAAAyCACAAAAGUQAAABnpKkqAAATDklEQVQggwgAAABkEAEAAIAMIgAAAJBBBABkmg1smG+9vfwcZIz19uZsYMP80HMAIfGLD9lmvkytx91nA+tOCD0KGsNK645X63H3yHxZ6FmAkAgAgHSsLPcDGyiusNJtbw49DOrD7vzWQTZYXCLP/V9JfxZ6HiA0AgAwymSaK5Ufs1Jxsa1ZMyH0QKgNK5WarVRcpKaWX8i1UMbvPUAiAAA721dSj944+QEr3faR0MNgfGxwQ5v04o8l9Un6w9DzAEnSHHoAIJFc75LKt1upWJSGP+X5j/4y9EgYO7ureKhMV46u6gDYFVYAgD0rSM0/t1JxsZVKk0IPgz2zNWsmWKm4SDk9zM0f2DMCALB3kyX1SC8+agPFeaGHwa7ZYHGG3jj5IY0u908JPQ+QdAQAYOzeKtMtViputDu/c2ToYTDKSuveaaViUa51cr099DxALAgAQOVOVlPTT2ywuMRuv/0PQg+TVVYs7mOl4mIp96Ck6aHnAWJDAACq0yLXQk0eedgGivNMstADZYkNFmdoPz0kqUfSxNDzADEiAADj8xaZbtFg8Ud2V/EDoYdJOxsoHmOl4t3blvvfFnoeIGa8DRCoBdcHZPpnGyiukunTni88HXqkNLHSt/eXNffKdK74vQXUBCsAQK2YcjLNlekRKxUX2Zo1TaFHip1JZgPFebLmR+RaKG7+QM0QAJBw9mFJD4WeoiKuAyX16eDJ/0LJUPWstO54lYr/JNMtcr0x9DwV+oVMM0MPAewJAQCJ5vnpG7XfW46R1C3phdDzVIiSoSpEXdpj2iKpV5pylLcW1oceB9gTAgASz487bsjzhSUaKh8u162SPPRMFaBkaIxSUNpT1EjuSM8XFns+/1LoYYC9ie0HDBnmH575hLcV5sm9TaafhZ6nQpQM7YGVivmIS3sekdtHPF+Y4Sed+h+hhwHGigCA6HjbjEH5lOPk1iUprqftXysZWm+lb/9J6HFCs7uKh9pAcYWkAUlHhZ6nQs9LdrGe2voeb5t+R+hhgEoRABAlz+eHvW36cr3ccphMSyWNhJ6pQpkuGYq8tMflulUj5cM9P/1q7+h4JfRAQDUIAIian3LKs95aWKSyPiDpn0PPU6FMlgxFXdpjul+mE7ytMM9Pnvnr0OMA40EAQCr4SYX7lS+cINeZkmL7xZyJkqGoS3tMz0rq1m+2fsBbC7EFTWCXCABIDZfc2worpOHDJb9aptiWZlNZMhR5ac+wzJfLdZjnC0u8oyO2rSZgtwgASB3Pf/R5z8+4WOXyeyTF9nBWqkqGIi/tGdRI+ThvndHF0c5II47VRGp528xHJH3EBosz5LpO0h+HnqkC20uGzrMRfcpPKtwbeqBK2EDxGJmuk/Sh0LNUzPSEyvo/aivc6nGdOQFUhBUApJ63FtbrRR0pqVdSXAe0vFYytMJKxTeEHmdvrPTt/W2wuESm+xTfzX9IpqVqLh/ubYUV3PyRdgQAZIIXCls8X1isctNRkoqh56lIBCVDKSjt2aicHeOthUV+wszYjpwGqkIAQKb4SdN+4fnCDEqGaicNpT2eL3zYT5we1/cDME4EAGQSJUPjR2kPEDcCADKLkqEqX5jSHiAVYvvBBWqOkqGxo7QHSA8CALANJUO7R2kPkD4EAGAHlAy9HqU9QHoRAIBdoGSI0h4g7QgAwB5ksWSI0h4gGwgAwF5kpWSI0h4gWwgAwBiluWSI0h4ge2I7rhMILh0lQ+v/2sq2UKaXJVsq6cOhB6sYpT3AuLACAFTJWwvr9cqEd8v8C5JeDj1PRdxOlGmTpAclj+3m/7LMv6CXJ7yL0h6geqwAAOPgf/EXmyVdanfdfpNyI32SCqFnqkDiSoXGYKNyttBPLHBuPzBOBACgBvykab+QNMNKG6ZKvlTSEaFnSplfyHQ+5/YDtcMWAFBDkZcMJQ+lPUDdEACAGou8ZChJKO0B6ogAANRJ5CVDIVHaAzQAAQCos6hLhhqL0h6ggXgIEGgAz+eHJS23O+5Yq0lDPXKdpzifwq8Hl2ulyuULOLcfaBwCANBAfsopz0paZHcVb1FOX5b0wdAzBWW6X9InPc+5/UCjsQUABBB5ydD4UdoDBEcAAAJJQclQNSjtARKCAAAEFnnJUCUo7QEShGcAgISIvGRo9yjtARKJFQAgYby1sF4v6khJvZJiPgBnSKalai4fTmkPkDwEACCBvFDY4vnCYpWbjpJUDD1PFTYqZ8d4a2GRnzCTI5GBBGILAEiwCEuGKO0BIsEKABCBxJcMUdoDRIcAAEQiwSVDlPYAESIAAJFJUMkQpT1AxAgAQKQClgxR2gOkAA8BAhFrcMkQpT1AihAAgBSoe8kQpT1A6rAFAKRIzUuGKO0BUosAAKRMjUqGKO0BUo4AAKTUOEqGKO0BMoBnAICUG3PJEKU9QKawAgBkxB5KhijtATKIFQAgQ7xQ2CJpsZXWrZRyfaMfLXd768zHgg4GoOEIAEAGeX7mY5IKoecAEA5bAAAAZBArAHvRPqvrutzISE9//43Php4FALB3nZ1nHVhuauqVhZ4k2QgAe2P6ZLm5aU7HnAVX29Cz1/b391fznmoAQJ21tfU2H3TIk3+l5qbLJR0cep6kYwtgbA5w96vKzQf8rH3OglNDDwMAeL3TZp990kFveWKT3JeJm/+YsAJQmcPkvqF9dtfGcrm88Jtf/+pDoQcCgCzrnHvWO8sjTV/IKdcRepbYEACqMzWXy/20fU7X9bkhfba/f9lvQw8EAFkyb968fbeOTL7AvekiSZNCzxMjtgCq1yLXwnKzftE+Z/6izs7OelWwAgC2MTPrmLNg3pbhyY+5q0fc/KtGABi/g+TWV2454N6OWWd/KPQwAJBWHz99/vtPmzX/Hne/RdKbQ88TO7YAasX1Prfc3e2zFhRHZJ/61teu/2XokQAgDTo7zzm03FK+0nJ2hsSb+2qFAFBr5oUm+cnts+YvzY20XN7f/5UXQ48EADHq7Pz0ZG/ZstCb/TK5poSeJ23YAqiPyTK7qNw8/HDHnAXzzIzECgAVaJ+9YEa5efPP3f0qiZt/PRAA6utQd7/ltFln/+jjZ5z9Z6GHAYCk+/jpXe9rn73gbsnXSfqT0POkGVsADWCyD6hs/9Q+p2tlbqj5wv7+r/wq9EwAkCSnnfnJg3LDQ5+1nM6TnHdVNQABoHFMrrnl5uHTOuZ0XTNlwitX3XzzzS/t/csAIL26urpannnRz8259Ur6w9DzZAlbAI23r7t6XnhpwgMdc7o4uQpAZrXPmT/1mRf0E7n1iZt/w8UfAMw/LOnB0GNUzPROd/V3zF5wZ+cZXUeHHgcAGqVz7rmHtc+ev0Fu35d0ZOh5qvCo5XxG6CHGy9w99AzjNrqEZJ9w9ytMekPoeaowLNdNuZGhy/r7b3oq9DAAUA9z5px7wMvl4Ytkdr6kCaHnqcLzZnbV5ucm9N1229KXQw8zXqkIANt1dp51YLmlqUeu8yTF+BDJczLvfeaJQ78yMNAzHHoYAKiF3t7e3IOPPnmGu1+jOJv6yjKtGvLyBd9Z/dVfhx6mVlIVALY77fSzj8jlmq6V/JTQs1TpEZl9eu2qG24LPQgAjMdps88+KafctZLeE3qW6nipXM51f/PrN/w09CS1lsoAsF377AUzJO+T9PbQs1SJ2mEAUdpe0ysp1oed/8vMLlu7etmtntIbZaoDgCR1dnZOKLfsf47cPifpD0LPU4UhmagdBhCF12p6FWdNr2mLSV/Mwlu1Ux8AtvvLWX99SIuae2Q6S3G+++EZmX8+N/T8l/v7+0dCDwMAOzIza5/dNdfdr1acTX0uaW1uWH/T37/sP0MP0wiZCQDbtc9acLxU7pPZCaFnqYrpfiuXu9d87as/CD0KAEijNb3K2RKTPhh6lird57lc9zdWXn9P6EEaKXMBQNqeVOe3u+uLkv449DxVcaN2GEBQ22t65YqyptekJ9ys9+h3veXGnp6ecuh5Gi2TAWC7mTO79pm4ny6Mdq9K2ip3aocBNNSrNb3ulynOpr5XZLphaNLwZd/5h394IfQwoWQ6AGz38TPO/iPz3BdiTbGSHjezS9L8tCqAZNj27qqlirWpz62oXG7R2lV//++hRwmNALCDztnzW8uyPknvDT1LNVx+r3K+6Bsrv/qj0LMASJePn971PstZn+QfCj1LlR6S+flrVy2/I/QgSUEA2Mn2E6vk/rcuvSn0PFVwmagdBlAT22t6Iz5h9VmZf453UP0+AsBufOwTn9i/6aWWi2XWLWli6HmqsNlM1A4DqMr2ml7FW9M7JNfNE0yXrl697OnQwyQRAWAv2ucs+B9yv0KxnmblesxyumTNqmVrQo8CIA7tc+ZPldsSxdnUJ0kbJe9eu3r5v4YeJMkIAGO07QfiWklHhZ6lGia7y3Le3b9y2QOhZwGQTJ1zzz2sPDL8JclODT1LlR61nP/vNSuXF0MPEgMCQAWoHQaQRtT0ZhMBoArUDgNIA2p6s40AMA7UDgOIFTW9IADUALXDAGJBTS+2IwDUCLXDAJKMml7sjABQY9QOA0gSanqxOwSAOqF2GEBo1PRiTwgAdUTtMIAQqOnFWBAAGoDaYQCNQE0vKkEAaCBqhwHUCzW9qBQBIABqhwHUCjW9qBYBIBBqhwGMBzW9GC8CQGBpqR3e/NzEKzmDG6g/anpRKwSAhKB2GMDeUNOLWiIAJAy1wwB2Rk0v6oEAkEDUDgOQqOlFfREAEozaYSCbqOlFIxAAIkDtMJAd1PSiUQgAEaF2GEgvanrRaASAyKSldniSTfzMypVLfxd6GCA0anoRCgEgUrHXDrv0tJlfziEgyCpqehEaASBy1A4D8aGmF0lAAEgBaoeBOFDTiyQhAKQItcNAMlHTiyQiAKQQtcNAclDTi6QiAKQYtcNAONT0IukIAClH7TDQWNT0IhYEgIygdhioL2p6ERsCQMZQOwzUHjW9iBEBIKOoHQbGj5pexIwAkGHUDgPVoaYXaUAAALXDwBhR04s0IQDgVdQOA7tHTS/ShgCA30PtMPAaanqRVgQA7BK1w8g6anqRdgQA7BG1w8gaanqRFQQAjAm1w8gCanqRJQQAjBm1w0granqRRQQAVIzaYaQFNb3IMgIAqkbtMGJGTS+yjgCAcaN2GDGhphcYRQBATVA7jKSjphd4PQIAaoraYSQNNb3ArhEAUBfUDiMJqOkFdo8AgLqidhghUNML7B0BAHVH7TAahZpeYOwIAGgYaodRL9T0ApUjAKDhqB1GLVHTC1SHAIBgqB3GeHzs9K53NOV0pWJ90JSaXgRGAEBQ1A6jUtT0ArVBAEAiUDuMvaGmF6gtAgAShdph7Ao1vUDtEQCQONQOYztqeoH6IQAgsaKvHTZtUdmvo3a4cjvU9F4qab/Q81SBml4kHgEAiUftcLZQ0ws0BgEA0aB2ON2o6QUaiwCAqFA7nD7U9AJhEAAQJWqH40dNLxAWAQBRo3Y4TtT0AuERAJAK1A7HgZpeIDkIAEgNaoeTi5peIHkIAEgdaoeTg5peILkIAEgtaofDoqYXSDYCAFKP2uHGoqYXiAMBAJlA7XD9UdMLxIUAgEyhdrj2qOkF4kQAQCZRO1wb1PQC8SIAILOoHa4eNb1A/AgAyDxqh8eOml4gPQgAwDbUDu8ZNb1AuhAAgJ1QO/x67bPOOVbmS6jpBdKFAADsArXD1PQCaUcAAPYgi7XD1PQC2UAAAMYgK7XD1PQC2UEAACqQ1tphanqB7CEAABVKU+1wS8ukYWp6gWwiAABV6uz8q4NHmls+b9JZivMhuWe2/fOgoFNUZ8SlG5uGhz7T33/TU6GHAWJEAADGKQW1w5GhpheoBQIAUCMpqB1OOmp6gRoiAAA1lILa4eShpheoCwIAUAex1w4nBDW9QB0RAIA6ir52OBxqeoE6IwAAdZaK2uEGoaYXaBwCANAg0dcO1xc1vUCDEQCABktB7XBtUdMLBEEAAAKJvXa4BqjpBQLi6WQgkP7VywePPuyQ48zsTJN+HXqeBnpW5t254eeO5uYPhMMKAJAAKagdHgtqeoEEIQAACRJ97fDuUdMLJAwBAEig2GuHd0BNL5BQPAMAJNDaVcs3HrSf3iezLpdiXC5/3swu3vL8xPdw8weSiRUAIOE6O886sNzS1CPXeUp+7XBZplVDXr7gO6u/mqUHG4HoEACASCS/dpiaXiAmBAAgMgmsHaamF4gQAQCIUCJqh6npBaJGAAAiFqh2mJpeIAUIAEAKNLB2mJpeICUIAEBK1LN2mJpeIH0IAEDK1Lh2mJpeIKUIAEBKjbt2mJpeINUIAEDKVVE7TE0vkAEcBQykXAW1w9T0AhnCCgCQIbupHaamF8ggAgCQQZ1zzz2sXB65VpJyuabz+2/9+0dCzwSgsQgAAABkEM8AAACQQQQAAAAyiAAAAEAGEQAAAMggAgAAABlEAAAAIIMIAAAAZBABAACADCIAAACQQQQAAAAyiAAAAEAGEQAAAMggAgAAABlEAAAAIIMIAAAAZND/Bw/hOeKCJFOPAAAAAElFTkSuQmCC;" parent="t1x7EK1OemjOOLSHdHvf-20" vertex="1">
          <mxGeometry x="50" y="15" width="40" height="40" as="geometry" />
        </mxCell>
        <mxCell id="t1x7EK1OemjOOLSHdHvf-74" value="Elastic&lt;br&gt;agent&lt;br&gt;with&lt;br&gt;Logstash" style="text;strokeColor=none;align=right;fillColor=none;html=1;verticalAlign=middle;whiteSpace=wrap;rounded=0;spacing=0;" parent="t1x7EK1OemjOOLSHdHvf-20" vertex="1">
          <mxGeometry x="100" y="20.000000000000004" width="50" height="30" as="geometry" />
        </mxCell>
        <mxCell id="t1x7EK1OemjOOLSHdHvf-56" value="EC2" style="points=[[0,0],[0.25,0],[0.5,0],[0.75,0],[1,0],[1,0.25],[1,0.5],[1,0.75],[1,1],[0.75,1],[0.5,1],[0.25,1],[0,1],[0,0.75],[0,0.5],[0,0.25]];outlineConnect=0;gradientColor=none;html=1;whiteSpace=wrap;fontSize=12;fontStyle=0;container=1;pointerEvents=0;collapsible=0;recursiveResize=0;shape=mxgraph.aws4.group;grIcon=mxgraph.aws4.group_ec2_instance_contents;strokeColor=#D86613;fillColor=default;verticalAlign=top;align=left;spacingLeft=30;fontColor=#D86613;dashed=0;" parent="1" vertex="1">
          <mxGeometry x="-45" y="290" width="160" height="110" as="geometry" />
        </mxCell>
        <mxCell id="t1x7EK1OemjOOLSHdHvf-82" value="&lt;span style=&quot;text-align: center; text-wrap: nowrap; background-color: rgb(255, 255, 255);&quot;&gt;Dynatrace&lt;br&gt;OneAgent&lt;/span&gt;" style="text;strokeColor=none;align=right;fillColor=none;html=1;verticalAlign=middle;whiteSpace=wrap;rounded=0;spacing=0;" parent="t1x7EK1OemjOOLSHdHvf-56" vertex="1">
          <mxGeometry x="101" y="69" width="50" height="30" as="geometry" />
        </mxCell>
        <mxCell id="t1x7EK1OemjOOLSHdHvf-86" value="" style="shape=image;verticalLabelPosition=bottom;labelBackgroundColor=default;verticalAlign=top;aspect=fixed;imageAspect=0;image=data:image/png,iVBORw0KGgoAAAANSUhEUgAAAOEAAADhCAMAAAAJbSJIAAAAkFBMVEUUlv////+h1f8Akv8Aj/8Akf8Ajv+m2P8AlP+d1P+n2f/5/f/0+v/o9P/J4/+Bxf8bmf++3f/e7v+Gwf/u9/87ov8xn/93uv/h8P8/pf/U6f8rnf+ezf9rtf/D4P+Zyv95wP+w1f+q0/9dr/+Sxf9/vf9os/+PzP9Oq/+32f+Myv9quP9Vrf/O5v9nt/99wv8WkTMMAAAWx0lEQVR4nN1d6YKqurLGDoE40yoojdjOYo/v/3aXIQEyISmw176n/qy9bTH5qLmSVKzB02ky/b4fz5c4Cf0g8iwvCvwwiS/n4/17Onn+8NYzf3w6215CDzkYY0RysjIq/hOlnzrICy/b2fSZk3gWwtXrMkGOjRkqHaV/x7aDwuXrs2A+A+H0EEcZ1xqhCUBTjnrr++oJs+kb4Xi2DBz8gHE6dmInWO/GPc+oV4Tj+xXZCACuhtJG8WuvIHtE+HrFWMe7lKm5dSkotzlaPhOMrq/9TasvhG9rpISX20wHW16QnNaX5fn8fj4vL+tTEnhW+nlmY1VP2dZy09PM+kF4CBx5ormVtK7L424xUcndeLLYHZfXKLW4slUiyAkPvcytB4SrM8LyBLEdxcfvVh59cV+GyJZEIJXWcw/GtTPCRSxyIOOdf96ZTW7yvT1hW/wlhOPOwtoR4eIkiidyossrMBjLPI1giolzWnSbYieEi5PN48N28N7tpW/eA0Feid0NYweE0yvPP+J0hVfQ5j1yOAtLnGuHkA6McLzk+Ecw/nyDT0OgtzXhGEnsJTgKgCI8EsTNIDr2mwiN7z4nIYgcgb8EQ/gW1V8xsZMdcPjGQa71CJDgACYjIISX+uslTtyfePI0vdRNK3EukB8BINxZ9WHt9TPz19UF1wbDFkBWzBGuawwkzlPxZTQVxjP+AVOEb17tnTpfht5hPFmtVsogtYE2J6dmcTxTlTBEeK69UBzMWk5xdjzHX2Hk5XFYFpl5UfgVn4+zli9oFlSGjThnsykbIVz5VYhNcAvzvdptY58mSaQq2bBSlO1gP962iWCPtYgVh0YhrwnCGam9ydOjYaaHdYTljEGkNEzH0frwSJ0ncSU9hLQUnpwMEL7Xx7g3fnW8W0YG1ZqsQhMtH1RodpUFIM57+2m3Rjj+sssZ2aemyYzvV8NKWz5rhPHp3giyZlXtr9bmqi3CVVB7g4eGL86u6nJGK5SYxE0CuKveGwraRoktES4qiWtS9OnZsqHwKEjbOut1cnwqBYmQljlVO4S7ki3EWWq/NTuJSToII7JP39oxtqWkErtdgNMK4bF0uQRr63x3VTUKCNIJtJbsu/I5Tqt0ow3CbQkQRToJOnhg7VNitCPdq6w5ZWfbD8L3EqB91Xzl3i++YrBAhzEulbGN13iM8FwC1KngW9jRvOgwhpoYtDalxyHcQ4QlB3Viv4p70z+R0tRTbbcP5ZCPufgIYamDBKs91fZp+AqMalX7LrXioS4+QHisAColZuNL5e6eCfvKBGRRBiCPLGozwkPlJpT+dflUBtKR1bo2tUouNsfIjQi/K4CqFzl9OgMLwr7KR029EqI+QHiAcFFFMqohjn/AQDq8UhInDCLBTZl0A8JJOQBS/ULs6Cb0BHJixQxWpaBaDWF4A8KAvSJboYObqNNqtjEpo6kpi+CID0F4YhCwQszv/ccwD4hghUHZMIjoZI7wnYVGjiKEf/9LCWWkcu5vbCK21vPrEM7YoyolrwLDPyVboYz3cp661FmDcMXYbyti0eRvnIRMOJEnc6ZvmxBNYq5B6DP5lrOJcfC3NqZOKJDLMzF93zpro0a4ZE9F0p8mwV/bmDoRRXmGcQOr8wwlQhbLECyZ6JX3LwGmU/IkYSw1Sh3bqBCOmSeVzegk+rcAM7GSuMisIlGyS/VhTBVNZvv4n4poQUTWRebZkCryUSB8Za8klP7k/3uASpOSMKFTFD4UCEsZlSQ++XdWtE5IchoTGmKp5FT+6EJh2AfxLzHQDxKCym2JFeWfwn4QS9LI5A7JC+ESQhYHESnSO0MimQxakPys93OR9uufL5+YL3BkZEsWYk354kilCAlhxGYm6vMBEIsSFF3n7shN6UWk7EN3dPsJIBjlpRPmxSQPLiI8UkmUZHRhzkFEvm4KaCLQ2xdAWqWMbkcZIC3cCgjH7MCAqMxjzxifdR0+gkdBvnxaxhg9UcZidtRB+IOAcMnMjBjMfBlOAZG2+AqMP6YYyZcwwwmVdizkCjzCKRVFLGZbWzMZJUb4YBhtsVB6oHMUuMMjvFJOe8LDCzMrgxJDfDnGoaG7dcTqEQ24CJ8PcQgZECk0MAvW0M/IGF9Go7URRBIIs2QJg8NZIQ7hSWNmlkauHp1gAFOIsdGbFDWunD+nonWEzCE4giU2k1FiAfGl5JrlZuJEN3Sidt3t1xFSe0nEmMhMRsmnuQ6WCD/NhhLllIo5x8QaQsYqW9DgrVk4im5wHr7czIwNFuzplE61boRqCJnLFLb/TQ2jNa8DwJcXw8DCEfw2TRvq5rRCuMLqh65mbopEcCFNxdSwhiBq1IrJYQWiQnim8AUWvhmykISdEJrm2GIuQZmIKjNbIWQht2CfQtNoKumEMDEdTihEbFhUJiM8YDpB/olX05SCXDshPJmG4LYQndAfwAcJIRUPsThuXFvr4ixShD+mhRKxpEsDm6qYwxBSdRO/fzfOCsm+E8K9cRplC2tSjFVMQRnCC2WukD+al0fRPJ/q0Jzy5+bGxS6RKUzdWMWGIaSZL+bLrcZayBy++UTpq/kwf1DQxDH1CYRH+EqBC+4FUADGw1zYAAhz8b6Z1/PE+umaMuuVQ0gtkFD5/wYUn3A2T8P4sphoYaIAFUth1syknOoIJ5SFgkgbm+6MstTJNQyE8sFzNzMCDCkWPiNO4wqE9wIh4suQU0CBlAQ5QlPHbbFQYQRZ+hHqFu8FGiqmBUL6yoV45gwo4hdBm3HwlT3pQ58UOUPjGhp+5wiZ+RGE1LzEV3ICsMpIPCj3peWKoPgYjUuEswK08CpmoCp+rk0uqC9G/iRI920+EntHtU9zhLRKKhQFANaCWcQh6NEhKGzLH+XLa7SaUSQYOcLC7Qk1xDFoYagI2gxT9YLyWAEQtuXD8oVuCihgCGkWT/iVqVfQWloRmQBCmk6PWsIRAiaUU4rwgFXfMqvsldOEM6JgPyBss6RgbEYRHShC5iv4mBS2HFooEyCkKVUYts6MubmPa0FohrAw7UK2DLKkKQ2bDSLRN44ipxwhbFjBmiaVZbHKEpzgK5YwafEaTT6xkmviaX65QGhabaOE+Po39RfZfiCrNCmY3zwTgAaiQdtajTCVw2zdV/PXIrkAhW0p8QnGdyGBmWmxSm7Z3NYL0yopw1BU2tT+EM+L9N+dq3Sc5AIOC9sscefIpCq5WWU1ja+QH4CG5sstihGKHbaorG+o0keCf4tHIWFbSsIGW7+0LRYzmkKd9AIbh1Xa3L3U6QrF1ZKUFLmkX/6lT4LCNsmbs6pMhpCGOEKFBri9q6y0uS/rkDObJKmvuY3qq+YEkXD94mrAtx1ZKYOpz7cGu+K/bS5RnkA3B1WVNtcd7hOL7QpCPl+Cc0O2sQBZyX5YbdkAhm1iiemNmppdipAaVof7AtQb0kpbCfJlfvKy3onYfxEpzD/3TvMXfkfKLxAh7xHHVDLfU4RFdFaWpgoyXFErSa6Wuu5HnCSKIqq7T5Lrh7TfRudpHpKw0lYkt2lUYw38Ymp8rQM6DK9tJUjlviH1xyPThZJyaN5UFgaL+CnCImYTYgLoMBbpsj6awf4Aj8xHnYWXT+M2i9oUwZSCd+MTD7DRpAZwCN9ljTgEdPsanljMWXAxGzCiySFa+4d72bT4MjcKHplf2qUuwtlYNJXiy2zfXY6MIO/zBYLRddedDlPx/o7uSsAz6864Wf/zvdOZkdQF/hjLqjv80Tf8bEV83Ma0725tC420uELHe9ftzoScjDC6w1M3eCkhbjMePXCAttaZ2Zw6QZ1FHSNKbm33Ro1uSR/tJnh3UWRh6GzREJVPr4DRrzAiCmWHruLfR9gDPsmlUz9/sYoijbB8D3aHwpg4+H2A0R3N/Z7OMgoO8YsGNVbCohuZw32Mirx9g2FN3UPUC//ysfhFCRqNJlbBLsKHNB28kjSu3nmk7sHrDZ9kS5Y0B7Z8qpAKO9TXyOodw93dgzgO7w+oCfWtQIWwz4HznyfJTcgPh6deX2NGRIUwsIrzFbwvmfQ9dmZ0wo/KefTjHqQxuKiF+vTIKsqTPMLVM843EeTPc8Pq9uUeREIqhKz8yqePq05Bm5YIij5vw9s6eNJRd8QVFMsk/s94mFF2mgt8nushaXj4R3r4F6TRwz+xpX9Ealv6fH/4V6Tzh6GqTPP/EyEf01xYTJMUf31SXPqXpIxLU3w0t+BPgvWUW7Chi8s76D/0X65laz/D8LkFTSmuND8k/eeHhCGxoiBMTj+fn+v9/vd3/vu7368/f+JTEvqRVULvYUBNfkgVkudwtxw/93rIC8LT5/7jNhzlp2QpvdDjsQWlfxre5us48T2Cu3pKXY5P6zReT3WaDF2U/PzeXkpED6n44u33J4msDih1dZpDr7U2ctqnTGuJTEY6Gt72YA3R1dpovdTppV5K5qMuFe8c5mgOXXzS1EuVNe8NcBXfg5485DACC/u6mnef6xYk6gMhdDcGv2moWrdQrz3BNkT8U4SCw6vWntTrh6BtWz1JKWT7raVZP7T8ag2Y32YLXQMe9oAQuO9LvwbM1vE5hwhcxyfgQ841FgLdhXIdH73X9mJwB/mgezHQCbSwVpH7cgJGG/q9GMxdHDgmQ9slIavLya5siRQIULOfZlPbE6XcUwQYCUVz8BrwHF7jb9gTxVIl3tgC97UVGMPW62p1Gt38DkXGpn1tdG8iL8ddVvIJweaNMdxh8vBa1ibiIxp+byINs4VdtrD9pRnAJMoyvquRyXFfrik65MET06b9pfR4E598APcI53uG3HXqjIi1bp1huO5namCI9elCXYVmj7A95fZ584ukXXa25RxJTc5vyx5DvxFiLW1gW/Uf7PMu9+rzpzKgHvGDahXK9ut9PDY5ow8fV5oLOotiiWE38w9srz5LgvmN3qBDQQxhijGzjNl2hQer3NkqFEE++xoQoXAsiApged5iWj8mVBIwz6/2X47mhclpMKv5JpPMg5asBkqp4CvEMzO0aCNUo4Cl/fp5fHefqjgi2lXul0+SKqC3rz8BHFV57ikHlCOkpTWh8RJMTLnOH+7LT+4E9ip1HO29zMD81PGPgImp8uxaEebkCHdKfwHNL7guUe7wK9OzQDI5o48g+8MXJ8OjT5iQas4f7kqE9AypcCABunqBeI65t2y/cxrJufyHma3lP0zdBtDOPDxDymr8QnchyDngjPAnz7CCXbja6ZYamAx0MBe+t4d6qIfngMuDQbyYQs5yF78jtjPLTQ5TuUI5OQNTfMmsmVmNWpzlZkedBTGFF2cliFlcRoiXreN/FmjFmG70CS5DCy25aW5bCCnrqUDtptCxx7S/UEXoKlqWwvUxkvdmjoAnSbSzZguGQl8MoYUSvG+woi1dGr7k9yAirAh0Rj/wreWt+mKw3iaI95zm7WkqiIpzCe7tJwzDH0UgN4JWZ6y2vU3KNPigFGkYREUko1mP6gJQ05+mjEEZQtaOTrA1gAY11dCtu365XZpMi42iqDMsl5pKX0mrNVKfKPjQrSFCjxwWJPCE9Ykql7ylXl9Ca9cuTLSQfJ5LBbDTrgGRhfTYn6LXV9mvTeia2Gl4EjwboEG/tr567okQH65k+J020Yk996irUPbcK/smCs3mYb0VSojRA4jd7iLQ9U3Eqr6Jut6Xq26XyjRDHHa8bMEW2EFZWAeu6l8qNL+ErrQxiJ4e4rDj5iuxvRzLFTT9S1mgjcT7yzve+aA/sNcVoHQPxIMetFUfYYGJhr2u5YlY6oJbh7OGdKKmfYTLXsritQhmvaAVEIkConvrCtC8F3TVz1u8Harr5SuEfEgnmm9dt3hKfZLZfTMN/bzL8pr4LHB/TW02RFhU7A5Q0ZOdjtXQk73qqy9eoWDYV18mAaL70Xk3oi3Osby4oqmvPtM4gsQrhzqkN5RQbZ3GnXc/Tykai3Z3I1T3W4i3kZnfbyHPqept0h2gfL8Fu/Xgwf0WJauly6wAd5SIhPdN/WnMCHxHSbnFW7oAAnTPjEDoc+S+uCNAc1OR5HtmqOGSb4rT3hUkRTawu4J4Qv7+4zfsDrDTXUHlfU/ypWvX7sLV4ZKnGmHpzkImo23ue6r4LdnTnrfwg0m+Lo3Z0XZ3dlX3rkl3Wv0XLpazVFfLseK86s7UprvzpLtq/gOXA1qq6wFN786r3X8oXZk4+ccXPGZGXgJYXkjZ+v7D6hH59tJ/fodl1McdlrV7SOWrBv837iGtPSVL9rhbcawTIb+vu2Rr9wErXsz/xH3AtTudFddhf/6jO52lMKsWS5re6Vy/l1uhv/+Ze7nLvvjm93JXGSFBisvj/yN3qy/YllvI3epVcYYgxdX0G12f1ScRisSaRUpTBlAq2bRDOGGOn1gqJT79pTLaKh5NqwnKPqQNwsGCiaIijkhp6/yVpBJHih8HtfiKYIUetUJYGVTFbdgpbfy/cRvYV0hoLbrSmtHHCAfHEqKl0MU09vkDNhJHGauUImo5Yt3CBGENIlG9x5SNz9ZGW8nAwYa0BPgIYc3zEak+ULwD+5lsJFJhqaC3CqBKRU0QDs4lF1XRTUqr9dNElThrdSh2L4dUhQGGCGtcVCtE+kLD5/DRDtViU731FgBbIEy9QjmkKofO6DXqH6MdKK6Czykudf+hiLZDWJmb1G5rAvjBIerV5BA70uFbVT7qkZFpjbAm9oRofc896E0fiRPq8A1mpY3RGQYIwsE3rn5WL/nfJ7uPBo/IPmn0b5CpYDkTrCxaABEOFtVqn53og8Dp2eqmkITY6KwMLnKaVMk3sZpCNXOEg0lQ5hIEK6qSJc2uGJxZEUzipgjstfplpCjYdEM4GH+VpiR1U03fnNxTkMbiShDG11e5DFOjmuO1vxq/CUKYOcbqDXqNwe5gvFtGDm69QkEIdqLlrnnSsyojbTIGEhkgHOyqKRMnfiQl08M6wvZDiSXpd6L1Qa97BU3i6v0S0qQmIpkgrLsiC5FDiwd229jHjp3t7643usz/D2HbwX683el8bI0OtYf1TllJRgjrxjp1ykE7cz2Yfh/OWRuhHBXO0Xp+Ep8P3484R+k7sGvSo4kddWSIcPBdq88Q59RyigWNJ5NVRpNJazOR0eZUCyWQp/eVajJFyFm0zKoaYQTQVBjP+AfMEQ52Vq14gfDFSCsMabW2azU9bDWbcCUBEA4Gy3rggpy1MgvvgTZc6klscR9bKwIhHCy4FqSkKZCEUxrmcoMELcM0gWAI04yqLqqpfvh3I+vxkMZ3n0tVsHUA/hIU4WDMiWoWUl5g71hFiwvhQoVUQMEvEIwwtXIn7i0T5PjHPizrdJuyj/tl59rhdzsgTF/1F58rpRGYv+1mdjZb3+brzMT56iQcnRAOBm+JkNinMXSwBNj0nGbLwBECWeIkHa1YR4QpH69YvGEM2Th5/zZTnMn3e4KlEgHCcWfl7oww1ZulnPOmKFG4vLeb3uK+DJFcACEYL3vQ6x4QpnQIFVWoPHmIrsvjbqEMRMeTxe64vHp56iE/7ISHXubWD8JUIdfq4kWeTjjY8oLktL4sz+f383l5WZ+SwLPSz7F6I1/qK5Z9BUp9IUzp/qWv0OQJYd5jF9E+u/p7EQhGV20x0Zx6RJhXaBT6ZEIkhRc3V2tMqVeEKY0Liw9BmVVrgvWDao059Y0wo+kh9gyrbZm2evH9GcnmMxBmNH1NPYCTKWYzUJI5BSf1LK/PSqWfhTCn6Wy79r3MZOJ6/27aBxtnRtbz19vZU+sET0VY0GQzux/PlzgJ/SDyLC8K/DCJL+fjfbZpW7juQP8HTy6NEsWDiggAAAAASUVORK5CYII=;" parent="t1x7EK1OemjOOLSHdHvf-56" vertex="1">
          <mxGeometry x="55" y="69" width="30" height="30" as="geometry" />
        </mxCell>
        <mxCell id="MrLOl76Ptph7SCetX4YU-1" value="" style="shape=image;verticalLabelPosition=bottom;labelBackgroundColor=none;verticalAlign=top;aspect=fixed;imageAspect=0;image=data:image/png,iVBORw0KGgoAAAANSUhEUgAAAgAAAAIACAYAAAD0eNT6AAAACXBIWXMAAA7DAAAOwwHHb6hkAAAAGXRFWHRTb2Z0d2FyZQB3d3cuaW5rc2NhcGUub3Jnm+48GgAAIABJREFUeJzt3Xt0nXWd7/HPdyfpBcoMF/ECozOjHrkIIoKecTiSHaiDpbsdxSSLtrQsZ6ApoG3wDJcDaBoFgZGRtOhAKwNDaasrrbd2F0QL2UGZ8TAULzByGZzjXACVq0JbIMn+nj/SQqm9ZO/svX/P73ner7VcrBWTZ39ZJHk++f2e/fuYuwsAAGRLLvQAAACg8QgAAABkEAEAAIAMIgAAAJBBBAAAADKIAAAAQAYRAAAAyCACAAAAGUQAAAAggwgAAABkEAEAAIAMIgAAAJBBBAAAADKIAAAAQAYRAAAAyKDm0AMAaDy787Z3qan8d5ImSXa+56c/GHomAI1l7h56BgANYqVv7y81XSxZt6SJ2z48JPOb5Xap5wtPh5wPQOMQAIAMsN7enE487gyZ/lbSm3b9SXpWrs/pqa1f9o6OkcZOCKDRCABAylmpmJfUJ+mYMX7JQ3I739um31G/qQCERgAAUsru/s5bNdJ0hUxnSLIqLlHUiC3yk6f/e61nAxAeAQBIGSsW99EUXSjpIkmTxncxvSLpBm1p+oxPm/a7WswHIBkIAEBKmGQa3NAu+TVyva3GF39CZevV3ffd6D095ZpeG0AQBAAgBay07nipqU/yE+r7Sn6f3Lu9beY99X0dAPVGAAAiZt9fd4gmWI/KdpasYQd7uaS1Kucu8JNO/Y8GvSaAGiMAABGyNWsm6ODJ50j6vKT9wgyhLXJ9UZpylefzLwWZAUDVCABAZGywOENSn1xvDz3LNv8t16VqK9zqo6sDACJAAAAiYXdvOEJlv1bSKaFn2Y1BKdft+VN/EnoQAHtHAAASzu6440BNGuqR6zxJTaHn2SNXWdIqlcsX+Mkzfx16HAC7RwAAEso2bWrR7371CZlfIekNoeep0POSXaWtuT6fNu3l0MMA+H0EACCBrLRhquR9kt4depZx+jeZXeqt09eEHgTA6xEAgATZoaa3EHqWGttI7TCQLAQAIAF2U9ObNtQOAwlCAAACGlNNb9pQOwwkAgEACKSKmt60oXYYCIgAADRYDWp604baYSAAAgDQIDWt6U0baoeBhiMAAHVW15retKF2GGgYAgBQR42r6U0baoeBeiMAAHUQqKY3bUZrh4f1Nz618J+hhwHShgAA1NCrNb2mz8n1B6HnSQVqh4G6IAAANZLAmt60oXYYqCECADBOEdT0pg21w0ANEACAKtkPbj9YI+XPS36Wkl7Tu2vPbPvnQUGnqM6IZDeqKfcZ/9C0p0IPA8SIAABUKPKaXkkalvlNyjVfJisPa7h8kczOl2tC6MGqQO0wUCUCAFCB6Gt6TXfJct1+4qkPvO7DA+sOUy73JblODTXaOFE7DFSIAACMQQpqeh+T2SV7u0FaacNUmZbI/chGDVZj1A4DY0QAAPYgBTW9myVdo61NV451idw2bWrRC0+eK6lX0h/Wdbr6oHYYGAMCALAL0df0usqSVslyF3r+1F9Vcwm781sHqbnls3KdpxgfcqR2GNgjAgCwk+hrek33yn2R52f8qCaXu3vdsXLrk9uJtbheANQOA7tAAAC2sdLtfyQf+ULENb2Py3VJvQ7KscHiDLmWSPrTWl+7QagdBnZAAEDmRV/Ta9oi9+ukly73fMeLdX2pf14zWS/vs1DySyXtV8/Xqgtqh4FXEQCQWSmp6S1Kw5/y/Ed/2cgXtbuKh8p0ZbSrJdQOAwQAZFP0Nb2m++Va5PnCD4OOMbj+/XJbIumDIeeoHrXDyC4CADIlBTW9T0u6PElPtptkGijOlelqSW8OPU8VqB1GJhEAkAkpqOkdkun6JO9d2/e+t68mvHKBon6WgtphZAcBAKmXgpreospN3X7StF+EHmQs7O7vvFUjTVfINDf0LFWidhiZQABAqlmpOCApH3qOKj247VjbjaEHqca23oRrJR0VepYqlTxfaAs9BFAvMe6BApXIhx6gCs9J6pamHBvrzV+SPD99owY3HSPXmTL9JvQ8VciHHgCoJ1YAkGpWKsb0Df5qTW/aOu7thxsOiLF22POF+N7iCIwRAQCpFk0A2E1Nb9rEVjtMAECaNYceAMi4MdX0poW3zXxE0vQU1A4D0eMZACCMzZJ6tbXpqKzc/Hfk+ekbNeXN75XULem3oecBsogAADSSqyzXrVLunZ4vLPZp014OPVIoftxxQ54vLNHI0DtkWiopEQcbAVnBMwBItUQ9A1Djmt60SWLtMM8AIM14BgCov9Ga3jwHy+yJnzjzx5JaU1A7DESBLQCgXkxbJL9a2nq4txVWcPMfG28trNfEre+W7GJJL4SeB0grtgCQagG3AILU9KZN6NphtgCQZgQApFrDA4Dpfsm6vXX6Dxr6uikXqnaYAIA0YwsAqI2nJXXrN1s/wM2/9rx1xr8oXzhBrjMl/Sr0PEAaEACA8RmSaam2Nr3D84Ul3tHBW9nqxCX3tsIKvTLhnZJ6JVHZC4wDWwBItTpvAURV05s2jagdZgsAaUYAQKrVKQA8LPNPe+uM2+twbVTIBje0Sd4n13tqfW0CANKMLQBg7LbX9B7NzT85vHX6gEqbjo24dhgIghUApFqNVgBSW9ObNrWuHWYFAGlGAECqjTsAZKSmN21qVTtMAECacRQwsGuZqulNG2qHgb3jGQDg9TJd05s21A4Du0cAAEY5Nb3pRO0wsGs8A4BUG9MzANT0ZkoltcM8A4A04xkAZFlma3rtztvepaby30maJNn5np/+YOiZGoXaYWAUWwDIngzX9Frp2/tbaf1Vair/TFJB0lTJ77fB9cusVHxD6PkaidphZB1bAEi1XWwBZLKm13p7czrxuDNk+ltJb9r1J+lZuT6np7Z+OWudBrurHWYLAGlGAECqvRoAMlzTa6ViXlKfpGPG+CUPye18b5t+R/2mSqada4cJAEgzAgBSzUrFpyRdnsm/al8ry3ndX7UVKGrEFvnJ0/+91rMlmUmmgeJcma72fOEtoecB6oUAgFSze9bt5yfMzNT+rhWL+2iKLpR0kaRJ47uYXpF0g7Y0fcanTftdLeaLRRa/d5AtBAAgJUwyDW5ol/waud5W44s/obL16u77bvSennJNrw0gCAIAkAJWWne81NQn+Qn1fSW/T+7d3jbznvq+DoB6IwAAEbPvrztEE6xHZTtL1rC39bqktSrnLvCTTv2PBr0mgBrjHIAM6+rqagk9A6pja9ZMsFJxkVpyD8ttfgNv/tLoA4Udair/3ErFxVYqje85AwTD74BsIwBkVPuc+VOfeUE/Dj0HKmeDxRl64+SHNPrWvv2CDeLaR1KP9OK/2UBxnlX3TgME9MwL+teOOV0doedAGGwBZMxpp89/V85yfyfzgiStXb2MX9qRsLs3HKGyXyvplNCz7MaglOv2/Kk/CT0IxqZ9dtf2G8DGcjl3/je/fn1mjoQGASAzPvaJT+zf9FLLxTLrljRx+8cJAMlnd9xxoCYN9ch1nqSm0PPskassaZXK5Qv85Jm/Dj0O9myHACBJw3LdNMF06erVy54ONhQahgCQcr29vbkHH33yDHf/oqQ37vz/EwCSyzZtatHvfvUJmV8hKbZz+p+X7CptzfVRrZxcOwWA7Z6V+edyQ89/ub+/P1OHZ2UNzwCkWMesc/IPPPLE/e5+i3Zx80dyWWnDVL3w5I9lvkzx3fwlaX/Jr9LkkQdscAN7zHE5UG595eYDHjht9oKPhB4G9cMKQAp9dNZ5b23ODV8h19y9fS4rAMmyQ01vIfQsNbYxa7XDMdjNCsDruRWVyy1au+rvM3UkdBYQAFJk5syufSbupwvdx34ELAEgGaz07f2lpoul1z+jkTJDMr9Zbpd6vsAecwKMKQCMekWmGybZxM+sXLk0U0dCpxlbAClgZtYxp6tjwn56yF09Gu/572gY6+3N2UBxntT8sGQXKb03f0lq2XZmwSNWKi6yNWuS/UAjdjRBroUvlV9+uH3Ogvm9vb3cO1KAFYDItc9acLzMl0j682q+nhWAcKqo6U2bzNYOJ0UFKwA7sU2es0XfWHk9R0JHjAAQqb+c9deHtKi5R6azNI6VHAJA49WgpjdtMlk7nATVBwBJ246Edhu54BurbuRI6AgRACLT2dk5odyy/zly+7xqcAocAaBxalrTmzYZrh0OaZwBYJRpi0lftKF9r+7v/9LWGoyFBmEfJyLtsxfMKDcf8JDcwh4Bi4qYZDa4oUP76SGJZzR2yUf3mLXPyEM2sGG+scccD9c+7uopN29+tGPOgnlmxh8VkWAFIAKnnX72Eblc07WS1/wIWFYA6qtxNb1pQ+1wI9RkBWAnLg02mXf3r1rOkdAJRwBIsM7Osw4stzTV9QhYAkB9BKrpTZvR2uFh/Y1PLfxn6GHSqB4BYJuyTKuGvHzBd1Z/lSOhE4oAkEBdXV0tz7zo58ptsaT96/laBIDasjVrJujgyefI9Dm5/iD0PKlg2iLXF6UpV3k+/1LocdKkjgFguxfN9Hebn5t45W23LeVI6IThL5OEebWmd3Sfv643f9TW62p6ufnXDrXDMZvirp599n/5AWqHk4cVgITYuaa3UVgBGL8IanrThtrhGmnACsDOqB1OEAJAYLur6W0UAkD17Ae3H6yR8uclP0tJr+ndtWe2/fOgoFNUZ0SyG9WU+4x/aNpToYeJVYAAIElDct1M7XB4BIBA9lbT2ygEgMpFXtMrScMyv0m55stk5WENly+S2flyTQg9WBWoHR6HQAFgO2qHAyMABNAx65y8WzkRR8ASACpjpQ1TJe+T9O7Qs1TFdJcs1+0nnvrA6z48sO4w5XJfkuvUUKON07/J7FJvnb4m9CAxCRwAtnuoLPv0N1ff8N3Qg2QNAaCBKqnpbRQCwNikoKb3MZldsrcbpJU2TJVpidyPbNRgNUbtcAUSEgBGUTvccASABqimprdRCAB7loKa3s2SrtHWpivHukRumza16IUnz5XUK+kP6zpdfVA7PEaJCgCjqB1uIAJAHZmZtc+e3+7SNXK9LfQ8u0IA2DXr7c3pxOPOkOlvJb0p9DwVc5UlrZLlLvT8qb+q5hJ257cOUnPLZ+t5EFVdmZ6V63N6auuXvaODPeZdSGAA2O5JmS0++l1vubGnp6ccepi0IgDUyXhrehuFAPD7oq/pNd0r90Wen/Gjmlzu7nXHyq1PbifW4noBUDu8GwkOANtQO1xPBIAaq1VNb6MQAF5jpdv/SD7yhYhreh+X6xK1FW710WN0a8oGizPkWiLpT2t97QahdngnyQ8AkqgdrhsCQI3Uuqa3UQgAKajpNW2R+3XSS5d7vuPFur7UP6+ZrJf3WSj5pYro+/xV1A6/TiQBYBS1wzWX+L9QY0BNb5xSUtNblA+/2/MzLq73zV+S/IMdWz0//WqVdYRct6oOKw11Re1wvKgdrjlWAMbhtNMXHJPLlfsky4eepUoPrl297OjQQ4QQfU2v6X65Fnm+8MOgYwyuf7/clkj6YMg5qpft2uH22V0PSDoq9BzV8VK5nOv+5tdv+GnoSWJFAKhCI2p66+w5mfc+88ShXxkY6BkOPUwjpaCm92lJlyfpyXaTTAPFuTJdLenNoeepQmZrh3c4kfQaSQeHnqcK1A6PAwGgAqM1vfYJd7/CYj0C1nVTbmTosv7+mzJ1fnoKanqHZLo+yXvX9r3v7asJr1ygqJ+lyGbt8Jw55x7wcnl49EhoxXkktJldtfm5CX3UDo8dAWCM2ufMn7ptjz/KI2BNdpflvLt/5bIH9v7Z6WKDxRkareh9e+hZqlRUuanbT5r2i9CDjIXd/Z23aqTpCllyTrys0H/LdWm93k2RZJ1zzz2sPDL8JcmiPRLaTJeuWbWMI6HHgACwF6FqemvG9ZjldElWfyCsVByQlA89R5Ue3Has7cbQg1RjW2/CtYp2j1klzxfaQg8RwrY/eJZIivZIaGqH944AsBuha3prYLOZrtn83MQrs7wkZqVijN/gz0nqlaZ8xfP5qJ/RePVExZy+KA/Xelktzxcy+6T56Jannyu3eI+EpnZ4jwgAO0lKTe84uEwrc0PNF/b3f6WqI2DTJLIA8GpNb9o67u2HGw6IsXY4ywFgu9PO/ORBueGheI+EpnZ4twgAO0hSTW81XH6vcr7oGyu/WpMjYNMgmgCwm5retImtdpgA8Jr2Weccq9Hfj/EeCW1+/tpVyzkSehsCgF5X0xvtEbBmdsna1ctudf6Dvk4EAWBMNb1pE0vtMAHg97XPXjBD8qWS/iT0LFWhdvhVmQ4ASa7pHRPTFpX9utxIy+X9/V+p+ylwMUpwAKi4pjdtYqgdJgDsWmfnpyd7y5aF7pEeCU3tsKSMBoAYanr3yq04IvvUt752/S9Dj5JkiQsANajpTZsk1w4TAPass/OcQ8st5SsjXj3NdO1w5gJA+6wFx0vlPplFewSslcvda7721R+EHiUGiQoANa7pTZsk1g4TAMbm46fPf79ytsSiPRJa93ku15212uHMBIDYanp35tLTZn45T7JWJiEBoK41vWmTpNphAsDYja6sds1196iPhM5S7XDqA0CsNb07GJLp+qzvVVUraABoYE1v2iSldpgAULl58+btu3Vk8gUxP1tl0henTHjlqptvvjnVR0KnOgBse1q1T4r0CFi34oh797e+viyKI2CTKGAAKErDn/L8R38Z6PVTwe4qHirTlbIwe8wEgOp97PSudzTldKWkjtCzVOm/zezSNL+7KpUB4LTTzz4il2u6VvJTQs9SpYet7J9e8/Xlt4ceJHYNDwCm+yXr9tbpPKNRQ6FqhwkA4/fxOV1t5uqT9J7Qs1TDpcEm8+7+Vct/EnqWWktVAKCmFztrYABIXE1v2oSoHSYA1Aa1w8mUigBATS92pwEBIPE1vWnTyNphAkBtUTucLNEHgNhremW6M2c6P4s1vY1Q5wAQVU1v2jSidpgAUB/UDidD/AFgdlec/wIZr+ltlDoFgIdl/mlvncEzGglggxvaJO+T136PmQBQX7HXDq9dvSzq74/o3g+fApvN1LvltxOP4uYfneckdUtTjubmnxzeOn1ApU3HynWmTL8JPQ/Gbu2q5RsP2k/vlXm3pN+GnidrWAFonLJMq6jpbawarQCktqY3bWpdO8wKQOPEWDsc+wpAc+gBsoCa3ohlpKY3Lfx/TX9O0sU2sO7mmGqHIX3zli8/I2lR+6xz/lHmSyT/UOiZ0o4AUF+Pm9kl31i9PLUHSaRYJmt608LbZj4iaXostcN4zdqvXf9jSSdGXzscAZ4BqIfRI2Cvzg03H75m1Q0ruPlHZbOkXm1tOoqbf/w8P32jprz5vZLYY47M2tU3rM8N73ukmV0s6YXQ86QRKwC15lYccWp6I+RyraSmN338uOOGJC2xO7+1Mqm1w9i1/v4vbZV0dWfnOSsjrx1OJAJArZjuz7kW9X/thh+GHgUV2l7T20ZNb5r5yR97RtIiu3vdPyatdhh71t9//eOS5n389PnXRV47nChsAYzfkzLryg0994H+1cu4+cflcbnOVGvhzzzPzT8r/MSZP/bWGa0yzZT0/0LPg7H7xteX/8s3v7b8BDM7UxIrdeNEAKjekExLJ+UmHr521Q3L+/v7Of89FqYtkl8tbT3c2worfLQHHBnjrYX1mrj13RJ7zDFxd1+z6oYV+zRvfaeZeiWlurK3ntgCqAY1vTEryqnpxSj/YMdWSVfbXcWVIWuHUbkVK1ZslrT4Y6d33Rp57XAwBIDKbKvpXcYpcLGhphd74CcVHpc0zwbXXxeidhjV2/aHWGfstcMhsAUwNs/KvPuZJw85es3Xl3Pzj8vTkrr1m60f4OaPvfHWGf+ifOEEudhjjsw3Vi0bOPqwQ47d9nwAJ3aOAUcB74XJr7Ph8uL+/hufrefroD7snnX7+Qkz2d9FxfjeiVdn51kHlpuaemX6ZD1fJ/ajgAkAexH7f2AAyCruD3vGFgAAABnEQ4BABtldt79DuZE+SZOUs4V+4vSHQs8EoLEIAECGWLG4j6boQuV0kaRJkqSy/9QGi9eruXwZe95AdrAFAGSEDRZnaIp+LqlH22/+o1rkWqjh3MM2UJxnvA8eyAQCAJByNrDuMCsVvyvXOkl/vNtPdB0i0y0qFQfsznW8lxpIObYAgJSy0rf3l5ouVi53vlwTKvjSVjXlNtng+pvkdqnnC0/XbUgAwbACAKSMSWYDxXlS88OSXVThzX+7ZrnNl+kRKxUX2Zo11OcCKUMAAFLE7iq+T6XiPTLdIulN476g60BJfXrj5HttsMjxuECKEACAFLA77jjQBotLlNO9qsc59q73yXWPDRRX2J3rxh8sAARHAAAiZqVSsw1smK+JQ4/ItVBSPZfqTaa5aso9bKUNF9maNdVsLQBICAIAECkbWN8qe3GTzJdJekMDX3p/ya/SwZN/ZgMbTmng6wKoId4FAETGvr/uEDXnrpLZGfKg79k/TObftVKxqHLuk37Sqf8RcBYAFWIFAIiEbdrUYqXiIrXkHpZprpJzYE9BTeWfW6m42EqlSXv/dABJQAAAImClDVP1wpM/ldQnab/Q8/we1z6SeqQXH7TB4ozQ4wDYO7YAgATbobSnEHqWMXqHXOusVNxIyRCQbAQAIIF2WdoTl6mUDAHJxhYAkDB7KO2JDSVDQIIRAICEGHNpT2woGQISiS0AILBxlPbEhpIhIEFYAQACqVFpT2woGQISggAABFDz0p7YUDIEBEcAABqo7qU9saFkCAiGAAA0QINLe2JDyRAQAAEAqLOApT2xoWQIaCDeBQDUSYJKe2JDyRDQAKwAADWW4NKe2FAyBNQRAQCoocSX9sSGkiGgbtgCAGogwtKe2FAyBNQYKwDAONj3vrevDa6/QrmRf1V8N/+Rbf+LyVSV/cc2uP4K+9739g09DBAzAgBQJRssztCEV/5VbpdImhh6noqY3y3XcZKOkuz7ocep0ES5XaKJrzxKyRBQPbYAgArZwLrDZLklkmJ8q9qTcl2s/IxbXfJtH/uLbfvrX5brbSGHq8hrJUN/ZSPlhX7yzJ+FHgmICSsAwBhZ6dv7W2n9Vcrlfqb4bv5DMi3V1qbDva2wYoebvyTJWwvr9YKOkNQr6eUwI1Zte8nQMisVOWcBGCMCALAXKSjtuVMjI+/11sIinzbtd7v7JC8Utni+sFgqHyVpQ+PGqwlKhoAKEQCAPYi8tOe/5DrT84WpfvJf/nysX+T5mY95vlCQaaZM/17PAWuOkiFgzAgAwC5EXtqzVVKvNOVd3lZYUe1FvLWwXr/ZeoSkbkkv1my6RqBkCNgrAgCwgxSU9hSl4SM9X1js+fxL472Yd3S84vnCEpV1uFy31mLABqJkCNgDAgCwTdSlPaZHpdw0zxdmeP6jv6z15f2kwuPeVpgnqU3Sg7W+fp1RMgTsAgEAmWffX3eIDRRXyGxArveEnqdCmyX16jdbj/b8qd+t94t5vlCSphyr0W2B39b79Wpse8nQervrtj8OPQwQGgEAmRV5aY+PLsnn3un5wmLv6HilYS+czw97vrBEI0PvkGmpXOVGvXaNUDIEiACAjIq8tOfH8vKHvK0wz/On/irUEH7yx57x1sIiWfl/SvpRqDmqQskQQABAtthdt7/DSsX1kn9f0hGh56mI6VlJ3Xpq6/u9beY9ocfZzvMz71O+8OdynSnTb0LPU6HtJUPft7s3xPX9AIwTAQCZYMXiPlYqLlZu5EHFVtrjKst1q1yHeb6wxDs6Elfg45J7W2GFfPgwmZZKGg49U4Wmquw/tcHiErtnXWwrQkBVCABIPRssztAU/VxSj6S49nxN98r1wdHl/sLTocfZG89/9HlvLSyS63hJPwg9T4Va5Fqo4dzDlAwhCygDQmqlo7SncOvO5/bHwNsKP5V0IiVDQHKxAoDUSXNpT2woGQKSiwCA1MhKaU9sKBkCkokAgFTIYmlPbCgZApKFAICoUdoTH0qGgGQgACBKlPbEjZIhIDwCAKJDaU96UDIEhEMAQDQo7UkvSoaAxiMAIPEo7ckGSoaAxiIAINEo7ckeSoaAxiAAIOEo7cmqNJQMhR4C2BMCAFArEZT2xCYFJUNAYhEAgFqIrLQnNpGXDAGJRBkQMD5Rl/bEJuqSISBhWAEAqpOq0p7YRF4yBCQCAQCoXCpLe2ITeckQEBxbAMDY/Zdcl2Xp3P4YeH7mY5IK27YF+uR6e+iZgBiwAgDsXSZLe2ITdckQEAABANizTJf2xCbykiGgodgCAHbF9Kg8t4hz++PkJxUelzTPBjfcLPelko4KPROQNKwAAK9HaU+KeOv0gYhLhoC6YgUAGOVyrZTlLuTc/nTxfH5Y0hK781sr1dzyWZX1SRl//AD8EACU9mRC1CVDQB0QAJBtbl0a3HQ8pT3Z4fmZ92lw0wly6wo9CxASWwDING+bvlxt00OPgQbznp6ypOVWKi4LPQsQCisAAABkEAEAAIAMIgAAAJBBBAAAADKIAAAAQAYRAAAAyCACAAAAGUQAAAAggwgAAABkEAEAAIAMIgAAAJBBBAAAADKIAAAAQAYRAAAAyCACAAAAGUQAAAAggwgAAABkEAEAAIAMIgAAAJBBBAAAADKIAAAAQAYRAAAAyCACAAAAGUQAAAAggwgAAABkEAEAAIAMIgAAAJBBBAAAADKIAAAAQAYRAAAAyCACAAAAGUQAAAAggwgAAABkEAEAAIAMIgAAAJBBBAAAADKIAAAAQAYRAAAAyCACAAAAGUQAAAAggwgAAABkEAEAAIAMIgAAAJBBBAAAADKIAAAAQAYRAAAAyCACAAAAGUQAAAAggwgAAABkEAEAAIAMIgAAAJBBBAAAADKIAAAAQAYRAAAAyCACAAAAGUQAAAAggwgAAABkEAEAAIAMIgAAAJBBBAAAADKIAAAAQAYRAAAAyCACAAAAGUQAAAAggwgAAABkEAEAAIAMIgAAAJBBBAAAADKIAAAAQAYRAAAAyCACAAAAGUQAAABnpKkqAAATDklEQVQggwgAAABkEAEAAIAMIgAAAJBBBABkmg1smG+9vfwcZIz19uZsYMP80HMAIfGLD9lmvkytx91nA+tOCD0KGsNK645X63H3yHxZ6FmAkAgAgHSsLPcDGyiusNJtbw49DOrD7vzWQTZYXCLP/V9JfxZ6HiA0AgAwymSaK5Ufs1Jxsa1ZMyH0QKgNK5WarVRcpKaWX8i1UMbvPUAiAAA721dSj944+QEr3faR0MNgfGxwQ5v04o8l9Un6w9DzAEnSHHoAIJFc75LKt1upWJSGP+X5j/4y9EgYO7ureKhMV46u6gDYFVYAgD0rSM0/t1JxsZVKk0IPgz2zNWsmWKm4SDk9zM0f2DMCALB3kyX1SC8+agPFeaGHwa7ZYHGG3jj5IY0u908JPQ+QdAQAYOzeKtMtViputDu/c2ToYTDKSuveaaViUa51cr099DxALAgAQOVOVlPTT2ywuMRuv/0PQg+TVVYs7mOl4mIp96Ck6aHnAWJDAACq0yLXQk0eedgGivNMstADZYkNFmdoPz0kqUfSxNDzADEiAADj8xaZbtFg8Ud2V/EDoYdJOxsoHmOl4t3blvvfFnoeIGa8DRCoBdcHZPpnGyiukunTni88HXqkNLHSt/eXNffKdK74vQXUBCsAQK2YcjLNlekRKxUX2Zo1TaFHip1JZgPFebLmR+RaKG7+QM0QAJBw9mFJD4WeoiKuAyX16eDJ/0LJUPWstO54lYr/JNMtcr0x9DwV+oVMM0MPAewJAQCJ5vnpG7XfW46R1C3phdDzVIiSoSpEXdpj2iKpV5pylLcW1oceB9gTAgASz487bsjzhSUaKh8u162SPPRMFaBkaIxSUNpT1EjuSM8XFns+/1LoYYC9ie0HDBnmH575hLcV5sm9TaafhZ6nQpQM7YGVivmIS3sekdtHPF+Y4Sed+h+hhwHGigCA6HjbjEH5lOPk1iUprqftXysZWm+lb/9J6HFCs7uKh9pAcYWkAUlHhZ6nQs9LdrGe2voeb5t+R+hhgEoRABAlz+eHvW36cr3ccphMSyWNhJ6pQpkuGYq8tMflulUj5cM9P/1q7+h4JfRAQDUIAIian3LKs95aWKSyPiDpn0PPU6FMlgxFXdpjul+mE7ytMM9Pnvnr0OMA40EAQCr4SYX7lS+cINeZkmL7xZyJkqGoS3tMz0rq1m+2fsBbC7EFTWCXCABIDZfc2worpOHDJb9aptiWZlNZMhR5ac+wzJfLdZjnC0u8oyO2rSZgtwgASB3Pf/R5z8+4WOXyeyTF9nBWqkqGIi/tGdRI+ThvndHF0c5II47VRGp528xHJH3EBosz5LpO0h+HnqkC20uGzrMRfcpPKtwbeqBK2EDxGJmuk/Sh0LNUzPSEyvo/aivc6nGdOQFUhBUApJ63FtbrRR0pqVdSXAe0vFYytMJKxTeEHmdvrPTt/W2wuESm+xTfzX9IpqVqLh/ubYUV3PyRdgQAZIIXCls8X1isctNRkoqh56lIBCVDKSjt2aicHeOthUV+wszYjpwGqkIAQKb4SdN+4fnCDEqGaicNpT2eL3zYT5we1/cDME4EAGQSJUPjR2kPEDcCADKLkqEqX5jSHiAVYvvBBWqOkqGxo7QHSA8CALANJUO7R2kPkD4EAGAHlAy9HqU9QHoRAIBdoGSI0h4g7QgAwB5ksWSI0h4gGwgAwF5kpWSI0h4gWwgAwBiluWSI0h4ge2I7rhMILh0lQ+v/2sq2UKaXJVsq6cOhB6sYpT3AuLACAFTJWwvr9cqEd8v8C5JeDj1PRdxOlGmTpAclj+3m/7LMv6CXJ7yL0h6geqwAAOPgf/EXmyVdanfdfpNyI32SCqFnqkDiSoXGYKNyttBPLHBuPzBOBACgBvykab+QNMNKG6ZKvlTSEaFnSplfyHQ+5/YDtcMWAFBDkZcMJQ+lPUDdEACAGou8ZChJKO0B6ogAANRJ5CVDIVHaAzQAAQCos6hLhhqL0h6ggXgIEGgAz+eHJS23O+5Yq0lDPXKdpzifwq8Hl2ulyuULOLcfaBwCANBAfsopz0paZHcVb1FOX5b0wdAzBWW6X9InPc+5/UCjsQUABBB5ydD4UdoDBEcAAAJJQclQNSjtARKCAAAEFnnJUCUo7QEShGcAgISIvGRo9yjtARKJFQAgYby1sF4v6khJvZJiPgBnSKalai4fTmkPkDwEACCBvFDY4vnCYpWbjpJUDD1PFTYqZ8d4a2GRnzCTI5GBBGILAEiwCEuGKO0BIsEKABCBxJcMUdoDRIcAAEQiwSVDlPYAESIAAJFJUMkQpT1AxAgAQKQClgxR2gOkAA8BAhFrcMkQpT1AihAAgBSoe8kQpT1A6rAFAKRIzUuGKO0BUosAAKRMjUqGKO0BUo4AAKTUOEqGKO0BMoBnAICUG3PJEKU9QKawAgBkxB5KhijtATKIFQAgQ7xQ2CJpsZXWrZRyfaMfLXd768zHgg4GoOEIAEAGeX7mY5IKoecAEA5bAAAAZBArAHvRPqvrutzISE9//43Php4FALB3nZ1nHVhuauqVhZ4k2QgAe2P6ZLm5aU7HnAVX29Cz1/b391fznmoAQJ21tfU2H3TIk3+l5qbLJR0cep6kYwtgbA5w96vKzQf8rH3OglNDDwMAeL3TZp990kFveWKT3JeJm/+YsAJQmcPkvqF9dtfGcrm88Jtf/+pDoQcCgCzrnHvWO8sjTV/IKdcRepbYEACqMzWXy/20fU7X9bkhfba/f9lvQw8EAFkyb968fbeOTL7AvekiSZNCzxMjtgCq1yLXwnKzftE+Z/6izs7OelWwAgC2MTPrmLNg3pbhyY+5q0fc/KtGABi/g+TWV2454N6OWWd/KPQwAJBWHz99/vtPmzX/Hne/RdKbQ88TO7YAasX1Prfc3e2zFhRHZJ/61teu/2XokQAgDTo7zzm03FK+0nJ2hsSb+2qFAFBr5oUm+cnts+YvzY20XN7f/5UXQ48EADHq7Pz0ZG/ZstCb/TK5poSeJ23YAqiPyTK7qNw8/HDHnAXzzIzECgAVaJ+9YEa5efPP3f0qiZt/PRAA6utQd7/ltFln/+jjZ5z9Z6GHAYCk+/jpXe9rn73gbsnXSfqT0POkGVsADWCyD6hs/9Q+p2tlbqj5wv7+r/wq9EwAkCSnnfnJg3LDQ5+1nM6TnHdVNQABoHFMrrnl5uHTOuZ0XTNlwitX3XzzzS/t/csAIL26urpannnRz8259Ur6w9DzZAlbAI23r7t6XnhpwgMdc7o4uQpAZrXPmT/1mRf0E7n1iZt/w8UfAMw/LOnB0GNUzPROd/V3zF5wZ+cZXUeHHgcAGqVz7rmHtc+ev0Fu35d0ZOh5qvCo5XxG6CHGy9w99AzjNrqEZJ9w9ytMekPoeaowLNdNuZGhy/r7b3oq9DAAUA9z5px7wMvl4Ytkdr6kCaHnqcLzZnbV5ucm9N1229KXQw8zXqkIANt1dp51YLmlqUeu8yTF+BDJczLvfeaJQ78yMNAzHHoYAKiF3t7e3IOPPnmGu1+jOJv6yjKtGvLyBd9Z/dVfhx6mVlIVALY77fSzj8jlmq6V/JTQs1TpEZl9eu2qG24LPQgAjMdps88+KafctZLeE3qW6nipXM51f/PrN/w09CS1lsoAsF377AUzJO+T9PbQs1SJ2mEAUdpe0ysp1oed/8vMLlu7etmtntIbZaoDgCR1dnZOKLfsf47cPifpD0LPU4UhmagdBhCF12p6FWdNr2mLSV/Mwlu1Ux8AtvvLWX99SIuae2Q6S3G+++EZmX8+N/T8l/v7+0dCDwMAOzIza5/dNdfdr1acTX0uaW1uWH/T37/sP0MP0wiZCQDbtc9acLxU7pPZCaFnqYrpfiuXu9d87as/CD0KAEijNb3K2RKTPhh6lird57lc9zdWXn9P6EEaKXMBQNqeVOe3u+uLkv449DxVcaN2GEBQ22t65YqyptekJ9ys9+h3veXGnp6ecuh5Gi2TAWC7mTO79pm4ny6Mdq9K2ip3aocBNNSrNb3ulynOpr5XZLphaNLwZd/5h394IfQwoWQ6AGz38TPO/iPz3BdiTbGSHjezS9L8tCqAZNj27qqlirWpz62oXG7R2lV//++hRwmNALCDztnzW8uyPknvDT1LNVx+r3K+6Bsrv/qj0LMASJePn971PstZn+QfCj1LlR6S+flrVy2/I/QgSUEA2Mn2E6vk/rcuvSn0PFVwmagdBlAT22t6Iz5h9VmZf453UP0+AsBufOwTn9i/6aWWi2XWLWli6HmqsNlM1A4DqMr2ml7FW9M7JNfNE0yXrl697OnQwyQRAWAv2ucs+B9yv0KxnmblesxyumTNqmVrQo8CIA7tc+ZPldsSxdnUJ0kbJe9eu3r5v4YeJMkIAGO07QfiWklHhZ6lGia7y3Le3b9y2QOhZwGQTJ1zzz2sPDL8JclODT1LlR61nP/vNSuXF0MPEgMCQAWoHQaQRtT0ZhMBoArUDgNIA2p6s40AMA7UDgOIFTW9IADUALXDAGJBTS+2IwDUCLXDAJKMml7sjABQY9QOA0gSanqxOwSAOqF2GEBo1PRiTwgAdUTtMIAQqOnFWBAAGoDaYQCNQE0vKkEAaCBqhwHUCzW9qBQBIABqhwHUCjW9qBYBIBBqhwGMBzW9GC8CQGBpqR3e/NzEKzmDG6g/anpRKwSAhKB2GMDeUNOLWiIAJAy1wwB2Rk0v6oEAkEDUDgOQqOlFfREAEozaYSCbqOlFIxAAIkDtMJAd1PSiUQgAEaF2GEgvanrRaASAyKSldniSTfzMypVLfxd6GCA0anoRCgEgUrHXDrv0tJlfziEgyCpqehEaASBy1A4D8aGmF0lAAEgBaoeBOFDTiyQhAKQItcNAMlHTiyQiAKQQtcNAclDTi6QiAKQYtcNAONT0IukIAClH7TDQWNT0IhYEgIygdhioL2p6ERsCQMZQOwzUHjW9iBEBIKOoHQbGj5pexIwAkGHUDgPVoaYXaUAAALXDwBhR04s0IQDgVdQOA7tHTS/ShgCA30PtMPAaanqRVgQA7BK1w8g6anqRdgQA7BG1w8gaanqRFQQAjAm1w8gCanqRJQQAjBm1w0granqRRQQAVIzaYaQFNb3IMgIAqkbtMGJGTS+yjgCAcaN2GDGhphcYRQBATVA7jKSjphd4PQIAaoraYSQNNb3ArhEAUBfUDiMJqOkFdo8AgLqidhghUNML7B0BAHVH7TAahZpeYOwIAGgYaodRL9T0ApUjAKDhqB1GLVHTC1SHAIBgqB3GeHzs9K53NOV0pWJ90JSaXgRGAEBQ1A6jUtT0ArVBAEAiUDuMvaGmF6gtAgAShdph7Ao1vUDtEQCQONQOYztqeoH6IQAgsaKvHTZtUdmvo3a4cjvU9F4qab/Q81SBml4kHgEAiUftcLZQ0ws0BgEA0aB2ON2o6QUaiwCAqFA7nD7U9AJhEAAQJWqH40dNLxAWAQBRo3Y4TtT0AuERAJAK1A7HgZpeIDkIAEgNaoeTi5peIHkIAEgdaoeTg5peILkIAEgtaofDoqYXSDYCAFKP2uHGoqYXiAMBAJlA7XD9UdMLxIUAgEyhdrj2qOkF4kQAQCZRO1wb1PQC8SIAILOoHa4eNb1A/AgAyDxqh8eOml4gPQgAwDbUDu8ZNb1AuhAAgJ1QO/x67bPOOVbmS6jpBdKFAADsArXD1PQCaUcAAPYgi7XD1PQC2UAAAMYgK7XD1PQC2UEAACqQ1tphanqB7CEAABVKU+1wS8ukYWp6gWwiAABV6uz8q4NHmls+b9JZivMhuWe2/fOgoFNUZ8SlG5uGhz7T33/TU6GHAWJEAADGKQW1w5GhpheoBQIAUCMpqB1OOmp6gRoiAAA1lILa4eShpheoCwIAUAex1w4nBDW9QB0RAIA6ir52OBxqeoE6IwAAdZaK2uEGoaYXaBwCANAg0dcO1xc1vUCDEQCABktB7XBtUdMLBEEAAAKJvXa4BqjpBQLi6WQgkP7VywePPuyQ48zsTJN+HXqeBnpW5t254eeO5uYPhMMKAJAAKagdHgtqeoEEIQAACRJ97fDuUdMLJAwBAEig2GuHd0BNL5BQPAMAJNDaVcs3HrSf3iezLpdiXC5/3swu3vL8xPdw8weSiRUAIOE6O886sNzS1CPXeUp+7XBZplVDXr7gO6u/mqUHG4HoEACASCS/dpiaXiAmBAAgMgmsHaamF4gQAQCIUCJqh6npBaJGAAAiFqh2mJpeIAUIAEAKNLB2mJpeICUIAEBK1LN2mJpeIH0IAEDK1Lh2mJpeIKUIAEBKjbt2mJpeINUIAEDKVVE7TE0vkAEcBQykXAW1w9T0AhnCCgCQIbupHaamF8ggAgCQQZ1zzz2sXB65VpJyuabz+2/9+0dCzwSgsQgAAABkEM8AAACQQQQAAAAyiAAAAEAGEQAAAMggAgAAABlEAAAAIIMIAAAAZBABAACADCIAAACQQQQAAAAyiAAAAEAGEQAAAMggAgAAABlEAAAAIIMIAAAAZND/Bw/hOeKCJFOPAAAAAElFTkSuQmCC;" vertex="1" parent="t1x7EK1OemjOOLSHdHvf-56">
          <mxGeometry x="55" y="34" width="30" height="30" as="geometry" />
        </mxCell>
        <mxCell id="MrLOl76Ptph7SCetX4YU-2" value="&lt;div style=&quot;text-align: center;&quot;&gt;&lt;span style=&quot;text-wrap: nowrap; background-color: rgb(255, 255, 255);&quot;&gt;Elastic&lt;br&gt;agent&lt;/span&gt;&lt;/div&gt;" style="text;strokeColor=none;align=right;fillColor=none;html=1;verticalAlign=middle;whiteSpace=wrap;rounded=0;spacing=0;" vertex="1" parent="t1x7EK1OemjOOLSHdHvf-56">
          <mxGeometry x="101" y="34" width="50" height="30" as="geometry" />
        </mxCell>
        <mxCell id="MrLOl76Ptph7SCetX4YU-49" style="edgeStyle=orthogonalEdgeStyle;rounded=0;orthogonalLoop=1;jettySize=auto;html=1;" edge="1" parent="1" source="t1x7EK1OemjOOLSHdHvf-58" target="t1x7EK1OemjOOLSHdHvf-91">
          <mxGeometry relative="1" as="geometry" />
        </mxCell>
        <mxCell id="t1x7EK1OemjOOLSHdHvf-58" value="Amazon&lt;br style=&quot;font-size: 9px;&quot;&gt;EKS" style="sketch=0;points=[[0,0,0],[0.25,0,0],[0.5,0,0],[0.75,0,0],[1,0,0],[0,1,0],[0.25,1,0],[0.5,1,0],[0.75,1,0],[1,1,0],[0,0.25,0],[0,0.5,0],[0,0.75,0],[1,0.25,0],[1,0.5,0],[1,0.75,0]];outlineConnect=0;fontColor=#232F3E;fillColor=#ED7100;strokeColor=#ffffff;dashed=0;verticalLabelPosition=bottom;verticalAlign=top;align=center;html=1;fontSize=9;fontStyle=0;aspect=fixed;shape=mxgraph.aws4.resourceIcon;resIcon=mxgraph.aws4.eks;" parent="1" vertex="1">
          <mxGeometry x="-105" y="214" width="32" height="32" as="geometry" />
        </mxCell>
        <mxCell id="t1x7EK1OemjOOLSHdHvf-83" style="edgeStyle=orthogonalEdgeStyle;rounded=0;orthogonalLoop=1;jettySize=auto;html=1;strokeColor=#4C0099;" parent="1" source="t1x7EK1OemjOOLSHdHvf-62" target="t1x7EK1OemjOOLSHdHvf-69" edge="1">
          <mxGeometry relative="1" as="geometry" />
        </mxCell>
        <mxCell id="t1x7EK1OemjOOLSHdHvf-84" value="Traces,&lt;br style=&quot;font-size: 9px;&quot;&gt;metrics" style="edgeLabel;html=1;align=center;verticalAlign=middle;resizable=0;points=[];fontSize=9;" parent="t1x7EK1OemjOOLSHdHvf-83" vertex="1" connectable="0">
          <mxGeometry x="0.2357" y="-3" relative="1" as="geometry">
            <mxPoint x="-88" y="-3" as="offset" />
          </mxGeometry>
        </mxCell>
        <mxCell id="t1x7EK1OemjOOLSHdHvf-62" value="EC2 / EKS" style="points=[[0,0],[0.25,0],[0.5,0],[0.75,0],[1,0],[1,0.25],[1,0.5],[1,0.75],[1,1],[0.75,1],[0.5,1],[0.25,1],[0,1],[0,0.75],[0,0.5],[0,0.25]];outlineConnect=0;gradientColor=none;html=1;whiteSpace=wrap;fontSize=12;fontStyle=0;container=1;pointerEvents=0;collapsible=0;recursiveResize=0;shape=mxgraph.aws4.group;grIcon=mxgraph.aws4.group_ec2_instance_contents;strokeColor=#D86613;fillColor=default;verticalAlign=top;align=left;spacingLeft=30;fontColor=#D86613;dashed=0;" parent="1" vertex="1">
          <mxGeometry x="-45" y="410" width="160" height="40" as="geometry" />
        </mxCell>
        <mxCell id="t1x7EK1OemjOOLSHdHvf-64" value="OTEL agent" style="text;strokeColor=none;align=right;fillColor=none;html=1;verticalAlign=middle;whiteSpace=wrap;rounded=0;spacing=0;" parent="t1x7EK1OemjOOLSHdHvf-62" vertex="1">
          <mxGeometry x="70.5" y="15" width="80" height="30" as="geometry" />
        </mxCell>
        <mxCell id="t1x7EK1OemjOOLSHdHvf-69" value="EC2" style="points=[[0,0],[0.25,0],[0.5,0],[0.75,0],[1,0],[1,0.25],[1,0.5],[1,0.75],[1,1],[0.75,1],[0.5,1],[0.25,1],[0,1],[0,0.75],[0,0.5],[0,0.25]];outlineConnect=0;gradientColor=none;html=1;whiteSpace=wrap;fontSize=12;fontStyle=0;container=1;pointerEvents=0;collapsible=0;recursiveResize=0;shape=mxgraph.aws4.group;grIcon=mxgraph.aws4.group_ec2_instance_contents;strokeColor=#D86613;fillColor=default;verticalAlign=top;align=left;spacingLeft=30;fontColor=#D86613;dashed=0;" parent="1" vertex="1">
          <mxGeometry x="370" y="410" width="160" height="40" as="geometry" />
        </mxCell>
        <mxCell id="t1x7EK1OemjOOLSHdHvf-71" value="OTEL&lt;br&gt;collector" style="text;strokeColor=none;align=right;fillColor=none;html=1;verticalAlign=middle;whiteSpace=wrap;rounded=0;spacing=0;" parent="t1x7EK1OemjOOLSHdHvf-69" vertex="1">
          <mxGeometry x="90" y="5" width="60" height="30" as="geometry" />
        </mxCell>
        <mxCell id="t1x7EK1OemjOOLSHdHvf-90" style="edgeStyle=orthogonalEdgeStyle;rounded=0;orthogonalLoop=1;jettySize=auto;html=1;strokeColor=#4C0099;" parent="1" source="t1x7EK1OemjOOLSHdHvf-77" target="t1x7EK1OemjOOLSHdHvf-13" edge="1">
          <mxGeometry relative="1" as="geometry">
            <mxPoint x="550" y="450" as="targetPoint" />
            <Array as="points">
              <mxPoint x="540" y="480" />
              <mxPoint x="540" y="450" />
            </Array>
          </mxGeometry>
        </mxCell>
        <mxCell id="t1x7EK1OemjOOLSHdHvf-77" value="EC2" style="points=[[0,0],[0.25,0],[0.5,0],[0.75,0],[1,0],[1,0.25],[1,0.5],[1,0.75],[1,1],[0.75,1],[0.5,1],[0.25,1],[0,1],[0,0.75],[0,0.5],[0,0.25]];outlineConnect=0;gradientColor=none;html=1;whiteSpace=wrap;fontSize=12;fontStyle=0;container=1;pointerEvents=0;collapsible=0;recursiveResize=0;shape=mxgraph.aws4.group;grIcon=mxgraph.aws4.group_ec2_instance_contents;strokeColor=#D86613;fillColor=default;verticalAlign=top;align=left;spacingLeft=30;fontColor=#D86613;dashed=0;" parent="1" vertex="1">
          <mxGeometry x="370" y="460" width="160" height="40" as="geometry" />
        </mxCell>
        <mxCell id="t1x7EK1OemjOOLSHdHvf-78" value="Prometheus collector/exporter" style="text;strokeColor=none;align=right;fillColor=none;html=1;verticalAlign=middle;whiteSpace=wrap;rounded=0;spacing=0;" parent="t1x7EK1OemjOOLSHdHvf-77" vertex="1">
          <mxGeometry x="50" y="5" width="100" height="30" as="geometry" />
        </mxCell>
        <mxCell id="t1x7EK1OemjOOLSHdHvf-79" value="&lt;span style=&quot;text-align: center; text-wrap: nowrap; background-color: rgb(255, 255, 255);&quot;&gt;Dynatrace&lt;br&gt;ActiveGate&lt;/span&gt;" style="text;strokeColor=none;align=right;fillColor=none;html=1;verticalAlign=middle;whiteSpace=wrap;rounded=0;spacing=0;" parent="1" vertex="1">
          <mxGeometry x="470" y="360" width="50" height="30" as="geometry" />
        </mxCell>
        <mxCell id="t1x7EK1OemjOOLSHdHvf-89" style="edgeStyle=orthogonalEdgeStyle;rounded=0;orthogonalLoop=1;jettySize=auto;html=1;strokeColor=#4C0099;" parent="1" target="t1x7EK1OemjOOLSHdHvf-13" edge="1">
          <mxGeometry relative="1" as="geometry">
            <mxPoint x="530" y="435" as="sourcePoint" />
            <Array as="points">
              <mxPoint x="540" y="435" />
              <mxPoint x="540" y="450" />
            </Array>
          </mxGeometry>
        </mxCell>
        <mxCell id="MrLOl76Ptph7SCetX4YU-32" style="edgeStyle=orthogonalEdgeStyle;rounded=0;orthogonalLoop=1;jettySize=auto;html=1;strokeColor=#006600;" edge="1" parent="1" source="t1x7EK1OemjOOLSHdHvf-91" target="MrLOl76Ptph7SCetX4YU-16">
          <mxGeometry relative="1" as="geometry">
            <Array as="points">
              <mxPoint x="160" y="230" />
            </Array>
          </mxGeometry>
        </mxCell>
        <mxCell id="MrLOl76Ptph7SCetX4YU-35" value="&lt;span style=&quot;font-size: 9px;&quot;&gt;Logs to&lt;br&gt;Firehose&lt;/span&gt;&lt;br style=&quot;font-size: 9px;&quot;&gt;&lt;span style=&quot;font-size: 9px;&quot;&gt;delivery&lt;/span&gt;&lt;br style=&quot;font-size: 9px;&quot;&gt;&lt;span style=&quot;font-size: 9px;&quot;&gt;stream&lt;/span&gt;" style="edgeLabel;html=1;align=center;verticalAlign=middle;resizable=0;points=[];" vertex="1" connectable="0" parent="MrLOl76Ptph7SCetX4YU-32">
          <mxGeometry x="0.3228" relative="1" as="geometry">
            <mxPoint y="-2" as="offset" />
          </mxGeometry>
        </mxCell>
        <mxCell id="MrLOl76Ptph7SCetX4YU-46" style="edgeStyle=orthogonalEdgeStyle;rounded=0;orthogonalLoop=1;jettySize=auto;html=1;strokeColor=#006600;" edge="1" parent="1" source="t1x7EK1OemjOOLSHdHvf-91" target="t1x7EK1OemjOOLSHdHvf-50">
          <mxGeometry relative="1" as="geometry">
            <Array as="points">
              <mxPoint x="160" y="230" />
              <mxPoint x="160" y="279" />
            </Array>
          </mxGeometry>
        </mxCell>
        <mxCell id="MrLOl76Ptph7SCetX4YU-47" value="&lt;font style=&quot;font-size: 9px;&quot;&gt;Logs,&lt;br&gt;metrics&lt;/font&gt;" style="edgeLabel;html=1;align=center;verticalAlign=middle;resizable=0;points=[];" vertex="1" connectable="0" parent="MrLOl76Ptph7SCetX4YU-46">
          <mxGeometry x="0.1183" y="-1" relative="1" as="geometry">
            <mxPoint as="offset" />
          </mxGeometry>
        </mxCell>
        <mxCell id="t1x7EK1OemjOOLSHdHvf-91" value="EKS" style="points=[[0,0],[0.25,0],[0.5,0],[0.75,0],[1,0],[1,0.25],[1,0.5],[1,0.75],[1,1],[0.75,1],[0.5,1],[0.25,1],[0,1],[0,0.75],[0,0.5],[0,0.25]];outlineConnect=0;gradientColor=none;html=1;whiteSpace=wrap;fontSize=12;fontStyle=0;container=1;pointerEvents=0;collapsible=0;recursiveResize=0;shape=mxgraph.aws4.group;grIcon=mxgraph.aws4.group_ec2_instance_contents;strokeColor=#D86613;fillColor=default;verticalAlign=top;align=left;spacingLeft=30;fontColor=#D86613;dashed=0;" parent="1" vertex="1">
          <mxGeometry x="-45" y="180" width="160" height="100" as="geometry" />
        </mxCell>
        <mxCell id="t1x7EK1OemjOOLSHdHvf-92" value="Applications" style="text;strokeColor=none;align=right;fillColor=none;html=1;verticalAlign=middle;whiteSpace=wrap;rounded=0;spacing=0;" parent="t1x7EK1OemjOOLSHdHvf-91" vertex="1">
          <mxGeometry x="93" y="41" width="60" height="30" as="geometry" />
        </mxCell>
        <mxCell id="t1x7EK1OemjOOLSHdHvf-101" style="edgeStyle=orthogonalEdgeStyle;rounded=0;orthogonalLoop=1;jettySize=auto;html=1;strokeColor=#4C0099;" parent="1" source="t1x7EK1OemjOOLSHdHvf-97" target="t1x7EK1OemjOOLSHdHvf-77" edge="1">
          <mxGeometry relative="1" as="geometry" />
        </mxCell>
        <mxCell id="t1x7EK1OemjOOLSHdHvf-102" value="Metrics" style="edgeLabel;html=1;align=center;verticalAlign=middle;resizable=0;points=[];fontSize=9;" parent="t1x7EK1OemjOOLSHdHvf-101" vertex="1" connectable="0">
          <mxGeometry x="-0.4786" y="-1" relative="1" as="geometry">
            <mxPoint x="13" y="-1" as="offset" />
          </mxGeometry>
        </mxCell>
        <mxCell id="t1x7EK1OemjOOLSHdHvf-97" value="EKS" style="points=[[0,0],[0.25,0],[0.5,0],[0.75,0],[1,0],[1,0.25],[1,0.5],[1,0.75],[1,1],[0.75,1],[0.5,1],[0.25,1],[0,1],[0,0.75],[0,0.5],[0,0.25]];outlineConnect=0;gradientColor=none;html=1;whiteSpace=wrap;fontSize=12;fontStyle=0;container=1;pointerEvents=0;collapsible=0;recursiveResize=0;shape=mxgraph.aws4.group;grIcon=mxgraph.aws4.group_ec2_instance_contents;strokeColor=#D86613;fillColor=default;verticalAlign=top;align=left;spacingLeft=30;fontColor=#D86613;dashed=0;" parent="1" vertex="1">
          <mxGeometry x="-45" y="460" width="160" height="40" as="geometry" />
        </mxCell>
        <mxCell id="t1x7EK1OemjOOLSHdHvf-98" value="Prometheus&lt;br&gt;agent" style="text;strokeColor=none;align=right;fillColor=none;html=1;verticalAlign=middle;whiteSpace=wrap;rounded=0;spacing=0;" parent="t1x7EK1OemjOOLSHdHvf-97" vertex="1">
          <mxGeometry x="71" y="6" width="80" height="30" as="geometry" />
        </mxCell>
        <mxCell id="t1x7EK1OemjOOLSHdHvf-110" style="edgeStyle=orthogonalEdgeStyle;rounded=0;orthogonalLoop=1;jettySize=auto;html=1;curved=0;jumpStyle=arc;dashed=1;" parent="1" source="t1x7EK1OemjOOLSHdHvf-77" target="t1x7EK1OemjOOLSHdHvf-22" edge="1">
          <mxGeometry relative="1" as="geometry">
            <Array as="points">
              <mxPoint x="550" y="490" />
              <mxPoint x="550" y="285" />
            </Array>
          </mxGeometry>
        </mxCell>
        <mxCell id="MrLOl76Ptph7SCetX4YU-15" value="" style="shape=image;verticalLabelPosition=bottom;labelBackgroundColor=default;verticalAlign=top;aspect=fixed;imageAspect=0;image=data:image/svg+xml,PHN2ZyB4bWxucz0iaHR0cDovL3d3dy53My5vcmcvMjAwMC9zdmciIGZpbGw9Im5vbmUiIHZpZXdCb3g9IjAgMCAxNTcgNTAiIGhlaWdodD0iNTAiIHdpZHRoPSIxNTciPiYjeGE7PHBhdGggZmlsbD0idXJsKCNwYWludDBfbGluZWFyKSIgZD0iTTU3LjE2ODMgMTcuNDcwNkM1NS45MjA4IDE3LjI5MzcgNTMuMTY0NiAxNy4yMzQ3IDQ3LjcxMDIgMTguMzg0NUM0Ny4wNjQzIDE4LjU0MDYgNDYuNDAxMSAxOC42MDk5IDQ1LjczNzQgMTguNTkwOUM0NS4wMTc0IDE4LjUwNzUgNDQuMzA3OCAxOC4zNDk0IDQzLjYxOTUgMTguMTE5MkM0MC42MzEyIDE3LjA4NzMgMzguMTY1MSAxNy40MTE2IDM2LjcxNDUgMTguMTc4MkMzNS44NTk4IDE4LjY0ODQgMzUuMTI0NyAxOS4zMTQ3IDM0LjU2NzYgMjAuMTI0QzMzLjY2ODIgMjEuMzYyMyAzMS43ODI0IDI1LjEzNiAyOS4yMDAzIDI2LjEzODRDMjcuNzQ5NyAyNy4wODE5IDI2LjE4MyAyOC4wNTQ4IDI0LjgxOTQgMjkuNDQwNUMyMy45NDkgMzAuMzU0NSAyMy43MTY5IDMyLjUwNjcgMjEuNDI1IDM0LjU5OTlDMTkuMTcyNSAzNy45NzIzIDE2LjI5NSA0MC44NjY0IDEyLjk1MzMgNDMuMTIwNEM4LjYzMDQ2IDQ2LjE4NjYgNS4wMDM5MSA0Ny4xMyA1LjAwMzkxIDQ3LjEzQzUuMDAzOTEgNDcuMTMgMTQuNjA3IDQ5LjgxMjkgMjUuMTM4NSA0NC44MDA5QzMzLjE0NiA0MC45NjgyIDM3LjI5NDggMzMuNTA5MSAzOC4yNTIyIDMxLjg1ODFMNDMuNDc0NCAyMi44MzY0QzQzLjkzODYgMjIuMDEwOSA0NC43OCAyMC45NDk1IDQ1LjU2MzMgMjAuNTM2OEM0NS44MjQ0IDIwLjM4OTMgNDYuMDU2NSAyMC4zMDA5IDQ2LjExNDYgMjAuMjQxOUM0Ni42OTQ4IDE5Ljk0NzEgNDcuMzA0MSAxOS43MTEzIDQ3LjkxMzMgMTkuNDc1NEM1MS41Njg5IDE4LjE0ODcgNTUuMzY5NSAxOC4wMzA3IDU3LjEzOTMgMTcuODI0NEM1Ny4zNzE0IDE3Ljc2NTQgNTcuMzQyNCAxNy41MDAxIDU3LjE2ODMgMTcuNDcwNloiLz4mI3hhOzxwYXRoIGZpbGw9InVybCgjcGFpbnQxX2xpbmVhcikiIGQ9Ik01Ny4xNjgyIDE3LjQ3MDRDNTUuOTIwNyAxNy4yOTM1IDUzLjE2NDUgMTcuMjM0NSA0Ny43MTAyIDE4LjM4NDNDNDcuMDY0MiAxOC41NDAzIDQ2LjQwMSAxOC42MDk3IDQ1LjczNzMgMTguNTkwN0M0NS4wMTc0IDE4LjUwNzMgNDQuMzA3NyAxOC4zNDkyIDQzLjYxOTQgMTguMTE5QzQwLjU0NDEgMTcuMDg3MSAzOC4xOTQxIDE3LjM1MjQgMzYuNzE0NSAxOC4xNzc5QzM1Ljg1OTcgMTguNjQ4MiAzNS4xMjQ3IDE5LjMxNDUgMzQuNTY3NSAyMC4xMjM4QzMzLjY2ODEgMjEuMzYyMSAzMS43ODIzIDI1LjEzNTggMjkuMjAwMiAyNi4xMzgyQzI2LjI5OSAyMy4zNjY5IDIzLjc0NTkgMjEuMDM3OCAyMS4yNzk4IDE4Ljk3NEMxOS44ODcyIDE3Ljg1MzYgMTguNTIzNiAxNi43OTIzIDE3LjM2MzEgMTYuMDI1N0MxNC41MjYzIDE0LjAwMzggMTEuNTM4NiAxMi4yMDk4IDguNDI3MyAxMC42NTk5QzcuMDkyNzIgMTAuMDQwOCA1LjcwMDEzIDkuNDgwNiA0LjE2MjQ3IDguODkwOTRDMy40OTUxOCA4LjY4NDU3IDMuMTE4MDIgOS4wMDg4NyAzLjAwMTk3IDkuNTM5NTZDMi45NDM5NCA5LjcxNjQ2IDIuODg1OTIgMTAuMTg4MiAzLjE3NjA0IDExLjAxMzdDMy45NjU3MyAxMy4xMDEzIDQuOTE2NDMgMTUuMTIyMiA2LjAxOTI2IDE3LjA1NzZDNi40NTQ0NSAxNy44NTM2IDYuOTQ3NjYgMTguNjc5MiA3LjQ2OTg5IDE5LjUwNDdDOS45MDA3NSAyMy4zOTI4IDEyLjc1MiAyNi45OTI0IDE1Ljk3MDUgMzAuMjM2M0MxNi42Mzc4IDMwLjg4NDkgMTcuMjc2MSAzMS40NzQ2IDE3Ljk3MjQgMzIuMDM0N0MxOC44MDU1IDMyLjc0MjYgMTkuNjc3MyAzMy40MDIxIDIwLjU4MzUgMzQuMDEwMUMyMC42NzA2IDM0LjA2OSAyMS4xMDU3IDM0LjMzNDQgMjEuMzk1OSAzNC41MTEzQzIxLjk3NjEgMzQuODM1NiAyMi43NTk1IDM1LjIxODkgMjMuMjUyNyAzNS40MjUyQzI1LjI2MzQgMzYuMzYxNCAyNy40NTI4IDM2LjgzNDYgMjkuNjY0NCAzNi44MTA5QzMyLjg4NDggMzYuODk5NCAzNS40OTU5IDM1Ljg2NzUgMzYuNzcyNSAzNC4xMjhDMzcuMzA5IDMzLjM5MTIgMzcuODAzMSAzMi42MjM0IDM4LjI1MjEgMzEuODI4NEw0My40NzQ0IDIyLjgwNjdDNDMuOTM4NiAyMS45ODEyIDQ0Ljc3OTkgMjAuOTE5OCA0NS41NjMyIDIwLjUwNzFDNDUuODI0NCAyMC4zNTk3IDQ2LjA1NjUgMjAuMjcxMiA0Ni4xMTQ1IDIwLjIxMjJDNDYuNjY1NyAxOS45NDY5IDQ2LjY2NTcgMjAuMDM1MyA0Ny4yNDYgMTkuNzk5NUM1MC45NTk2IDE4LjQ3MjggNTUuMzk4NSAxOC4wMDExIDU3LjE2ODIgMTcuNzk0N0M1Ny4yMDcyIDE3Ljc4OTkgNTcuMjQzMiAxNy43NzA3IDU3LjI2OTIgMTcuNzQwOUM1Ny4yOTUzIDE3LjcxMSA1Ny4zMDk3IDE3LjY3MjQgNTcuMzA5NyAxNy42MzI1QzU3LjMwOTcgMTcuNTkyNiA1Ny4yOTUzIDE3LjU1NDEgNTcuMjY5MiAxNy41MjQyQzU3LjI0MzIgMTcuNDk0MyA1Ny4yMDcyIDE3LjQ3NTIgNTcuMTY4MiAxNy40NzA0WiIvPiYjeGE7PHBhdGggZmlsbD0idXJsKCNwYWludDJfbGluZWFyKSIgZD0iTTIuOTQzODUgOS44NjQwM0MyLjk0Mzg1IDkuNzc1NTkgMi45NzI4NiA5LjY4NzE0IDIuOTQzODUgOS42MjgxN0MyLjk3MzExIDkuNzAzOTggMi45NzMxMSA5Ljc4ODIzIDIuOTQzODUgOS44NjQwM1oiIG9wYWNpdHk9IjAuOCIvPiYjeGE7PHBhdGggZmlsbD0idXJsKCNwYWludDNfbGluZWFyKSIgZD0iTTUuMzgxMzkgOS4zMDM5OEM1LjMzNjg0IDkuMjgwMTcgNS4yODY0NyA5LjI2OTkzIDUuMjM2MzMgOS4yNzQ1QzUuMzIzMzcgOS4zMDM5OCA1LjQxMDQgOS4zNjI5NCA1LjQ5NzQ0IDkuMzkyNDNDNS40OTc0NCA5LjM2Mjk0IDUuNDM5NDIgOS4zMzM0NiA1LjM4MTM5IDkuMzAzOThaIiBvcGFjaXR5PSIwLjgiLz4mI3hhOzxwYXRoIGZpbGw9InVybCgjcGFpbnQ0X2xpbmVhcikiIGQ9Ik02LjI4MDYgOS42ODcyQzYuMjUxNTkgOS42ODcyIDYuMTkzNTYgOS42NTc3MSA2LjE2NDU1IDkuNjU3NzFDNi4yMzg2OSA5LjY5NTMgNi4zMTY0NyA5LjcyNDk0IDYuMzk2NjUgOS43NDYxNkM2LjMzODYzIDkuNzE2NjggNi4zMDk2MSA5LjY4NzIgNi4yODA2IDkuNjg3MloiIG9wYWNpdHk9IjAuOCIvPiYjeGE7PHBhdGggZmlsbD0idXJsKCNwYWludDVfbGluZWFyKSIgZD0iTTIzLjMxMDkgMjYuNjY4OUMyNS4yODIzIDI2Ljk3MDQgMjcuMjk2NSAyNi43Njc3IDI5LjE3MTUgMjYuMDc5M0MyNy40MzA3IDI0LjQyODIgMjUuNzc3IDIyLjkyNDYgMjQuMjM5MyAyMS41Njg0QzIzLjQ1NiAyMC44OTAzIDIyLjcwMTcgMjAuMjEyMiAyMS45NzY0IDE5LjU5MzFDMjEuOTQ3NCAxOS41NjM2IDIxLjg4OTMgMTkuNTM0MSAyMS44ODkzIDE5LjUwNDdDMjEuNjg2MiAxOS4zMjc4IDIxLjUxMjIgMTkuMTgwNCAyMS4zMzgxIDE5LjAzMjlDMjEuMjgwMSAxOS4wMDM1IDIxLjI1MTEgMTguOTQ0NSAyMS4yMjIgMTguOTQ0NUMxOS44Mjk0IDE3LjgyNDIgMTguNDY1OSAxNi43OTIzIDE3LjM2MzQgMTUuOTk2MkMxNC40MDQxIDEzLjk2MTkgMTEuNDQ0OCAxMi4wNzUxIDguNDU2NTYgMTAuNjMwNEM4LjE5NTQ1IDEwLjQ4MyA3LjkzNDMzIDEwLjM5NDYgNy42NDQyMSAxMC4yNDcxQzcuNTcwMDcgMTAuMjA5NiA3LjQ5MjI5IDEwLjE3OTkgNy40MTIxMSAxMC4xNTg3QzE4Ljk1OTEgMTYuNDk3NCAyMi42NDM3IDIyLjI0NjUgMjMuMzEwOSAyNi42Njg5WiIvPiYjeGE7PHBhdGggZmlsbD0idXJsKCNwYWludDZfbGluZWFyKSIgZD0iTTMuMzc5MDcgMTEuNTc0QzMuMjkyMDMgMTEuMzk3MSAzLjIzNDAxIDExLjE5MDggMy4xNDY5NyAxMC45ODQ0QzMuMjM0MDEgMTEuMTYxMyAzLjI5MjAzIDExLjM2NzYgMy4zNzkwNyAxMS41NzRaIiBvcGFjaXR5PSIwLjgiLz4mI3hhOzxwYXRoIGZpbGw9InVybCgjcGFpbnQ3X2xpbmVhcikiIGQ9Ik0yLjk0Mzg1IDkuOTUyNTJDMi45NDM4NSA5LjkyMzA0IDIuOTQzODUgOS45MjMwNCAyLjk3Mjg2IDkuODkzNTVDMi45NzI4NiA5LjkyMzA0IDIuOTcyODYgOS45MjMwNCAyLjk0Mzg1IDkuOTUyNTJaIiBvcGFjaXR5PSIwLjMiLz4mI3hhOzxwYXRoIGZpbGw9InVybCgjcGFpbnQ4X2xpbmVhcikiIGQ9Ik00LjE5MTQxIDguODYxNTdDNC41Njg1NyA5LjAwODk4IDQuOTE2NzIgOS4xMjY5MiA1LjI2NDg3IDkuMjc0MzNDNC44ODc3MSA5LjEyNjkyIDQuNTM5NTYgOC45Nzk1IDQuMTkxNDEgOC44NjE1N1oiIG9wYWNpdHk9IjAuMyIvPiYjeGE7PHBhdGggZmlsbD0idXJsKCNwYWludDlfbGluZWFyKSIgZD0iTTIuOTQzODUgOS45NTI2NEMyLjk1OTU0IDEwLjMwNTEgMy4wMjgwMiAxMC42NTMxIDMuMTQ2OTQgMTAuOTg0NUMzLjAyODAyIDEwLjY1MzEgMi45NTk1NCAxMC4zMDUxIDIuOTQzODUgOS45NTI2NFoiIG9wYWNpdHk9IjAuMyIvPiYjeGE7PHBhdGggZmlsbD0idXJsKCNwYWludDEwX2xpbmVhcikiIGQ9Ik03LjIzNzg1IDEwLjA5OTlMNy40MTE5MiAxMC4xODgzQzcuMDkyNzggMTAuMDQwOSA2Ljc0NDYzIDkuODkzNTEgNi4zOTY0OCA5Ljc0NjA5QzYuNTEyNTMgOS44MDUwNiA2LjU5OTU3IDkuODM0NTQgNi43MTU2MiA5Ljg5MzUxQzYuODk0MzcgOS45NDk0IDcuMDY4OSAxMC4wMTg0IDcuMjM3ODUgMTAuMDk5OVoiIG9wYWNpdHk9IjAuMyIvPiYjeGE7PHBhdGggZmlsbD0idXJsKCNwYWludDExX2xpbmVhcikiIGQ9Ik0xMC42NjE1IDIwLjQ3NzhDNy41NTcxOSAxNy45NDIzIDQuNjI2OTMgMTQuNDA0NCAzLjM3OTM5IDExLjYwMzVDNi4yODA2NCAxOS4wNjI2IDEzLjgyMzkgMjkuNjQ2OCAyMC41NTQ4IDM0LjAxMDNDMjAuNjcwOCAzNC4wOTg3IDIxLjA3NyAzNC4zMzQ2IDIxLjM5NjEgMzQuNTExNUMyMi4yNjY1IDMzLjE1NTMgMjMuODYyMiAzMC4zNTQ0IDIzLjMxMSAyNi42NjkxQzE5LjE2MjIgMjYuMTA4OSAxNC42OTQzIDIzLjgwOTMgMTAuNjYxNSAyMC40Nzc4WiIvPiYjeGE7PHBhdGggZmlsbD0idXJsKCNwYWludDEyX2xpbmVhcikiIGQ9Ik02LjE2NDQ0IDkuNjU3NDNMNS41NTUxOCA5LjM5MjA5QzUuNTg0MTkgOS4zOTIwOSA1LjYxMzIgOS40MjE1NyA1LjY0MjIxIDkuNDIxNTdDNS43ODcyOCA5LjQ4MDU0IDUuOTYxMzUgOS41Njg5OSA2LjE2NDQ0IDkuNjU3NDNaIiBvcGFjaXR5PSIwLjMiLz4mI3hhOzxwYXRoIGZpbGw9InVybCgjcGFpbnQxM19saW5lYXIpIiBkPSJNMTAuNjYxNCAyMC40Nzc4QzE0LjY5NDIgMjMuODA5MyAxOS4xNjIxIDI2LjA3OTUgMjMuMzEwOSAyNi42Mzk2QzIyLjY0MzYgMjIuMjQ2NyAxOC45NTkgMTYuNDY4MiA3LjQxMjA1IDEwLjE4ODRDNy4zNTEyNCAxMC4xNjQ5IDcuMjkyOTIgMTAuMTM1MyA3LjIzNzk4IDEwLjA5OTlDNy4wNjM5IDEwLjAxMTUgNi44ODk4MyA5Ljk1MjUyIDYuNzQ0NzYgOS44NjQwOEM2LjYyODcxIDkuODA1MTEgNi41NDE2OCA5Ljc3NTYzIDYuNDI1NjMgOS43MTY2NkM2LjM1MTQ5IDkuNjc5MDggNi4yNzM3IDkuNjQ5NDQgNi4xOTM1MyA5LjYyODIyQzYuMDE2NjQgOS41NDE4MSA1LjgzMjA2IDkuNDcyNzEgNS42NDIyOSA5LjQyMTg0QzUuNjEzMjggOS40MjE4NCA1LjU4NDI3IDkuMzkyMzYgNS41NTUyNSA5LjM5MjM2QzUuNDY4MjIgOS4zNjI4NyA1LjM4MTE4IDkuMzAzOTEgNS4yOTQxNCA5LjI3NDQzQzQuOTQ1OTkgOS4xNTY1IDQuNTk3ODQgOC45Nzk2IDQuMjIwNjggOC44NjE2N0MzLjU1MzM5IDguNjU1MjkgMy4xNzYyMyA4Ljk3OTYgMy4wMzExNyA5LjQ4MDhDMy4wMTY1MiA5LjUzODgxIDMuMDA2ODEgOS41OTggMy4wMDIxNiA5LjY1NzdDMi45NzMxNCA5LjcxNjY2IDMuMDAyMTYgOS44MDUxMSAzLjAwMjE2IDkuODkzNTZDMy4wMDIxNiA5LjkyMzA0IDMuMDAyMTYgOS45MjMwNCAyLjk3MzE0IDkuOTUyNTJDMi45ODg4NCAxMC4zMDUgMy4wNTczMiAxMC42NTI5IDMuMTc2MjMgMTAuOTg0NEMzLjI0MDg1IDExLjE5NTUgMy4zMTgzNyAxMS40MDIzIDMuNDA4MzMgMTEuNjAzNUM0LjYyNjg1IDE0LjQwNDQgNy41ODYxMyAxNy45NDIzIDEwLjY2MTQgMjAuNDc3OFoiIG9wYWNpdHk9IjAuOCIvPiYjeGE7PHBhdGggZmlsbD0idXJsKCNwYWludDE0X2xpbmVhcikiIGQ9Ik0xMC42NjE0IDIwLjQ3NzhDMTQuNjk0MiAyMy44MDkzIDE5LjE2MjEgMjYuMDc5NSAyMy4zMTA5IDI2LjYzOTZDMjIuNjQzNiAyMi4yNDY3IDE4Ljk1OSAxNi40NjgyIDcuNDEyMDUgMTAuMTg4NEM3LjM1MTI0IDEwLjE2NDkgNy4yOTI5MiAxMC4xMzUzIDcuMjM3OTggMTAuMDk5OUM3LjA2MzkgMTAuMDExNSA2Ljg4OTgzIDkuOTUyNTIgNi43NDQ3NiA5Ljg2NDA4QzYuNjI4NzEgOS44MDUxMSA2LjU0MTY4IDkuNzc1NjMgNi40MjU2MyA5LjcxNjY2QzYuMzUxNDkgOS42NzkwOCA2LjI3MzcgOS42NDk0NCA2LjE5MzUzIDkuNjI4MjJDNi4wMTY2NCA5LjU0MTgxIDUuODMyMDYgOS40NzI3MSA1LjY0MjI5IDkuNDIxODRDNS42MTMyOCA5LjQyMTg0IDUuNTg0MjcgOS4zOTIzNiA1LjU1NTI1IDkuMzkyMzZDNS40NjgyMiA5LjM2Mjg3IDUuMzgxMTggOS4zMDM5MSA1LjI5NDE0IDkuMjc0NDNDNC45NDU5OSA5LjE1NjUgNC41OTc4NCA4Ljk3OTYgNC4yMjA2OCA4Ljg2MTY3QzMuNTUzMzkgOC42NTUyOSAzLjE3NjIzIDguOTc5NiAzLjAzMTE3IDkuNDgwOEMzLjAxNjUyIDkuNTM4ODEgMy4wMDY4MSA5LjU5OCAzLjAwMjE2IDkuNjU3N0MyLjk3MzE0IDkuNzE2NjYgMy4wMDIxNiA5LjgwNTExIDMuMDAyMTYgOS44OTM1NkMzLjAwMjE2IDkuOTIzMDQgMy4wMDIxNiA5LjkyMzA0IDIuOTczMTQgOS45NTI1MkMyLjk4ODg0IDEwLjMwNSAzLjA1NzMyIDEwLjY1MjkgMy4xNzYyMyAxMC45ODQ0QzMuMjQwODUgMTEuMTk1NSAzLjMxODM3IDExLjQwMjMgMy40MDgzMyAxMS42MDM1QzQuNjI2ODUgMTQuNDA0NCA3LjU4NjEzIDE3Ljk0MjMgMTAuNjYxNCAyMC40Nzc4WiIvPiYjeGE7PHBhdGggZmlsbD0idXJsKCNwYWludDE1X2xpbmVhcikiIGQ9Ik01Ny4xNjg1IDE3LjQ3MDZDNTUuOTIxIDE3LjI5MzcgNTMuMTY0OCAxNy4yMzQ3IDQ3LjcxMDQgMTguMzg0NUM0Ny4wNjQ1IDE4LjU0MDYgNDYuNDAxMiAxOC42MDk5IDQ1LjczNzYgMTguNTkwOUM0NS4wMTc2IDE4LjUwNzUgNDQuMzA4IDE4LjM0OTQgNDMuNjE5NyAxOC4xMTkyQzQyLjIwNzYgMTcuNjAxOSA0MC43MDkzIDE3LjM3MTUgMzkuMjA5OCAxNy40NDExQzM4LjE4MjQgMTcuNTEzNiAzNy4xOTE5IDE3Ljg1OTMgMzYuMzM3NSAxOC40NDM1QzM1LjY1NCAxOC44OTM4IDM1LjA2MjggMTkuNDc0NSAzNC41OTY4IDIwLjE1MzVDMzMuNjk3NCAyMS4zOTE4IDMxLjgxMTYgMjUuMTY1NSAyOS4yMjk1IDI2LjE2NzlDMzEuMjYwNCAyOC4xMTM4IDM0LjM5MzcgMjkuNzM1MyAzNy4zMjQgMjguNzYyNEM0MC4xMzgyIDI3LjgxOSA0MS44Nzg5IDI1LjI4MzUgNDIuNDMwMiAyNC40NTc5QzQyLjk5MjcgMjMuNTkwMyA0My42MTMxIDIyLjc2MjkgNDQuMjg3IDIxLjk4MTRDNDUuMjM3OSAyMC45Njk0IDQ2LjQyNTcgMjAuMjE4OCA0Ny43Mzk0IDE5Ljc5OTdDNTEuMDQ2OSAxOC42Nzk0IDU2LjAzNyAxOC4wMDEzIDU3LjIyNjUgMTcuODgzM0M1Ny4zNzE2IDE3Ljc2NTQgNTcuMzQyNiAxNy41MDAxIDU3LjE2ODUgMTcuNDcwNloiLz4mI3hhOzxwYXRoIGZpbGw9IiMyODJFMzgiIGQ9Ik00MC45Mzg4IDIxLjU3NTJDNDEuNDE5NSAyMS41NzUyIDQxLjgwOTIgMjEuMTc5MiA0MS44MDkyIDIwLjY5MDdDNDEuODA5MiAyMC4yMDIyIDQxLjQxOTUgMTkuODA2MiA0MC45Mzg4IDE5LjgwNjJDNDAuNDU4MSAxOS44MDYyIDQwLjA2ODQgMjAuMjAyMiA0MC4wNjg0IDIwLjY5MDdDNDAuMDY4NCAyMS4xNzkyIDQwLjQ1ODEgMjEuNTc1MiA0MC45Mzg4IDIxLjU3NTJaIi8+JiN4YTs8cGF0aCBmaWxsPSIjMjgyRTM4IiBkPSJNOTAuMjQyNyAzMi42MDQ1Qzg4LjUxMjIgMzIuNjA3MSA4Ni44NTMzIDMzLjMwNjkgODUuNjI5NyAzNC41NTAzQzg0LjQwNiAzNS43OTM4IDgzLjcxNzQgMzcuNDc5NSA4My43MTQ4IDM5LjIzODFWNDEuMjEzNEM4My43MTc0IDQyLjk3MTkgODQuNDA2IDQ0LjY1NzcgODUuNjI5NyA0NS45MDExQzg2Ljg1MzMgNDcuMTQ0NiA4OC41MTIyIDQ3Ljg0NDMgOTAuMjQyNyA0Ny44NDdIOTQuMzkxNFY0NS40Mjk0SDkwLjI0MjdDODkuMTgyNCA0NS40Mjc2IDg4LjE2MjggNDUuMDE0OCA4Ny4zOTE4IDQ0LjI3NTFDODYuNjIwOCA0My41MzU1IDg2LjE1NjYgNDIuNTI0OCA4Ni4wOTM5IDQxLjQ0OTNIOTQuNTk0NUM5NC44NzY2IDQxLjQ0OTkgOTUuMTU2MSA0MS4zOTM5IDk1LjQxNjkgNDEuMjg0NUM5NS42Nzc2IDQxLjE3NTEgOTUuOTE0NiA0MS4wMTQ0IDk2LjExNDEgNDAuODExN0M5Ni4zMTM1IDQwLjYwOSA5Ni40NzE3IDQwLjM2ODIgOTYuNTc5MyA0MC4xMDMyQzk2LjY4NyAzOS44MzgyIDk2Ljc0MjEgMzkuNTU0MiA5Ni43NDE1IDM5LjI2NzVDOTYuNzQ2NCAzOC4zOTYxIDk2LjU4MjEgMzcuNTMyMiA5Ni4yNTggMzYuNzI1NEM5NS45MzM4IDM1LjkxODYgOTUuNDU2MyAzNS4xODQ3IDk0Ljg1MjYgMzQuNTY1N0M5NC4yNDg5IDMzLjk0NjggOTMuNTMwOSAzMy40NTQ5IDkyLjczOTkgMzMuMTE4NEM5MS45NDg4IDMyLjc4MTggOTEuMTAwMiAzMi42MDcyIDkwLjI0MjcgMzIuNjA0NVpNODYuMDkzOSAzOS4wMDIyQzg2LjE1NDkgMzcuOTI2IDg2LjYxODUgMzYuOTE0MyA4Ny4zODk5IDM2LjE3NDJDODguMTYxMiAzNS40MzQyIDg5LjE4MTkgMzUuMDIyIDkwLjI0MjcgMzUuMDIyQzkxLjMwMzQgMzUuMDIyIDkyLjMyNDEgMzUuNDM0MiA5My4wOTU0IDM2LjE3NDJDOTMuODY2OCAzNi45MTQzIDk0LjMzMDUgMzcuOTI2IDk0LjM5MTQgMzkuMDAyMkg4Ni4wOTM5WiIvPiYjeGE7PHBhdGggZmlsbD0iIzI4MkUzOCIgZD0iTTU1LjMxMTcgMzAuMTg3MUg1Ny4wNTI1VjI3Ljc2OTVINTUuMzExN0M1NC42NTUxIDI3Ljc3MTYgNTQuMDA1NyAyNy45MDg1IDUzLjQwMjUgMjguMTcyQzUyLjc5OTMgMjguNDM1NCA1Mi4yNTQ2IDI4LjgyIDUxLjgwMTIgMjkuMzAyNkM1MC44ODQyIDMwLjI2OTggNTAuMzY1MyAzMS41NTY1IDUwLjM1MDYgMzIuODk5NVYzMy4xOTQzSDQ4Ljk1OFYzNS42MTE5SDUwLjM1MDZWNDcuNzg4Mkg1Mi43Mjk2VjM1LjYxMTlINTUuOTIxVjMzLjIyMzhINTIuNzI5NlYzMi45MjlDNTIuNzU4NiAzMS40NTQ5IDUzLjk0ODEgMzAuMTg3MSA1NS4zMTE3IDMwLjE4NzFaIi8+JiN4YTs8cGF0aCBmaWxsPSIjMjgyRTM4IiBkPSJNNjMuMTQ0NiAyNy43OTkxSDYwLjc2NTZWNDcuODQ3Mkg2My4xNDQ2VjI3Ljc5OTFaIi8+JiN4YTs8cGF0aCBmaWxsPSIjMzBCOTlFIiBkPSJNMTQyLjI5MSAzMi42MDQ1SDEzOS45MTJWNDcuNzg4SDE0Mi4yOTFWMzIuNjA0NVoiLz4mI3hhOzxwYXRoIGZpbGw9IiMyODJFMzgiIGQ9Ik03Ny40NzcxIDQxLjYyNjFDNzcuNDc3MSA0Mi42MzQ4IDc3LjA4MjggNDMuNjAyMiA3Ni4zODA5IDQ0LjMxNTVDNzUuNjc5IDQ1LjAyODcgNzQuNzI3MSA0NS40Mjk0IDczLjczNDUgNDUuNDI5NEM3Mi43NDE5IDQ1LjQyOTQgNzEuNzkgNDUuMDI4NyA3MS4wODgxIDQ0LjMxNTVDNzAuMzg2MiA0My42MDIyIDY5Ljk5MTkgNDIuNjM0OCA2OS45OTE5IDQxLjYyNjFWMzIuNjA0NUg2Ny42NzA5VjQxLjYyNjFDNjcuNjcwOSA0My4yNjgyIDY4LjMxMjggNDQuODQzIDY5LjQ1NTQgNDYuMDA0MUM3MC41OTggNDcuMTY1MiA3Mi4xNDc3IDQ3LjgxNzUgNzMuNzYzNSA0Ny44MTc1Qzc1LjM3OTQgNDcuODE3NSA3Ni45MjkxIDQ3LjE2NTIgNzguMDcxNiA0Ni4wMDQxQzc5LjIxNDIgNDQuODQzIDc5Ljg1NjEgNDMuMjY4MiA3OS44NTYxIDQxLjYyNjFWMzIuNjA0NUg3Ny40NzcxVjQxLjYyNjFaIi8+JiN4YTs8cGF0aCBmaWxsPSIjMjgyRTM4IiBkPSJNMTA1LjIxMyAzMi42MDQ1QzEwMy41OTkgMzIuNjA5MyAxMDIuMDUyIDMzLjI2MzEgMTAwLjkxIDM0LjQyMzJDOTkuNzY4NyAzNS41ODMzIDk5LjEyNTMgMzcuMTU1MyA5OS4xMjA2IDM4Ljc5NThWNDcuODE3NUgxMDEuNVYzOC43OTU4QzEwMS41IDM3Ljc4NzEgMTAxLjg5NCAzNi44MTk4IDEwMi41OTYgMzYuMTA2NUMxMDMuMjk4IDM1LjM5MzMgMTA0LjI1IDM0Ljk5MjYgMTA1LjI0MiAzNC45OTI2QzEwNi4yMzUgMzQuOTkyNiAxMDcuMTg3IDM1LjM5MzMgMTA3Ljg4OSAzNi4xMDY1QzEwOC41OTEgMzYuODE5OCAxMDguOTg1IDM3Ljc4NzEgMTA4Ljk4NSAzOC43OTU4VjQ3LjgxNzVIMTExLjM2NFYzOC43OTU4QzExMS4zMzYgMzcuMTUyNCAxMTAuNjc4IDM1LjU4NSAxMDkuNTI4IDM0LjQyODNDMTA4LjM3OSAzMy4yNzE1IDEwNi44MzEgMzIuNjE3IDEwNS4yMTMgMzIuNjA0NVoiLz4mI3hhOzxwYXRoIGZpbGw9IiMyODJFMzgiIGQ9Ik0xMTguMTIzIDQyLjY4NzhWMzUuMDIyM0gxMjEuMzE1VjMyLjYzNDJIMTE4LjEyM1YyNy43OTkxSDExNS43NzNWMzIuNjM0MkgxMTMuNjg1VjM1LjA1MThIMTE1Ljc3M1Y0Mi43MTcyQzExNS43NzcgNDQuMDQ1MyAxMTYuMjk4IDQ1LjMxNzkgMTE3LjIyMiA0Ni4yNTdDMTE4LjE0NiA0Ny4xOTYxIDExOS4zOTkgNDcuNzI1NCAxMjAuNzA2IDQ3LjcyOTNIMTIxLjc1VjQ1LjMxMTdIMTIwLjcwNkMxMjAuMDIxIDQ1LjMxMDIgMTE5LjM2NSA0NS4wMzMyIDExOC44ODEgNDQuNTQxNUMxMTguMzk4IDQ0LjA0OTcgMTE4LjEyNSA0My4zODMyIDExOC4xMjMgNDIuNjg3OFoiLz4mI3hhOzxwYXRoIGZpbGw9IiMzMEI5OUUiIGQ9Ik0xNDkuOTIxIDQyLjY4NzhWMzUuMDIyM0gxNTMuMTEyVjMyLjYzNDJIMTQ5LjkyMVYyNy43OTkxSDE0Ny41NDJWMzIuNjM0MkgxNDUuNDUzVjM1LjA1MThIMTQ3LjU0MlY0Mi43MTcyQzE0Ny41NDYgNDQuMDQ1MyAxNDguMDY3IDQ1LjMxNzkgMTQ4Ljk5MSA0Ni4yNTdDMTQ5LjkxNSA0Ny4xOTYxIDE1MS4xNjcgNDcuNzI1NCAxNTIuNDc0IDQ3LjcyOTNIMTUzLjUxOVY0NS4zMTE3SDE1Mi40NzRDMTUxLjc5NCA0NS4zMDQgMTUxLjE0NSA0NS4wMjQyIDE1MC42NjcgNDQuNTMyOUMxNTAuMTg5IDQ0LjA0MTYgMTQ5LjkyMSA0My4zNzg2IDE0OS45MjEgNDIuNjg3OFoiLz4mI3hhOzxwYXRoIGZpbGw9IiMzMEI5OUUiIGQ9Ik0xMjYuNzQgMjcuNzk5MVYzMy45NjA5QzEyNy44MDYgMzMuMTA4MSAxMjkuMTI2IDMyLjY1MDUgMTMwLjQ4MyAzMi42NjM3QzEzMi4wOTcgMzIuNjY4NSAxMzMuNjQ0IDMzLjMyMjMgMTM0Ljc4NiAzNC40ODI0QzEzNS45MjcgMzUuNjQyNSAxMzYuNTcxIDM3LjIxNDUgMTM2LjU3NSAzOC44NTVWNDEuNjU1OUMxMzYuNTc1IDQzLjI5NzkgMTM1LjkzMyA0NC44NzI3IDEzNC43OTEgNDYuMDMzOEMxMzMuNjQ4IDQ3LjE5NDkgMTMyLjA5OSA0Ny44NDcyIDEzMC40ODMgNDcuODQ3MkMxMjguODY3IDQ3Ljg0NzIgMTI3LjMxNyA0Ny4xOTQ5IDEyNi4xNzUgNDYuMDMzOEMxMjUuMDMyIDQ0Ljg3MjcgMTI0LjM5IDQzLjI5NzkgMTI0LjM5IDQxLjY1NTlWMjcuNzk5MUgxMjYuNzRaTTEyNi43NCA0MC4xNTIzVjQxLjYyNjRDMTI2Ljc0IDQyLjYzNTEgMTI3LjEzNCA0My42MDI0IDEyNy44MzYgNDQuMzE1N0MxMjguNTM4IDQ1LjAyODkgMTI5LjQ5IDQ1LjQyOTYgMTMwLjQ4MyA0NS40Mjk2QzEzMS40NzUgNDUuNDI5NiAxMzIuNDI3IDQ1LjAyODkgMTMzLjEyOSA0NC4zMTU3QzEzMy44MzEgNDMuNjAyNCAxMzQuMjI1IDQyLjYzNTEgMTM0LjIyNSA0MS42MjY0VjM4LjgyNTZDMTM0LjIyNSAzNy44MTY5IDEzMy44MzEgMzYuODQ5NSAxMzMuMTI5IDM2LjEzNjJDMTMyLjQyNyAzNS40MjMgMTMxLjQ3NSAzNS4wMjIzIDEzMC40ODMgMzUuMDIyM0MxMjkuNDkgMzUuMDIyMyAxMjguNTM4IDM1LjQyMyAxMjcuODM2IDM2LjEzNjJDMTI3LjEzNCAzNi44NDk1IDEyNi43NCAzNy44MTY5IDEyNi43NCAzOC44MjU2VjQwLjE1MjNaIi8+JiN4YTs8ZGVmcz4mI3hhOzxsaW5lYXJHcmFkaWVudCBncmFkaWVudFVuaXRzPSJ1c2VyU3BhY2VPblVzZSIgeTI9IjM0LjMzOTYiIHgyPSIzLjk4Nzc1IiB5MT0iMzAuMDI1NCIgeDE9IjU4LjI5MDkiIGlkPSJwYWludDBfbGluZWFyIj4mI3hhOzxzdG9wIHN0b3AtY29sb3I9IiMwMDk3Q0UiIG9mZnNldD0iMC4yOTg2Ii8+JiN4YTs8c3RvcCBzdG9wLWNvbG9yPSIjMDk5OUM1IiBvZmZzZXQ9IjAuMzc5MSIvPiYjeGE7PHN0b3Agc3RvcC1jb2xvcj0iIzIyOURBRCIgb2Zmc2V0PSIwLjUxMTkiLz4mI3hhOzxzdG9wIHN0b3AtY29sb3I9IiM0MkEzOEYiIG9mZnNldD0iMC42NDY5Ii8+JiN4YTs8c3RvcCBzdG9wLWNvbG9yPSIjNURBRDgyIiBvZmZzZXQ9IjAuNzM1MiIvPiYjeGE7PHN0b3Agc3RvcC1jb2xvcj0iI0ExQzY2MSIgb2Zmc2V0PSIwLjkyMzkiLz4mI3hhOzxzdG9wIHN0b3AtY29sb3I9IiNCRUQxNTMiIG9mZnNldD0iMSIvPiYjeGE7PC9saW5lYXJHcmFkaWVudD4mI3hhOzxsaW5lYXJHcmFkaWVudCBncmFkaWVudFVuaXRzPSJ1c2VyU3BhY2VPblVzZSIgeTI9IjI5LjkzMyIgeDI9IjUzLjk4NzYiIHkxPSIxNS42Nzc1IiB4MT0iMS4zMzgyNSIgaWQ9InBhaW50MV9saW5lYXIiPiYjeGE7PHN0b3Agc3RvcC1jb2xvcj0iIzNENjVBRiIgb2Zmc2V0PSIwLjA4MTk5Ii8+JiN4YTs8c3RvcCBzdG9wLWNvbG9yPSIjMjM3MkI4IiBvZmZzZXQ9IjAuMjMwNSIvPiYjeGE7PHN0b3Agc3RvcC1jb2xvcj0iIzAwQjhCQiIgb2Zmc2V0PSIwLjUwNTgiLz4mI3hhOzwvbGluZWFyR3JhZGllbnQ+JiN4YTs8bGluZWFyR3JhZGllbnQgZ3JhZGllbnRVbml0cz0idXNlclNwYWNlT25Vc2UiIHkyPSIxNy40ODQiIHgyPSIzMS41MjI1IiB5MT0iOS43NDAxOCIgeDE9IjIuOTIyNjciIGlkPSJwYWludDJfbGluZWFyIj4mI3hhOzxzdG9wIG9mZnNldD0iMC4xMjk3Ii8+JiN4YTs8c3RvcCBzdG9wLWNvbG9yPSIjMDAzMzRCIiBvZmZzZXQ9IjAuMzI3NyIvPiYjeGE7PHN0b3Agc3RvcC1jb2xvcj0iIzAwNjE5MCIgb2Zmc2V0PSIwLjUyNzYiLz4mI3hhOzxzdG9wIHN0b3AtY29sb3I9IiMwMDdGQkIiIG9mZnNldD0iMC42NzIzIi8+JiN4YTs8c3RvcCBzdG9wLWNvbG9yPSIjMDA4QUNDIiBvZmZzZXQ9IjAuNzQ1NyIvPiYjeGE7PC9saW5lYXJHcmFkaWVudD4mI3hhOzxsaW5lYXJHcmFkaWVudCBncmFkaWVudFVuaXRzPSJ1c2VyU3BhY2VPblVzZSIgeTI9IjYzLjE2MDYiIHgyPSIzNi43MzIxIiB5MT0iNjMuMTYwNiIgeDE9IjEwLjA5NiIgaWQ9InBhaW50M19saW5lYXIiPiYjeGE7PHN0b3Agb2Zmc2V0PSIwLjEyOTciLz4mI3hhOzxzdG9wIHN0b3AtY29sb3I9IiMwMDMzNEIiIG9mZnNldD0iMC4zMjc3Ii8+JiN4YTs8c3RvcCBzdG9wLWNvbG9yPSIjMDA2MTkwIiBvZmZzZXQ9IjAuNTI3NiIvPiYjeGE7PHN0b3Agc3RvcC1jb2xvcj0iIzAwN0ZCQiIgb2Zmc2V0PSIwLjY3MjMiLz4mI3hhOzxzdG9wIHN0b3AtY29sb3I9IiMwMDhBQ0MiIG9mZnNldD0iMC43NDU3Ii8+JiN4YTs8L2xpbmVhckdyYWRpZW50PiYjeGE7PGxpbmVhckdyYWRpZW50IGdyYWRpZW50VW5pdHM9InVzZXJTcGFjZU9uVXNlIiB5Mj0iNDkuNzQ4NCIgeDI9IjM0LjE2MDkiIHkxPSI0OS43NDg0IiB4MT0iMTAuNDg0MiIgaWQ9InBhaW50NF9saW5lYXIiPiYjeGE7PHN0b3Agb2Zmc2V0PSIwLjEyOTciLz4mI3hhOzxzdG9wIHN0b3AtY29sb3I9IiMwMDMzNEIiIG9mZnNldD0iMC4zMjc3Ii8+JiN4YTs8c3RvcCBzdG9wLWNvbG9yPSIjMDA2MTkwIiBvZmZzZXQ9IjAuNTI3NiIvPiYjeGE7PHN0b3Agc3RvcC1jb2xvcj0iIzAwN0ZCQiIgb2Zmc2V0PSIwLjY3MjMiLz4mI3hhOzxzdG9wIHN0b3AtY29sb3I9IiMwMDhBQ0MiIG9mZnNldD0iMC43NDU3Ii8+JiN4YTs8L2xpbmVhckdyYWRpZW50PiYjeGE7PGxpbmVhckdyYWRpZW50IGdyYWRpZW50VW5pdHM9InVzZXJTcGFjZU9uVXNlIiB5Mj0iMjIuMzQxMiIgeDI9IjMwLjE4MzYiIHkxPSIxNS43NjQ1IiB4MT0iNS44OTQyNSIgaWQ9InBhaW50NV9saW5lYXIiPiYjeGE7PHN0b3Agc3RvcC1jb2xvcj0iIzI0ODNDNSIgb2Zmc2V0PSIwLjEyOTciLz4mI3hhOzxzdG9wIHN0b3AtY29sb3I9IiMyNDg2QzciIG9mZnNldD0iMC4xNjcyIi8+JiN4YTs8c3RvcCBzdG9wLWNvbG9yPSIjMjlCMURGIiBvZmZzZXQ9IjAuNjc2Ii8+JiN4YTs8c3RvcCBzdG9wLWNvbG9yPSIjMkJDMkU4IiBvZmZzZXQ9IjAuOTM1MiIvPiYjeGE7PC9saW5lYXJHcmFkaWVudD4mI3hhOzxsaW5lYXJHcmFkaWVudCBncmFkaWVudFVuaXRzPSJ1c2VyU3BhY2VPblVzZSIgeTI9IjI4Mi45MjQiIHgyPSIzMS4xNDMyIiB5MT0iMjgyLjkyNCIgeDE9IjcuNDY2NjMiIGlkPSJwYWludDZfbGluZWFyIj4mI3hhOzxzdG9wIG9mZnNldD0iMC4xMjk3Ii8+JiN4YTs8c3RvcCBzdG9wLWNvbG9yPSIjMDAzMzRCIiBvZmZzZXQ9IjAuMzI3NyIvPiYjeGE7PHN0b3Agc3RvcC1jb2xvcj0iIzAwNjE5MCIgb2Zmc2V0PSIwLjUyNzYiLz4mI3hhOzxzdG9wIHN0b3AtY29sb3I9IiMwMDdGQkIiIG9mZnNldD0iMC42NzIzIi8+JiN4YTs8c3RvcCBzdG9wLWNvbG9yPSIjMDA4QUNDIiBvZmZzZXQ9IjAuNzQ1NyIvPiYjeGE7PC9saW5lYXJHcmFkaWVudD4mI3hhOzxsaW5lYXJHcmFkaWVudCBncmFkaWVudFVuaXRzPSJ1c2VyU3BhY2VPblVzZSIgeTI9IjkuOTIzOTgiIHgyPSIyLjk2MTc0IiB5MT0iOS45MjM5NyIgeDE9IjIuOTYxNzEiIGlkPSJwYWludDdfbGluZWFyIj4mI3hhOzxzdG9wIHN0b3AtY29sb3I9IiM2ODJDOTAiLz4mI3hhOzxzdG9wIHN0b3AtY29sb3I9IiM4MTdDQjkiIG9mZnNldD0iMC40OTYiLz4mI3hhOzxzdG9wIHN0b3AtY29sb3I9IndoaXRlIiBvZmZzZXQ9IjEiLz4mI3hhOzwvbGluZWFyR3JhZGllbnQ+JiN4YTs8bGluZWFyR3JhZGllbnQgZ3JhZGllbnRVbml0cz0idXNlclNwYWNlT25Vc2UiIHkyPSIxOTUuNjgyIiB4Mj0iNjEuODQzNSIgeTE9IjE5NS42ODIiIHgxPSIxMTcuMzA4IiBpZD0icGFpbnQ4X2xpbmVhciI+JiN4YTs8c3RvcCBzdG9wLWNvbG9yPSIjNjgyQzkwIi8+JiN4YTs8c3RvcCBzdG9wLWNvbG9yPSIjODE3Q0I5IiBvZmZzZXQ9IjAuNDk2Ii8+JiN4YTs8c3RvcCBzdG9wLWNvbG9yPSJ3aGl0ZSIgb2Zmc2V0PSIxIi8+JiN4YTs8L2xpbmVhckdyYWRpZW50PiYjeGE7PGxpbmVhckdyYWRpZW50IGdyYWRpZW50VW5pdHM9InVzZXJTcGFjZU9uVXNlIiB5Mj0iNDgzLjMxNyIgeDI9IjEzLjg1MSIgeTE9IjQ4My4zMTciIHgxPSIyNC4zNDQ0IiBpZD0icGFpbnQ5X2xpbmVhciI+JiN4YTs8c3RvcCBzdG9wLWNvbG9yPSIjNjgyQzkwIi8+JiN4YTs8c3RvcCBzdG9wLWNvbG9yPSIjODE3Q0I5IiBvZmZzZXQ9IjAuNDk2Ii8+JiN4YTs8c3RvcCBzdG9wLWNvbG9yPSJ3aGl0ZSIgb2Zmc2V0PSIxIi8+JiN4YTs8L2xpbmVhckdyYWRpZW50PiYjeGE7PGxpbmVhckdyYWRpZW50IGdyYWRpZW50VW5pdHM9InVzZXJTcGFjZU9uVXNlIiB5Mj0iMjEwLjMzMSIgeDI9IjYwLjkzMjIiIHkxPSIyMTAuMzMxIiB4MT0iMTEzLjM5OSIgaWQ9InBhaW50MTBfbGluZWFyIj4mI3hhOzxzdG9wIHN0b3AtY29sb3I9IiM2ODJDOTAiLz4mI3hhOzxzdG9wIHN0b3AtY29sb3I9IiM4MTdDQjkiIG9mZnNldD0iMC40OTYiLz4mI3hhOzxzdG9wIHN0b3AtY29sb3I9IndoaXRlIiBvZmZzZXQ9IjEiLz4mI3hhOzwvbGluZWFyR3JhZGllbnQ+JiN4YTs8bGluZWFyR3JhZGllbnQgZ3JhZGllbnRVbml0cz0idXNlclNwYWNlT25Vc2UiIHkyPSIyNi4xOTE3IiB4Mj0iMjQuMzMxMSIgeTE9IjE5LjkwOTgiIHgxPSIxLjEzMDM1IiBpZD0icGFpbnQxMV9saW5lYXIiPiYjeGE7PHN0b3Agc3RvcC1jb2xvcj0iIzNCNjdBRCIgb2Zmc2V0PSIwLjEyOTciLz4mI3hhOzxzdG9wIHN0b3AtY29sb3I9IiMyMjdDQUEiIG9mZnNldD0iMC41Njk3Ii8+JiN4YTs8c3RvcCBzdG9wLWNvbG9yPSIjMTE4QUE4IiBvZmZzZXQ9IjAuOTM1MiIvPiYjeGE7PC9saW5lYXJHcmFkaWVudD4mI3hhOzxsaW5lYXJHcmFkaWVudCBncmFkaWVudFVuaXRzPSJ1c2VyU3BhY2VPblVzZSIgeTI9IjEyOS42MTIiIHgyPSIzOC4yNzY2IiB5MT0iMTI5LjYxMiIgeDE9IjY5Ljc1NjciIGlkPSJwYWludDEyX2xpbmVhciI+JiN4YTs8c3RvcCBzdG9wLWNvbG9yPSIjNjgyQzkwIi8+JiN4YTs8c3RvcCBzdG9wLWNvbG9yPSIjODE3Q0I5IiBvZmZzZXQ9IjAuNDk2Ii8+JiN4YTs8c3RvcCBzdG9wLWNvbG9yPSJ3aGl0ZSIgb2Zmc2V0PSIxIi8+JiN4YTs8L2xpbmVhckdyYWRpZW50PiYjeGE7PGxpbmVhckdyYWRpZW50IGdyYWRpZW50VW5pdHM9InVzZXJTcGFjZU9uVXNlIiB5Mj0iODQ0OC4wMyIgeDI9IjI0NTYuMDYiIHkxPSI4NDQ4LjAzIiB4MT0iMzgxLjM5OCIgaWQ9InBhaW50MTNfbGluZWFyIj4mI3hhOzxzdG9wIG9mZnNldD0iMC4xMjk3Ii8+JiN4YTs8c3RvcCBzdG9wLWNvbG9yPSIjMDAzMzRCIiBvZmZzZXQ9IjAuMzI3NyIvPiYjeGE7PHN0b3Agc3RvcC1jb2xvcj0iIzAwNjE5MCIgb2Zmc2V0PSIwLjUyNzYiLz4mI3hhOzxzdG9wIHN0b3AtY29sb3I9IiMwMDdGQkIiIG9mZnNldD0iMC42NzIzIi8+JiN4YTs8c3RvcCBzdG9wLWNvbG9yPSIjMDA4QUNDIiBvZmZzZXQ9IjAuNzQ1NyIvPiYjeGE7PC9saW5lYXJHcmFkaWVudD4mI3hhOzxsaW5lYXJHcmFkaWVudCBncmFkaWVudFVuaXRzPSJ1c2VyU3BhY2VPblVzZSIgeTI9IjIwLjc0NzIiIHgyPSIyNC45MTciIHkxPSIxNC40NDY2IiB4MT0iMS42NDczNyIgaWQ9InBhaW50MTRfbGluZWFyIj4mI3hhOzxzdG9wIHN0b3AtY29sb3I9IiMzQTY3QjAiIG9mZnNldD0iMC4xMjk3Ii8+JiN4YTs8c3RvcCBzdG9wLWNvbG9yPSIjMzU3RkJEIiBvZmZzZXQ9IjAuNTYyMiIvPiYjeGE7PHN0b3Agc3RvcC1jb2xvcj0iIzMyOTBDNiIgb2Zmc2V0PSIwLjkzNTIiLz4mI3hhOzwvbGluZWFyR3JhZGllbnQ+JiN4YTs8bGluZWFyR3JhZGllbnQgZ3JhZGllbnRVbml0cz0idXNlclNwYWNlT25Vc2UiIHkyPSIyNS42NDMyIiB4Mj0iNTUuMTU2OCIgeTE9IjE5LjEyNjYiIHgxPSIzMS4wODk0IiBpZD0icGFpbnQxNV9saW5lYXIiPiYjeGE7PHN0b3Agc3RvcC1jb2xvcj0iIzRFNUNBOCIgb2Zmc2V0PSIwLjE3MjQiLz4mI3hhOzxzdG9wIHN0b3AtY29sb3I9IiMxRkMzRjMiIG9mZnNldD0iMC45OTM3Ii8+JiN4YTs8L2xpbmVhckdyYWRpZW50PiYjeGE7PC9kZWZzPiYjeGE7PC9zdmc+;" vertex="1" parent="1">
          <mxGeometry x="20" y="244.29" width="87" height="27.71" as="geometry" />
        </mxCell>
        <mxCell id="MrLOl76Ptph7SCetX4YU-20" style="edgeStyle=orthogonalEdgeStyle;rounded=0;orthogonalLoop=1;jettySize=auto;html=1;entryX=1;entryY=0.5;entryDx=0;entryDy=0;entryPerimeter=0;strokeColor=#FC9432;" edge="1" parent="1" source="t1x7EK1OemjOOLSHdHvf-20" target="t1x7EK1OemjOOLSHdHvf-42">
          <mxGeometry relative="1" as="geometry">
            <Array as="points">
              <mxPoint x="280" y="230" />
              <mxPoint x="280" y="130" />
            </Array>
          </mxGeometry>
        </mxCell>
        <mxCell id="MrLOl76Ptph7SCetX4YU-33" style="edgeStyle=orthogonalEdgeStyle;rounded=0;orthogonalLoop=1;jettySize=auto;html=1;strokeColor=#006600;" edge="1" parent="1">
          <mxGeometry relative="1" as="geometry">
            <mxPoint x="170" y="128" as="sourcePoint" />
            <mxPoint x="190" y="128" as="targetPoint" />
          </mxGeometry>
        </mxCell>
        <mxCell id="MrLOl76Ptph7SCetX4YU-16" value="" style="outlineConnect=0;dashed=0;verticalLabelPosition=bottom;verticalAlign=top;align=center;html=1;shape=mxgraph.aws3.kinesis;fillColor=#F58534;gradientColor=none;fontSize=9;labelBackgroundColor=default;spacingTop=4;" vertex="1" parent="1">
          <mxGeometry x="140" y="108.62" width="33.33" height="40" as="geometry" />
        </mxCell>
        <mxCell id="MrLOl76Ptph7SCetX4YU-39" style="edgeStyle=orthogonalEdgeStyle;rounded=0;orthogonalLoop=1;jettySize=auto;html=1;strokeColor=#4C0099;" edge="1" parent="1" source="t1x7EK1OemjOOLSHdHvf-82" target="t1x7EK1OemjOOLSHdHvf-30">
          <mxGeometry relative="1" as="geometry" />
        </mxCell>
        <mxCell id="MrLOl76Ptph7SCetX4YU-40" value="&lt;font style=&quot;font-size: 9px;&quot;&gt;Metrics&lt;/font&gt;" style="edgeLabel;html=1;align=center;verticalAlign=middle;resizable=0;points=[];" vertex="1" connectable="0" parent="MrLOl76Ptph7SCetX4YU-39">
          <mxGeometry x="-0.4632" relative="1" as="geometry">
            <mxPoint x="5" as="offset" />
          </mxGeometry>
        </mxCell>
        <mxCell id="MrLOl76Ptph7SCetX4YU-44" style="edgeStyle=orthogonalEdgeStyle;rounded=0;orthogonalLoop=1;jettySize=auto;html=1;exitX=1;exitY=0.5;exitDx=0;exitDy=0;jumpStyle=arc;strokeColor=#006600;" edge="1" parent="1" source="MrLOl76Ptph7SCetX4YU-2" target="t1x7EK1OemjOOLSHdHvf-12">
          <mxGeometry relative="1" as="geometry">
            <Array as="points">
              <mxPoint x="290" y="339" />
              <mxPoint x="290" y="170" />
            </Array>
          </mxGeometry>
        </mxCell>
        <mxCell id="MrLOl76Ptph7SCetX4YU-45" value="&lt;font style=&quot;font-size: 9px;&quot;&gt;Logs&lt;/font&gt;" style="edgeLabel;html=1;align=center;verticalAlign=middle;resizable=0;points=[];" vertex="1" connectable="0" parent="MrLOl76Ptph7SCetX4YU-44">
          <mxGeometry x="-0.707" y="-1" relative="1" as="geometry">
            <mxPoint as="offset" />
          </mxGeometry>
        </mxCell>
      </root>
    </mxGraphModel>
  </diagram>
</mxfile>
